<?xml version="1.0" standalone="no"?>
<!DOCTYPE svg PUBLIC "-//W3C//DTD SVG 1.1//EN" "http://www.w3.org/Graphics/SVG/1.1/DTD/svg11.dtd" >
<svg>
<metadata>
Created by FontForge 20090914 at Mon Jul  6 01:46:59 2015
 By www-data
Copyright (c) 2011 Juan Montoreano (juan@remolacha.biz), with Reserved Font Names "Lilita One"
</metadata>
<defs>
<font id="LilitaOne" horiz-adv-x="655" >
  <font-face 
    font-family="Lilita One"
    font-weight="400"
    font-stretch="normal"
    units-per-em="1000"
    panose-1="2 0 0 0 0 0 0 0 0 0"
    ascent="800"
    descent="-200"
    x-height="500.001"
    cap-height="700"
    bbox="-118 -220 953 923"
    underline-thickness="50"
    underline-position="-50"
    unicode-range="U+0020-U+FB02"
  />
<missing-glyph horiz-adv-x="199" 
 />
    <glyph glyph-name=".notdef" horiz-adv-x="199" 
 />
    <glyph glyph-name="space" unicode=" " horiz-adv-x="188" 
 />
    <glyph glyph-name="exclam" unicode="!" horiz-adv-x="287" 
d="M210 210c0 -4 -23.833 -6 -71.5 -6s-71.5 1.66699 -71.5 5l-20 493c0 5.33301 30.5 8 91.5 8s91.5 -2.33301 91.5 -7zM45 150c0 4.66699 30.833 7 92.5 7s92.5 -2 92.5 -6v-144c0 -6.66699 -30.833 -10 -92.5 -10s-92.5 2 -92.5 6v147z" />
    <glyph glyph-name="quotedbl" unicode="&#x22;" horiz-adv-x="460" 
d="M208 663l-0.00195312 -211c0 -12 -9.33301 -20.667 -28 -26c-9.33301 -2.66699 -18.666 -4 -27.999 -4s-18.666 1.33301 -27.999 4c-19.333 5.33301 -29 14 -29 26l-30 211c0 12 11.667 20.667 35 26c12 2.66699 24 4 36 4s24 -1.33301 36 -4c24 -5.33301 36 -14 36 -26z
M311.998 422c-9.33301 0 -18.668 1.33301 -28.001 4c-19.333 5.33301 -29 14 -29 26v211c0 12 11.667 20.667 35 26c12 2.66699 24 4 36 4s24 -1.33301 36 -4c24 -5.33301 36 -14 36 -26l-30 -211c0 -12 -9.33301 -20.667 -28 -26c-9.33301 -2.66699 -18.666 -4 -27.999 -4z
" />
    <glyph glyph-name="numbersign" unicode="#" horiz-adv-x="833" 
d="M704 300c12 0 20.6709 -9.66406 26.0039 -28.9971c3.33301 -10.667 5 -20.834 5 -30.501s-1 -18.834 -3 -27.501c-4.66699 -19.333 -13.334 -29 -26.001 -29l-150 -1l-57 -169c-4 -10 -14 -15 -30 -15c-14 0 -28.667 3.66699 -44 11
c-30.667 14.667 -42.334 29.667 -35.001 45l43 128h-116l-57 -168c-3.33301 -9.33301 -12.666 -14 -27.999 -14s-30.666 3.66699 -45.999 11c-30.667 14.667 -42.334 29.667 -35.001 45l42 126h-75c-7.33301 0 -13.333 4 -18 12c-6 9.33301 -9 20.333 -9 33
s0.666992 24 2 34s4.83301 18.833 10.5 26.5s12.167 11.167 19.5 10.5h110l35 104h-114c-7.33301 0 -13.333 4 -18 12c-6 9.33301 -9 20.333 -9 33s0.666992 24 2 34s4.83301 18.833 10.5 26.5s12.167 11.167 19.5 10.5h148l50 147c4 10.667 14.667 16 32 16
c13.333 0 27.666 -3.33301 42.999 -10c30 -13.333 42.333 -27 37 -41l-38 -112h116l49 146c5.33301 14.667 21.666 19 48.999 13c28 -5.33301 47.333 -14.666 58 -27.999c6 -7.33301 7.66699 -14.333 5 -21l-37 -109h69c12 0 20.667 -9.66699 26 -29
c3.33301 -10.667 5 -20.834 5 -30.501s-1 -18.834 -3 -27.501c-4.66699 -19.333 -13.334 -29 -26.001 -29h-111l-35 -104h108zM384.004 412.003l-41 -122h136l41 122h-136z" />
    <glyph glyph-name="dollar" unicode="$" horiz-adv-x="531" 
d="M303 767l0.000976562 -57.0039c49.333 -2 92 -8.83301 128 -20.5s54 -29.167 54 -52.5c0 -20.667 -6.83301 -48 -20.5 -82s-23.167 -52 -28.5 -54c-56 23.333 -100.333 36.333 -133 39v-113c140 -5.33301 210 -72.666 210 -201.999c0 -60.667 -17.333 -112.667 -52 -156
s-87.334 -68.666 -158.001 -75.999v-69c0 -12 -3.5 -20 -10.5 -24s-12.833 -6 -17.5 -6l-14 4c-9.33301 5.33301 -14 14 -14 26v66c-56 1.33301 -105.5 11.333 -148.5 30s-64.5 42.334 -64.5 71.001c0 37.333 11.333 75 34 113c2 4 4.66699 8.33301 8 13
c54 -32.667 111 -51 171 -55v110c-142 8.66699 -213 81.334 -213 218.001c0 60 19 109.333 57 148s90 62 156 70v59c0 12 3.5 20 10.5 24s12.833 6 17.5 6l14 -4c9.33301 -5.33301 14 -14 14 -26zM374.001 229.996c0 15.333 -5.16699 25.833 -15.5 31.5
s-28.833 9.16699 -55.5 10.5v-108c47.333 8 71 30 71 66zM186.001 478.996c0 -28 20.333 -44.333 61 -49v109c-40.667 -6.66699 -61 -26.667 -61 -60z" />
    <glyph glyph-name="uni0025" unicode="%" horiz-adv-x="798" 
d="M297 662c28.667 -32.667 43.001 -80.499 43.001 -143.499s-14.167 -110.833 -42.5 -143.5s-64.833 -49 -109.5 -49s-81.334 15.833 -110.001 47.5s-43 79.667 -43 144s14 112.666 42 144.999s64.5 48.5 109.5 48.5s81.833 -16.333 110.5 -49zM235.001 519.001
c0 43.333 -15.667 65 -47 65s-47 -21.667 -47 -65c0 -20.667 4.33301 -36.334 13 -47.001s20 -16 34 -16s25.333 5.33301 34 16s13 26.334 13 47.001zM710.001 328.001c28.667 -32.667 43.001 -80.499 43.001 -143.499s-14.167 -110.833 -42.5 -143.5
s-64.833 -49 -109.5 -49s-81.334 15.833 -110.001 47.5s-43 79.667 -43 144s14 112.666 42 144.999s64.5 48.5 109.5 48.5s81.833 -16.333 110.5 -49zM648.002 185.002c0 43.333 -15.667 65 -47 65s-47 -21.667 -47 -65c0 -20.667 4.33301 -36.334 13 -47.001s20 -16 34 -16
s25.333 5.33301 34 16s13 26.334 13 47.001zM578.002 702.002c6 5.33301 12.333 7.99902 19 7.99902c24.667 0 47 -12.333 67 -37c8 -10 12 -18.167 12 -24.5s-1.33301 -11.166 -4 -14.499l-475 -636c-6 -5.33301 -12.333 -8 -19 -8c-24 0 -46 12.667 -66 38
c-8.66699 10 -13 18 -13 24s1.33301 10.667 4 14z" />
    <glyph glyph-name="ampersand" unicode="&#x26;" horiz-adv-x="667" 
d="M349 489l1.00098 10.002c0 16.667 -5.5 30 -16.5 40s-24.5 15 -40.5 15s-29.333 -5.33301 -40 -16s-16 -25.334 -16 -44.001c0 -50.667 35.667 -76 107 -76c16 0 34 1.33301 54 4c131.333 16.667 197.666 25 198.999 25c18.667 0 28 -19 28 -57
c0 -30.667 -6.33301 -61 -19 -91l-102 -12c17.333 -42 26 -80 26 -114c0 -52.667 -20.167 -96.334 -60.5 -131.001s-99 -52 -176 -52s-137.833 18.833 -182.5 56.5s-67 86 -67 145s28.333 109.5 85 151.5c-42 46.667 -63 100.667 -63 162s21.333 110.833 64 148.5
s98 56.5 166 56.5s121.833 -16.667 161.5 -50s59.5 -78.333 59.5 -135c0 -11.333 -10.833 -22.333 -32.5 -33s-47.5 -16 -77.5 -16s-49.333 4.33301 -58 13zM239.001 285.002c-7.33301 -19.333 -11 -36.5 -11 -51.5s2.33301 -28.167 7 -39.5c10.667 -26 32 -39 64 -39
c22.667 0 39.167 8.16699 49.5 24.5s15.5 36.833 15.5 61.5c0 11.333 -0.333008 19.833 -1 25.5s-1 9.16699 -1 10.5c-22.667 -4 -45 -6 -67 -6s-40.667 4.66699 -56 14z" />
    <glyph glyph-name="quotesingle" unicode="'" horiz-adv-x="301" 
d="M146 422c-9.33301 0 -18.6699 1.33301 -28.0029 4c-18.667 5.33301 -28 14 -28 26l-20 211c0 12 12.667 20.667 38 26c12.667 2.66699 25.334 4 38.001 4s25.334 -1.33301 38.001 -4c26 -5.33301 39 -14 39 -26l-20 -211c0 -12 -9.66699 -20.667 -29 -26
c-9.33301 -2.66699 -18.666 -4 -27.999 -4z" />
    <glyph glyph-name="parenleft" unicode="(" horiz-adv-x="430" 
d="M190 676c7.33301 13.333 18.666 20 33.999 20c23.333 0 42.666 -3 57.999 -9l34.5 -13.5c7.66699 -3 15.834 -7.16699 24.501 -12.5c-32 -70.667 -55.833 -131.667 -71.5 -183s-23.5 -107 -23.5 -167c0.666992 -115.333 33.334 -228.333 98.001 -339
c-6.66699 -6.66699 -19.5 -14.334 -38.5 -23.001s-33.667 -14.5 -44 -17.5s-18.833 -4.5 -25.5 -4.5c-24 0 -40.667 9.66699 -50 29c-60.667 122.667 -91 244.334 -91 365.001s31.667 239 95 355z" />
    <glyph glyph-name="parenright" unicode=")" horiz-adv-x="422" 
d="M249 676c63.333 -116 95 -234.331 95 -354.998s-30.333 -242.334 -91 -365.001c-10 -19.333 -26.667 -29 -50 -29c-14 0 -31.333 4.66699 -52 14c-30.667 14 -49.334 24.333 -56.001 31c64.667 110.667 97.334 223.667 98.001 339c0 60 -7.83301 115.667 -23.5 167
s-39.5 112.333 -71.5 183c0 1.33301 11 6.66602 33 15.999c31.333 13.333 56.333 20 75 20s33 -7 43 -21z" />
    <glyph glyph-name="asterisk" unicode="*" horiz-adv-x="557" 
d="M326 549c80.667 15.333 124.5 22.999 131.5 22.999s13.833 -6 20.5 -18s10 -22 10 -30c0 -25.333 -7.66699 -38.666 -23 -39.999l-115 -14l74 -114c9.33301 -22.667 -4.33398 -40.667 -41.001 -54c-6.66699 -2 -12 -3 -16 -3c-13.333 0 -21.666 3.33301 -24.999 10
l-59 113l-54 -113c-4 -5.33301 -9.16699 -8 -15.5 -8s-14.333 1 -24 3s-19.5 8 -29.5 18s-15 17.833 -15 23.5s1.33301 10.167 4 13.5l70 111c-55.333 7.33301 -93.666 12 -114.999 14c-15.333 0.666992 -23 11.667 -23 33c0 12 3.33301 24.167 10 36.5s15 18.5 25 18.5
l125 -23l-4 119c-0.666992 11.333 7 19.333 23 24c8 2.66699 16 4 24 4s16 -1.33301 24 -4c15.333 -4.66699 22.666 -12.667 21.999 -24z" />
    <glyph glyph-name="plus" unicode="+" horiz-adv-x="602" 
d="M353 574v-168h169c12 0 20.667 -9.66699 26 -29c2.66699 -10 4 -19.667 4 -29s-1.33301 -19 -4 -29c-5.33301 -19.333 -14 -29 -26 -29h-169v-171c0 -12 -9.66699 -20.667 -29 -26c-9.33301 -2.66699 -19 -4 -29 -4l-29 4c-19.333 5.33301 -29 14 -29 26v171h-170
c-12 0 -20.667 9.66699 -26 29c-2.66699 10 -4 19.667 -4 29s1.33301 19 4 29c5.33301 19.333 14 29 26 29h170v168c0 12 9.66699 20.667 29 26c9.33301 2.66699 19 4 29 4l29 -4c19.333 -5.33301 29 -14 29 -26z" />
    <glyph glyph-name="comma" unicode="," horiz-adv-x="305" 
d="M120 148c4 10.667 32.333 16 85 16s79 -7 79 -21l-2 -85l-58 -136c-8.66699 -19.333 -35.5 -29 -80.5 -29s-73.5 7.33301 -85.5 22c-2.66699 3.33301 -4 6.5 -4 9.5s0.333008 5.83301 1 8.5l61 124z" />
    <glyph glyph-name="hyphen" unicode="-" horiz-adv-x="525" 
d="M460 190h-395c-12 0 -20.667 9.66699 -26 29c-2.66699 10 -4 19.667 -4 29s1.33301 19 4 29c5.33301 19.333 14 29 26 29h395c12 0 20.667 -9.66699 26 -29c2.66699 -10 4 -19.667 4 -29s-1.33301 -19 -4 -29c-5.33301 -19.333 -14 -29 -26 -29z" />
    <glyph glyph-name="period" unicode="." horiz-adv-x="229" 
d="M209 -3c0 -4.66699 -31.5 -7 -94.5 -7s-94.5 2 -94.5 6v180c0 6 31.5 9 94.5 9s94.5 -1.66699 94.5 -5v-183z" />
    <glyph glyph-name="slash" unicode="/" horiz-adv-x="573" 
d="M470 775c3.33301 7.33301 9.83105 10.999 19.498 10.999s19.834 -2.33301 30.501 -7c24.667 -11.333 40.667 -24.666 48 -39.999c2.66699 -4.66699 4 -9 4 -13s-0.666992 -7.33301 -2 -10l-467 -811c-4 -6.66699 -11 -10 -21 -10s-20 2.33301 -30 7
c-25.333 12 -41.666 25.333 -48.999 40c-2 4 -3 7.83301 -3 11.5s1 7.16699 3 10.5z" />
    <glyph glyph-name="zero" unicode="0" horiz-adv-x="639" 
d="M114.5 82c-53 61.333 -79.499 151 -79.499 269s26.667 207.167 80 267.5s122.166 90.5 206.499 90.5s152.5 -30 204.5 -90s78 -150.333 78 -271s-26.5 -210.5 -79.5 -269.5s-121.333 -88.5 -205 -88.5s-152 30.667 -205 92zM254.501 473.5
c-17.667 -29 -26.498 -70.168 -26.498 -123.501s8.5 -94.166 25.5 -122.499s39 -42.5 66 -42.5s49 14.333 66 43s25.5 69.667 25.5 123s-8.83301 94.333 -26.5 123s-39.334 43 -65.001 43s-47.334 -14.5 -65.001 -43.5z" />
    <glyph glyph-name="one" unicode="1" horiz-adv-x="406" 
d="M356 17c0 -11.333 -33.833 -17 -101.5 -17s-101.5 5.66699 -101.5 17v493l-108 -1c-20 0 -30 32 -30 96c0 22 2.16699 43.333 6.5 64s11.833 31 22.5 31h274c11.333 0 20.5 -2.5 27.5 -7.5s10.5 -11.167 10.5 -18.5v-657z" />
    <glyph glyph-name="two" unicode="2" horiz-adv-x="525" 
d="M433 0l-331.999 -0.000976562c-23.333 0 -39.666 22.667 -48.999 68c-4.66699 24.667 -7 43.334 -7 56.001s2 21 6 25c149.333 154 224 258.667 224 314c0 18.667 -4.83301 32.667 -14.5 42s-25 14 -46 14s-42 -4 -63 -12s-37.5 -16.667 -49.5 -26
c-26 31.333 -44 64.333 -54 99c-3.33301 11.333 -5 21.833 -5 31.5s1.66699 18.834 5 27.501c5.33301 17.333 30.166 33.666 74.499 48.999s91.166 23 140.499 23c149.333 0 224 -66.333 224 -199c0 -58.667 -20 -118.167 -60 -178.5s-86.667 -112.5 -140 -156.5l202 8
c3.33301 -35.333 5 -66 5 -92s-5.33301 -48 -16 -66s-25.667 -27 -45 -27z" />
    <glyph glyph-name="three" unicode="3" horiz-adv-x="528" 
d="M20 66c0 18.667 4.66602 39.833 13.999 63.5s18.333 42.667 27 57s13.667 21.5 15 21.5c38.667 -23.333 79.334 -35 122.001 -35c26.667 0 48.167 5.33301 64.5 16s24.5 25.5 24.5 44.5s-7.5 31.167 -22.5 36.5s-38.833 9 -71.5 11h-36c-8 0 -15.5 9.83301 -22.5 29.5
s-10.5 38.834 -10.5 57.501c0 31.333 9.33301 47.333 28 48l29 1c18 0 36.833 5.16699 56.5 15.5s29.5 23.5 29.5 39.5c0 28 -25 42 -75 42c-37.333 0 -73.333 -7.33301 -108 -22c-30 54 -45 96.167 -45 126.5s21.167 53.166 63.5 68.499s95.5 23 159.5 23
s114 -13.333 150 -40s54 -63 54 -109c0 -80.667 -34.667 -142.667 -104 -186c84 -34 126 -91.667 126 -173c0 -63.333 -22.333 -114.5 -67 -153.5s-108.667 -58.5 -192 -58.5c-52.667 0 -100.667 7.5 -144 22.5s-65 32.833 -65 53.5z" />
    <glyph glyph-name="four" unicode="4" horiz-adv-x="598" 
d="M547 299c6.66699 0 10 -25.167 10 -75.5s-3.33301 -75.5 -10 -75.5l-66 -1v-126c0 -7.33301 -13.667 -12.666 -41 -15.999s-51 -5 -71 -5l-41 2c-34 2.66699 -51 8.66699 -51 18v124h-199c-17.333 17.333 -33 39.833 -47 67.5s-21 47.667 -21 60s2 22.166 6 29.499
l219 388c2.66699 5.33301 23.167 9.33301 61.5 12s78.5 4 120.5 4s63 -1.66699 63 -5l1 -401h66zM306 298v209l-117 -209h117z" />
    <glyph glyph-name="five" unicode="5" horiz-adv-x="524" 
d="M427 700c12.667 0 19.002 -27.667 19.002 -83c0 -17.333 -1.5 -37.833 -4.5 -61.5s-8.5 -35.5 -16.5 -35.5h-195l-1 -73h33c71.333 0 124.5 -20.667 159.5 -62s52.5 -96 52.5 -164s-24 -123.5 -72 -166.5s-109.667 -64.5 -185 -64.5s-130.333 10.667 -165 32
c-5.33301 8.66699 -8 22.167 -8 40.5s2.66699 44.333 8 78s12.666 50.5 21.999 50.5c0.666992 0 2.66699 -1.33301 6 -4c47.333 -19.333 83.5 -29 108.5 -29s45.667 6.83301 62 20.5s24.5 31.167 24.5 52.5c0 53.333 -28.667 80 -86 80l-86 -1
c-6.66699 -1.33301 -13.334 1.5 -20.001 8.5s-10 16.167 -10 27.5v313c0 27.333 10 41 30 41h324z" />
    <glyph glyph-name="six" unicode="6" horiz-adv-x="575" 
d="M427 508c-26.667 14.667 -57.668 22 -93.001 22c-62 0 -97.333 -40 -106 -120c34.667 10 71.667 15 111 15c67.333 0 116.833 -17.5 148.5 -52.5s47.5 -82.833 47.5 -143.5c0 -73.333 -22.667 -131.5 -68 -174.5s-106.666 -64.5 -183.999 -64.5s-138 28.167 -182 84.5
s-66 136.5 -66 240.5c0 121.333 27.5 217.5 82.5 288.5s126.5 106.5 214.5 106.5c100 0 150 -20.333 150 -61c0 -29.333 -9.33301 -60.666 -28 -93.999c-6.66699 -14.667 -15.667 -30.334 -27 -47.001zM361.999 228c0 20.667 -6.33203 37.502 -18.999 50.502
s-31.834 19.5 -57.501 19.5s-45.167 -4.66699 -58.5 -14c-0.666992 -8.66699 -1 -18.334 -1 -29.001s1.16699 -23.834 3.5 -39.501s9 -31 20 -46s25.5 -22.5 43.5 -22.5c46 0 69 27 69 81z" />
    <glyph glyph-name="seven" unicode="7" horiz-adv-x="500" 
d="M313 13c-3.33301 -10.667 -38.668 -15.999 -106.001 -15.999s-105 3 -113 9c-2.66699 2 -4 4.33301 -4 7l167 490h-203c-20 0 -30 32.333 -30 97c0 22 2.16699 43.333 6.5 64s11.833 31 22.5 31l350 1c26.667 0 48.334 -14.667 65.001 -44
c8 -14.667 13.667 -29.334 17 -44.001z" />
    <glyph glyph-name="eight" unicode="8" horiz-adv-x="570" 
d="M538 211c0 -65.333 -23.498 -118.666 -70.498 -159.999s-109.667 -62 -188 -62s-140 19.833 -185 59.5s-67.5 91.667 -67.5 156s32.333 121.5 97 171.5c-45.333 39.333 -68 86.666 -68 141.999s21.667 101 65 137s98.666 54 165.999 54s121.166 -16.833 161.499 -50.5
s60.333 -76 60 -127s-21.833 -97.167 -64.5 -138.5c27.333 -20 49.833 -45.833 67.5 -77.5s26.5 -66.5 26.5 -104.5zM225.002 220c0 -19.333 5.83301 -34.832 17.5 -46.499s26.167 -17.5 43.5 -17.5s31.5 5.83301 42.5 17.5s16.5 27.167 16.5 46.5c0 36 -23 65.667 -69 89
c-34 -20.667 -51 -50.334 -51 -89.001zM333.002 503.001c0 14.667 -5.16699 27.001 -15.5 37.001s-21.833 15 -34.5 15c-34 0 -51.667 -16.333 -53 -49c0 -30 23 -58.333 69 -85c22.667 25.333 34 52.666 34 81.999z" />
    <glyph glyph-name="nine" unicode="9" horiz-adv-x="565" 
d="M122 174c50 -10 87.668 -15.001 113.001 -15.001s48.166 8 68.499 24s32.166 41 35.499 75c-33.333 -9.33301 -60 -14 -80 -14c-70 0 -124 19.5 -162 58.5s-57 94.333 -57 166s21.833 129.834 65.5 174.501s103.5 67 179.5 67s135.833 -26.667 179.5 -80
s65.5 -132 65.5 -236c0 -130 -23.167 -229.833 -69.5 -299.5s-115.166 -104.5 -206.499 -104.5c-113.333 0 -170 19 -170 57c0 20 4 46.167 12 78.5s16.667 48.5 26 48.5zM233.501 509.499c-11.667 -13.667 -17.499 -31.167 -17.499 -52.5s6.83301 -38.5 20.5 -51.5
s31.167 -19.5 52.5 -19.5s38.666 4.66699 51.999 14c0 46 -4.33301 79.167 -13 99.5s-23.667 30.5 -45 30.5s-37.833 -6.83301 -49.5 -20.5z" />
    <glyph glyph-name="colon" unicode=":" horiz-adv-x="277" 
d="M247 -3c0 -4.66699 -31.5 -7 -94.5 -7s-94.5 2 -94.5 6v180c0 6 31.5 9 94.5 9s94.5 -1.66699 94.5 -5v-183zM247 318c0 -4.66699 -31.5 -7 -94.5 -7s-94.5 2 -94.5 6v180c0 6 31.5 9 94.5 9s94.5 -1.66699 94.5 -5v-183z" />
    <glyph glyph-name="semicolon" unicode=";" horiz-adv-x="277" 
d="M80 148c4 10.667 32.333 16 85 16s79 -7 79 -21l-2 -85l-58 -136c-8.66699 -19.333 -35.5 -29 -80.5 -29s-73.5 7.33301 -85.5 22c-2.66699 3.33301 -4 6.5 -4 9.5s0.333008 5.83301 1 8.5l61 124zM247 318c0 -4.66699 -31.5 -7 -94.5 -7s-94.5 2 -94.5 6v180
c0 6 31.5 9 94.5 9s94.5 -1.66699 94.5 -5v-183z" />
    <glyph glyph-name="less" unicode="&#x3c;" horiz-adv-x="484" 
d="M311 638c7.33301 0 18.167 -3.33301 32.5 -10s26 -16 35 -28s13.5 -20.833 13.5 -26.5s-2 -10.5 -6 -14.5l-202 -224l205 -211c4 -4 6 -8.83301 6 -14.5s-4.66699 -14.667 -14 -27s-21 -21.666 -35 -27.999s-24.5 -9.5 -31.5 -9.5s-12.833 2.33301 -17.5 7l-231 256
c-9.33301 9.33301 -14 17.666 -14 24.999s3.33301 14.333 10 21l232 277c4 4.66699 9.66699 7 17 7z" />
    <glyph glyph-name="equal" unicode="=" horiz-adv-x="580" 
d="M492 160h-395c-12 0 -20.667 9.66699 -26 29c-2.66699 10 -4 19.667 -4 29s1.33301 19 4 29c5.33301 19.333 14 29 26 29h395c12 0 20.667 -9.66699 26 -29c2.66699 -10 4 -19.667 4 -29s-1.33301 -19 -4 -29c-5.33301 -19.333 -14 -29 -26 -29zM492 384h-395
c-12 0 -20.667 9.66699 -26 29c-2.66699 10 -4 19.667 -4 29s1.33301 19 4 29c5.33301 19.333 14 29 26 29h395c12 0 20.667 -9.66699 26 -29c2.66699 -10 4 -19.667 4 -29s-1.33301 -19 -4 -29c-5.33301 -19.333 -14 -29 -26 -29z" />
    <glyph glyph-name="greater" unicode="&#x3e;" horiz-adv-x="450" 
d="M385 354c6.66699 -6.66699 10 -13.667 10 -21s-4.66699 -15.666 -14 -24.999l-231 -256c-4.66699 -4.66699 -10.5 -7 -17.5 -7s-17.667 3.16699 -32 9.5s-26 15.666 -35 27.999s-13.5 21.333 -13.5 27s2 10.5 6 14.5l205 211l-202 224c-4 4 -6 8.83301 -6 14.5
s4.5 14.5 13.5 26.5s20.667 21.167 35 27.5s25 9.5 32 9.5s12.833 -2 17.5 -6z" />
    <glyph glyph-name="question" unicode="?" horiz-adv-x="584" 
d="M227 198c-52.667 0 -78.999 6.33301 -78.999 19v38c0 30 25 68.333 75 115c18.667 17.333 35.834 37 51.501 59s23.5 42 23.5 60c0 33.333 -19.167 50 -57.5 50s-76.833 -12.667 -115.5 -38c-25.333 25.333 -43 54 -53 86c-4 10.667 -6 20.167 -6 28.5
s1.66699 16.166 5 23.499c5.33301 17.333 30.166 33.666 74.499 48.999s91.166 23 140.499 23c74.667 0 130.667 -16 168 -48s56 -75.667 56 -131c0 -25.333 -6.16699 -50.166 -18.5 -74.499s-27.333 -45.666 -45 -63.999s-35.167 -35.5 -52.5 -51.5
c-42 -40 -63 -70.333 -63 -91v-30c0 -8 -12.333 -13.833 -37 -17.5s-47 -5.5 -67 -5.5zM325.001 -4c0 -4 -27.5 -6 -82.5 -6s-82.5 1.66699 -82.5 5v157c0 5.33301 27.5 8 82.5 8s82.5 -1.66699 82.5 -5v-159z" />
    <glyph glyph-name="at" unicode="@" horiz-adv-x="867" 
d="M607 -29c0 -39.333 -65.999 -59.001 -197.999 -59.001c-114 0 -204.167 29.5 -270.5 88.5s-99.5 142.833 -99.5 251.5c0 126 38.833 227.5 116.5 304.5s179.834 115.5 306.501 115.5c98 0 176.667 -29 236 -87s89 -131 89 -219s-20.5 -153.667 -61.5 -197
s-91.167 -65 -150.5 -65c-20.667 0 -40.834 4.33301 -60.501 13s-34.167 18.334 -43.5 29.001c-31.333 -27.333 -68.5 -41 -111.5 -41s-76 11.333 -99 34s-34.5 57 -34.5 103c0 72.667 25.667 134 77 184s108.333 75 171 75c52.667 0 85 -10.333 97 -31
c6 -10.667 9 -21.834 9 -33.501s-9.33301 -85.167 -28 -220.5l42 -2c10.667 0 20.667 4 30 12s16.666 17 21.999 27c14 24 21 60.333 21 109c0 64 -19.333 114.833 -58 152.5s-89.667 56.5 -153 56.5c-94 0 -168.5 -29 -223.5 -87s-82.5 -133.667 -82.5 -227
c0 -158.667 95 -238 285 -238c58.667 0 106 6 142 18c3.33301 -3.33301 8.33301 -9.66602 15 -18.999c10 -17.333 15 -33 15 -47zM435.001 382.999c-14.667 0 -29.499 -13 -44.499 -39s-23.167 -56.333 -24.5 -91c0 -24.667 11 -37 33 -37c12.667 0 21.667 3 27 9l20 143
c1.33301 10 -2.33398 15 -11.001 15z" />
    <glyph glyph-name="A" unicode="A" 
d="M520 -2c-58 0 -89.333 9.33398 -94 28.001l-33 129h-159l-29 -124c-4 -20.667 -36 -31 -96 -31c-32 0 -55.667 1.83301 -71 5.5s-23 6.5 -23 8.5l177 677c0 5.33301 45.667 8 137 8s137 -2.66699 137 -8l173 -678c0 -4.66699 -15.333 -8.33398 -46 -11.001s-55 -4 -73 -4
zM259 282.001h105l-45 207h-6z" />
    <glyph glyph-name="B" unicode="B" horiz-adv-x="594" 
d="M541 519c0 -69.333 -30 -122 -90 -158c32.667 -12 60 -32.667 82 -62s33 -70.833 33 -124.5s-19.833 -96.167 -59.5 -127.5s-96.5 -47 -170.5 -47h-236c-11.333 -0 -20.666 3.83301 -27.999 11.5s-11 17.834 -11 30.501v640c0 7.33301 1.16699 12.166 3.5 14.499
s7.16602 3.5 14.499 3.5h228c156 0 234 -60.333 234 -181zM253 538v-131h5c64 0 96 21.333 96 64c0 23.333 -6.16699 40.333 -18.5 51s-32.833 16 -61.5 16h-21zM253 289v-129.999h18c28.667 0 49.667 5.33301 63 16s20 27.667 20 51s-6.16699 39.666 -18.5 48.999
s-32.833 14 -61.5 14h-21z" />
    <glyph glyph-name="C" unicode="C" horiz-adv-x="561" 
d="M464.5 688.5c37 -13.667 55.502 -32.1709 55.502 -55.5039s-8.83301 -52.166 -26.5 -86.499s-32.5 -51.5 -44.5 -51.5c-3.33301 0 -7.16602 1.83301 -11.499 5.5s-14.333 7.66699 -30 12s-29.167 6.5 -40.5 6.5c-38.667 0 -69.834 -13.667 -93.501 -41
s-35.5 -69.166 -35.5 -125.499s12.167 -98.166 36.5 -125.499s55.166 -41 92.499 -41c15.333 0 32.5 2.16699 51.5 6.5s32.5 10.5 40.5 18.5c1.33301 1.33301 4 2 8 2s11.5 -7.5 22.5 -22.5s21.167 -34.667 30.5 -59s14 -43.166 14 -56.499c0 -26 -20 -46.667 -60 -62
s-87.333 -23 -142 -23c-88 0 -160.333 31 -217 93s-85 149.5 -85 262.5s29.167 201.833 87.5 266.5s131.166 97 218.499 97c48.667 0 91.5 -6.83301 128.5 -20.5z" />
    <glyph glyph-name="D" unicode="D" horiz-adv-x="616" 
d="M50 46l0.000976562 599.999c0 16.667 4.16699 29.834 12.5 39.501s19.166 14.5 32.499 14.5h167c106 0 186.5 -26.667 241.5 -80s82.5 -137.333 82.5 -252c0 -245.333 -104.667 -368 -314 -368h-171c-34 -0 -51 15.333 -51 46zM242.001 509.999l0.000976562 -299
c0 -14 1 -22.833 3 -26.5s8 -5.5 18 -5.5c36.667 0 64.5 13.667 83.5 41s28.5 72.833 28.5 136.5s-9.83301 105.167 -29.5 124.5s-50.834 29 -93.501 29h-10z" />
    <glyph glyph-name="E" unicode="E" horiz-adv-x="493" 
d="M375 422c12.667 0 19 -23.333 19 -70c0 -14 -1.5 -30.5 -4.5 -49.5s-8.5 -28.5 -16.5 -28.5h-127v-100h184c11.333 0 19 -14.667 23 -44c2 -12.667 3 -26.167 3 -40.5s-2 -32.833 -6 -55.5s-10.667 -34 -20 -34h-342c-25.333 -0 -38 10.333 -38 31v643
c0 17.333 7.66699 26 23 26h358c14 0 21 -29.5 21 -88.5s-7 -88.5 -21 -88.5h-185v-101h129z" />
    <glyph glyph-name="F" unicode="F" horiz-adv-x="472" 
d="M424 700c11.333 0 17 -29.5 17 -88.5s-5.66699 -88.5 -17 -88.5h-183v-114h122c11.333 0 17 -25.833 17 -77.5s-5.33301 -77.5 -16 -77.5h-123v-241c0 -9.33301 -12.5 -15.5 -37.5 -18.5s-45.833 -4.5 -62.5 -4.5l-47 2c-32.667 4 -49 10.667 -49 20v662
c0 10.667 2.16699 17.667 6.5 21s10.833 5 19.5 5h353z" />
    <glyph glyph-name="G" unicode="G" horiz-adv-x="621" 
d="M420 209l2 136c0 9.33301 9.66699 15.5 29 18.5s35.333 4.5 48 4.5l39 -3c25.333 -4 38 -11 38 -21l-4 -313c-13.333 -9.33301 -40.166 -18.5 -80.499 -27.5s-86.5 -13.5 -138.5 -13.5c-96.667 0 -174.667 31.333 -234 94s-89 154.667 -89 276
c0 103.333 29 187.333 87 252s138.333 97 241 97c46.667 0 88.834 -4.5 126.501 -13.5s63.5 -21.167 77.5 -36.5c0.666992 -5.33301 1 -15.333 1 -30s-5 -35.5 -15 -62.5s-21.333 -47.167 -34 -60.5s-21.834 -20 -27.501 -20s-11.667 2.5 -18 7.5s-18.833 10.333 -37.5 16
s-36.667 8.5 -54 8.5c-41.333 0 -74.833 -13.333 -100.5 -40s-38.5 -68 -38.5 -124s13.167 -98.5 39.5 -127.5s56.666 -43.5 90.999 -43.5s51.5 8.66699 51.5 26z" />
    <glyph glyph-name="H" unicode="H" horiz-adv-x="644" 
d="M594 17c0 -11.333 -33.667 -17 -101 -17s-101 5.66699 -101 17v230h-140v-230c0 -11.333 -33.667 -17 -101 -17s-101 5.66699 -101 17v663c0 14 33.667 21 101 21s101 -7 101 -21v-235h140v233c0 9.33301 16.667 16 50 20c17.333 1.33301 34.333 2 51 2l51 -2
c33.333 -4 50 -10.667 50 -20v-661z" />
    <glyph glyph-name="I" unicode="I" horiz-adv-x="429" 
d="M116 172v356h-71c-11.333 0 -19.333 14.333 -24 43c-2 14 -3 28.333 -3 43s1 29 3 43c4.66699 28.667 12.667 43 24 43h336c11.333 0 19 -14.333 23 -43c2.66699 -14 4 -28.333 4 -43s-1.33301 -29 -4 -43c-4 -28.667 -11.667 -43 -23 -43h-67v-356h70
c11.333 0 19.333 -14.333 24 -43c2.66699 -14 4 -28.333 4 -43s-1.33301 -29 -4 -43c-4.66699 -28.667 -12.667 -43 -24 -43h-337c-11.333 -0 -19 14.333 -23 43c-2.66699 14 -4 28.333 -4 43s1.33301 29 4 43c4 28.667 11.667 43 23 43h69z" />
    <glyph glyph-name="J" unicode="J" horiz-adv-x="462" 
d="M9 90c0 19.333 5.66797 41.833 17.001 67.5s23.666 43.167 36.999 52.5c25.333 -18.667 51 -28 77 -28l31 5c36 10.667 54.667 39.334 56 86.001v255h-80c-11.333 0 -19.333 14.333 -24 43c-2 14 -3 28.333 -3 43s1 29 3 43c4.66699 28.667 12.667 43 24 43h238
c13.333 0 23.333 -3.83301 30 -11.5s10 -16.834 10 -27.501v-472c0 -65.333 -21.833 -115 -65.5 -149s-96 -51 -157 -51s-108.5 9 -142.5 27s-51 42.667 -51 74z" />
    <glyph glyph-name="K" unicode="K" horiz-adv-x="620" 
d="M250 14c0 -10 -31.334 -15.002 -94.001 -15.002l-56 3c-33.333 2.66699 -50 7.33398 -50 14.001v671c0 11.333 33.333 17 100 17s100 -5.66699 100 -17v-256l122 256c4.66699 9.33301 31.334 14 80.001 14c88.667 0 135.334 -7.66699 140.001 -23
c0 -1.33301 -0.333008 -2.66602 -1 -3.99902l-174 -314l202 -279c0 -1.33301 -6.33301 -7 -19 -17c-30.667 -26.667 -66.667 -47.667 -108 -63c-12.667 -4.66699 -25.334 -7 -38.001 -7l-24 2c-21.333 5.33301 -38 19 -50 41l-114 218h-16v-241z" />
    <glyph glyph-name="L" unicode="L" horiz-adv-x="435" 
d="M40 59l0.000976562 622c0 14 33.833 21 101.5 21s101.5 -7 101.5 -21v-490h154c12 0 20.333 -15.667 25 -47c2 -15.333 3 -31 3 -47s-1 -32.333 -3 -49c-5.33301 -32 -14 -48 -26 -48h-308c-14.667 0 -26.334 6 -35.001 18s-13 25.667 -13 41z" />
    <glyph glyph-name="M" unicode="M" horiz-adv-x="907" 
d="M750 -1c-59.333 0 -88.999 6.66699 -88.999 20l-21 401l-122 -406c-2.66699 -8 -25.334 -12 -68.001 -12s-64.667 3.66699 -66 11l-126 411l-14 -399c-0.666992 -10 -13.334 -16.833 -38.001 -20.5s-45.167 -5.5 -61.5 -5.5s-32.166 1 -47.499 3
c-32 4.66699 -47.667 13 -47 25l23 650c0 16 40.667 24 122 24c24 0 53.333 -1.83301 88 -5.5s54 -10.834 58 -21.501l112 -315l98 316c6 17.333 52 26 138 26c24.667 0 54.167 -1.83301 88.5 -5.5s51.5 -10.167 51.5 -19.5l29 -656c0 -7.33301 -13 -12.666 -39 -15.999
s-49 -5 -69 -5z" />
    <glyph glyph-name="N" unicode="N" horiz-adv-x="648" 
d="M598 22c0 -14 -31.334 -21 -94.001 -21s-96.667 5 -102 15l-167 312v-311c0 -12 -30.833 -18 -92.5 -18s-92.5 6 -92.5 18v669c0 10 26.333 15 79 15c20.667 0 44.834 -1.83301 72.501 -5.5s44.5 -10.5 50.5 -20.5l160 -308v314c0 12.667 31 19 93 19s93 -6.33301 93 -19
v-659z" />
    <glyph glyph-name="O" unicode="O" horiz-adv-x="696" 
d="M118.5 82c-59 61.333 -88.5 150.832 -88.5 268.499s29.833 206.834 89.5 267.501s136.667 91 231 91s170.5 -29.833 228.5 -89.5s87 -150 87 -271s-29.667 -211 -89 -270s-135.833 -88.5 -229.5 -88.5s-170 30.667 -229 92zM267.5 472.999
c-21.667 -29.333 -32.501 -70.5 -32.501 -123.5s10.333 -93.667 31 -122s47.834 -42.5 81.501 -42.5s61 14.333 82 43s31.5 69.667 31.5 123s-10.833 94.333 -32.5 123s-48.5 43 -80.5 43s-58.833 -14.667 -80.5 -44z" />
    <glyph glyph-name="P" unicode="P" horiz-adv-x="570" 
d="M137 -2c-60.667 0 -91.001 6.66699 -91.001 20v648c0 22.667 10.333 34 31 34h176c98.667 0 169.834 -20.333 213.501 -61s65.5 -99.667 65.5 -177c0 -64 -20.667 -122.667 -62 -176c-20.667 -26.667 -51 -48 -91 -64s-86.667 -24 -140 -24v-179
c0 -8 -12.5 -13.5 -37.5 -16.5s-46.5 -4.5 -64.5 -4.5zM238.999 526v-158.001h13c23.333 0 43 7.33301 59 22s24 35.334 24 62.001s-5.5 45.667 -16.5 57s-30.5 17 -58.5 17h-21z" />
    <glyph glyph-name="Q" unicode="Q" horiz-adv-x="706" 
d="M30 349c0 118.667 29.834 208.334 89.501 269.001s136.667 91 231 91s170.5 -29.833 228.5 -89.5s87 -149.834 87 -270.501c0 -92.667 -18 -167.334 -54 -224.001s-85.333 -95.667 -148 -117l106 -73c4 -2.66699 6 -7.5 6 -14.5s-7.5 -20.167 -22.5 -39.5
s-33 -34.166 -54 -44.499s-36.833 -15.5 -47.5 -15.5s-19.334 3.66699 -26.001 11l-146 162c-74.667 14 -135 51.5 -181 112.5s-69 141.833 -69 242.5zM267.501 473c-21.667 -29.333 -32.501 -70.5 -32.501 -123.5s10.333 -93.667 31 -122s47.834 -42.5 81.501 -42.5
s61 14.333 82 43s31.5 69.667 31.5 123s-10.833 94.333 -32.5 123s-48.5 43 -80.5 43s-58.833 -14.667 -80.5 -44z" />
    <glyph glyph-name="R" unicode="R" horiz-adv-x="590" 
d="M241 14c0 -10.667 -31.668 -16 -95.001 -16c-64 0 -96 5 -96 15v652c0 23.333 12.333 35 37 35h191c175.333 0 263 -68.333 263 -205c0 -41.333 -8 -78.833 -24 -112.5s-38.667 -60.5 -68 -80.5l126 -210c-5.33301 -16 -22.666 -34.333 -51.999 -55
c-40 -28.667 -73 -43 -99 -43s-45.333 9.33301 -58 28l-94 219h-31v-227zM240.999 523v-150h5c63.333 0 95 26.333 95 79c0 24 -6.16699 41.833 -18.5 53.5s-32.5 17.5 -60.5 17.5h-21z" />
    <glyph glyph-name="S" unicode="S" horiz-adv-x="531" 
d="M76 244c12.667 -10 34.501 -23.668 65.501 -41.001s60.667 -26 89 -26s42.5 11 42.5 33c0 10 -4 18.833 -12 26.5s-22.667 16.5 -44 26.5s-37.333 17.833 -48 23.5s-24.834 15 -42.501 28s-31.167 26.5 -40.5 40.5c-26.667 38 -40 86.333 -40 145
s21.833 108.167 65.5 148.5s100.834 60.5 171.501 60.5c48 0 92.333 -5.16699 133 -15.5s61.667 -23.833 63 -40.5v-6c0 -23.333 -7.33301 -52.833 -22 -88.5s-25 -55.5 -31 -59.5c-42.667 22 -80.834 33 -114.501 33s-50.5 -12 -50.5 -36c0 -14.667 12.333 -27.667 37 -39
l23 -11l34.5 -16.5c13 -6.33301 27 -14.333 42 -24s31.167 -22.5 48.5 -38.5c35.333 -33.333 53 -77.333 53 -132c0 -71.333 -19.667 -129.666 -59 -174.999s-100 -68.666 -182 -69.999c-40 0 -76.167 3.33301 -108.5 10s-60.5 19.667 -84.5 39s-36 42.666 -36 69.999
s5 54.5 15 81.5s20.667 44.833 32 53.5z" />
    <glyph glyph-name="T" unicode="T" horiz-adv-x="502" 
d="M351 16c0 -13.333 -33 -20 -99 -20s-99 6.66699 -99 20v502h-120c-11.333 0 -19.333 15.333 -24 46c-2 14.667 -3 29.667 -3 45s1 30.333 3 45c4.66699 30.667 12.667 46 24 46h435c11.333 0 19.333 -15.333 24 -46c2 -14.667 3 -29.667 3 -45s-1 -30.333 -3 -45
c-4.66699 -30.667 -12.667 -46 -24 -46h-117v-502z" />
    <glyph glyph-name="U" unicode="U" horiz-adv-x="628" 
d="M377 680c0 13.333 36.1689 20.001 108.502 20.001s108.5 -6.66699 108.5 -20v-459c0 -68 -24.333 -123.5 -73 -166.5s-115.834 -64.5 -201.501 -64.5s-155.334 22.167 -209.001 66.5s-80.5 104.166 -80.5 179.499v443c0 13.333 36.167 20 108.5 20
s108.5 -6.66699 108.5 -20v-451c0 -13.333 7 -24 21 -32c14.667 -8 30 -12 46 -12s30.5 3.66699 43.5 11s19.5 18.333 19.5 33v452z" />
    <glyph glyph-name="V" unicode="V" horiz-adv-x="661" 
d="M11 687c0 3.33301 14.502 6.5 43.502 9.5s52.833 4.5 71.5 4.5c74 0 112.667 -9.66699 116 -29l86 -440l81 440c4 19.333 45.333 29 124 29c19.333 0 43.666 -1.33301 72.999 -4s44 -5.66699 44 -9l-177 -662c-2.66699 -10.667 -22.334 -17.667 -59.001 -21
c-56.667 -6 -108.167 -7.16699 -154.5 -3.5s-70.833 10.167 -73.5 19.5z" />
    <glyph glyph-name="W" unicode="W" horiz-adv-x="953" 
d="M21 690c-2 7.33301 31.6689 11 101.002 11c76.667 0 116 -6.33301 118 -19l49 -421l106 426c3.33301 10 29.333 15 78 15s74.667 -4.66699 78 -14l104 -429l58 425c1.33301 7.33301 16.666 12.333 45.999 15s53 4 71 4c70 0 104 -4.66699 102 -14l-121 -663
c-2.66699 -10 -21.667 -17.333 -57 -22s-64 -7 -86 -7c-82.667 0 -126 9.33301 -130 28l-68 275l-74 -274c-2.66699 -12 -26 -20.667 -70 -26c-22.667 -2 -45.334 -3 -68.001 -3l-64 3c-44 4.66699 -67.333 13 -70 25z" />
    <glyph glyph-name="X" unicode="X" horiz-adv-x="683" 
d="M421 673c8 20 49.668 29.999 125.001 29.999c19.333 0 43.166 -1.5 71.499 -4.5s42.5 -5.83301 42.5 -8.5l-170 -346l176 -331c2 -3.33301 -12.333 -6.5 -43 -9.5s-56.667 -4.5 -78 -4.5c-84.667 0 -131 11.333 -139 34l-75 191l-68 -197
c-6.66699 -18.667 -49.334 -28 -128.001 -28c-19.333 0 -43.333 1.33301 -72 4s-41.667 6.33398 -39 11.001l156 346l-162 330c-2 3.33301 11.833 6.5 41.5 9.5s54.834 4.5 75.501 4.5c84 0 130 -12 138 -36l69 -168z" />
    <glyph glyph-name="Y" unicode="Y" horiz-adv-x="615" 
d="M398 667c8.66699 23.333 51.334 35 128.001 35c19.333 0 42.166 -1.33301 68.499 -4s38.5 -6 36.5 -10l-208 -418v-244c0 -11.333 -18.333 -19.333 -55 -24c-18.667 -2.66699 -37 -4 -55 -4s-36 1 -54 3c-36.667 4.66699 -55 13 -55 25v238l-215 422
c-2.66699 4 11 7.83301 41 11.5s55.333 5.5 76 5.5c82 0 127 -12 135 -36l73 -204z" />
    <glyph glyph-name="Z" unicode="Z" horiz-adv-x="563" 
d="M76 518c-11.333 0 -19.334 15.334 -24.001 46.001c-2 12.667 -3 26.667 -3 42s1.66699 31.333 5 48c6 30.667 16 46 30 46h370c40.667 0 67 -37 79 -111c2.66699 -16 4 -27.667 4 -35l-234 -355h183h2c14.667 0 25 -16 31 -48c2.66699 -15.333 4 -31.333 4 -48
s-2 -34.334 -6 -53.001c-7.33301 -33.333 -18.666 -50 -33.999 -50h-389c-6 0 -16.833 20.167 -32.5 60.5s-23.5 65.5 -23.5 75.5s1 16.333 3 19l234 363h-199z" />
    <glyph glyph-name="bracketleft" unicode="[" horiz-adv-x="385" 
d="M109 798h216c12 0 20.667 -9.66699 26 -29c2.66699 -10 4 -19.667 4 -29s-1.33301 -19 -4 -29c-5.33301 -19.333 -14 -29 -26 -29h-129v-682h129c12 -0 20.667 -9.66699 26 -29c2.66699 -10 4 -19.667 4 -29s-1.33301 -19 -4 -29c-5.33301 -19.333 -14 -29 -26 -29h-216
c-19.333 0 -29 9.66699 -29 29v856c0 19.333 9.66699 29 29 29z" />
    <glyph glyph-name="backslash" unicode="\" horiz-adv-x="587" 
d="M587 -36c1.33301 -2.66699 2 -6.00195 2 -10.002s-1.66699 -9.33301 -5 -16c-6.66699 -13.333 -22.667 -25.666 -48 -36.999c-10 -4.66699 -17.333 -7 -22 -7c-14.667 0 -23.667 3.66699 -27 11l-467 811c-2 3.33301 -3 6.83301 -3 10.5s1.66699 8.83398 5 15.501
c6 12 22 24 48 36c9.33301 4.66699 16.5 7 21.5 7s10 -0.166992 15 -0.5s9.5 -3.5 13.5 -9.5z" />
    <glyph glyph-name="bracketright" unicode="]" horiz-adv-x="385" 
d="M60 798h216c19.333 0 29 -9.66699 29 -29v-856c0 -19.333 -9.66699 -29 -29 -29h-216c-12 0 -20.667 9.66699 -26 29c-2.66699 10 -4 19.667 -4 29s1.33301 19 4 29c5.33301 19.333 14 29 26 29h129v682h-129c-12 0 -20.667 9.66699 -26 29c-2.66699 10 -4 19.667 -4 29
s1.33301 19 4 29c5.33301 19.333 14 29 26 29z" />
    <glyph glyph-name="asciicircum" unicode="^" horiz-adv-x="687" 
d="M630 447c4 -4.66699 6 -10.5 6 -17.5s-3.16699 -17.667 -9.5 -32s-15.5 -26 -27.5 -35s-20.833 -13.5 -26.5 -13.5s-10.5 2 -14.5 6l-224 202l-211 -205c-4 -4 -8.83301 -6 -14.5 -6s-14.667 4.5 -27 13.5s-21.666 20.667 -27.999 35s-9.5 25 -9.5 32
s2.33301 12.833 7 17.5l256 231c9.33301 9.33301 17.666 14 24.999 14s14.333 -3.33301 21 -10z" />
    <glyph glyph-name="underscore" unicode="_" horiz-adv-x="636" 
d="M552 -150h-475c-12 0 -20.667 9.66699 -26 29c-2.66699 10 -4 19.667 -4 29s1.33301 19 4 29c5.33301 19.333 14 29 26 29h475c12 0 20.667 -9.66699 26 -29c2.66699 -10 4 -19.667 4 -29s-1.33301 -19 -4 -29c-5.33301 -19.333 -14 -29 -26 -29z" />
    <glyph glyph-name="grave" unicode="`" horiz-adv-x="350" 
d="M76 605c-3.33301 3.33301 -5.00098 8 -5.00098 14c0 22 6.33301 42.833 19 62.5s22.334 29.5 29.001 29.5c2 0 57.333 -30 166 -90c4 -4 6 -8.66699 6 -14c0 -20 -5.33301 -38 -16 -54s-19 -24 -25 -24c-1.33301 0 -59.333 25.333 -174 76z" />
    <glyph glyph-name="a" unicode="a" horiz-adv-x="517" 
d="M108 363c-18.667 33.333 -27.9961 60.499 -27.9961 81.499s5.66699 34.5 17 40.5c38 16.667 90.167 25 156.5 25s113.166 -15.5 140.499 -46.5s41 -76.833 41 -137.5v-158h34c11.333 0 20.166 -6.66699 26.499 -20s9.5 -31.666 9.5 -54.999s-5.83301 -46.333 -17.5 -69
s-27.5 -34 -47.5 -34c-36 0 -65 9.66699 -87 29c-10 8 -17.667 17.667 -23 29c-30.667 -38.667 -78.334 -58 -143.001 -58c-48.667 0 -89.667 17.333 -123 52s-50 75.667 -50 123c0 108.667 65 163 195 163h55v10c0 17.333 -2.83301 28.5 -8.5 33.5s-18.834 7.5 -39.501 7.5
c-25.333 0 -61.333 -5.33301 -108 -16zM188.004 178.999c0 -14.667 4 -25.833 12 -33.5s18.167 -11.5 30.5 -11.5s23.5 5 33.5 15v77h-28c-32 0 -48 -15.667 -48 -47z" />
    <glyph glyph-name="b" unicode="b" horiz-adv-x="520" 
d="M50 697c0 8 28.833 11.999 86.5 11.999s86.5 -4.33301 86.5 -13v-194c28.667 5.33301 49 8 61 8c140 0 210 -80.333 210 -241c0 -89.333 -21.5 -158.166 -64.5 -206.499s-104 -72.5 -183 -72.5s-144.5 17.667 -196.5 53v654zM256 353.999
c-11.333 0 -22.332 -3.66699 -32.999 -11v-191c9.33301 -4 19.166 -6 29.499 -6s20.833 4 31.5 12c18.667 13.333 28 44.333 28 93c0 68.667 -18.667 103 -56 103z" />
    <glyph glyph-name="c" unicode="c" horiz-adv-x="424" 
d="M209 248c0 -65.333 24.668 -98.001 74.001 -98.001c32 0 58.667 6.33301 80 19c10 0 18.167 -17.167 24.5 -51.5s9.5 -57.666 9.5 -69.999s-1.66699 -20.5 -5 -24.5c-35.333 -22 -83.666 -33 -144.999 -33s-113.5 22.833 -156.5 68.5s-64.5 108 -64.5 187
s21.167 142.833 63.5 191.5s98.666 73 168.999 73s119.166 -17 146.499 -51c6 -7.33301 9 -18.166 9 -32.499s-2.66699 -31.833 -8 -52.5c-12 -42.667 -27.667 -67.334 -47 -74.001c-2.66699 -0.666992 -6.5 -1 -11.5 -1s-11.167 4 -18.5 12c-26 26 -46.833 39 -62.5 39
s-29.167 -8 -40.5 -24s-17 -42 -17 -78z" />
    <glyph glyph-name="d" unicode="d" horiz-adv-x="565" 
d="M298 694c0 10 26.3311 15 78.998 15c18 0 38.833 -1.16699 62.5 -3.5s35.5 -5.5 35.5 -9.5v-527h35c16.667 0 27.667 -15 33 -45c1.33301 -8.66699 2 -20.5 2 -35.5s-4.66699 -33.167 -14 -54.5c-13.333 -29.333 -34.666 -44 -63.999 -44c-22 0 -41.5 4.33301 -58.5 13
s-28.5 17.667 -34.5 27l-9 13c-36.667 -35.333 -82.667 -53 -138 -53s-102.666 23 -141.999 69s-59 110.167 -59 192.5s20.667 146 62 191s93 67.5 155 67.5c18 0 36.333 -2 55 -6v190zM264.998 350c-37.333 0 -56 -33.667 -56 -101c0 -34 5.33301 -58.5 16 -73.5
s22.5 -22.5 35.5 -22.5s25.5 5.66699 37.5 17v170c-11.333 6.66699 -22.333 10 -33 10z" />
    <glyph glyph-name="e" unicode="e" horiz-adv-x="486" 
d="M423 27c-42 -24.667 -96.001 -37 -162.001 -37s-121.667 22.5 -167 67.5s-68 107.333 -68 187s21.833 143.834 65.5 192.501s98.834 73 165.501 73s118.167 -17 154.5 -51s54.5 -75.333 54.5 -124c0 -108 -62 -162 -186 -162h-69c0 -20 5.5 -33.833 16.5 -41.5
s27.167 -11.5 48.5 -11.5c46.667 0 91 10.667 133 32c0.666992 0.666992 3.66699 -4 9 -14c16 -28.667 24 -52.834 24 -72.501s-6.33301 -32.5 -19 -38.5zM297.999 316c0 28 -13.667 42.001 -41 42.001c-12.667 0 -23.5 -3.83301 -32.5 -11.5s-13.5 -18.834 -13.5 -33.501
v-31h54c22 0 33 11.333 33 34z" />
    <glyph glyph-name="f" unicode="f" horiz-adv-x="375" 
d="M84 367l-49 -0.000976562c-10 0 -15 22.167 -15 66.5s5 66.5 15 66.5h49v22c0 70.667 14.833 119.5 44.5 146.5s71.167 40.5 124.5 40.5s100.333 -9.66699 141 -29c5.33301 -2 8 -9.16699 8 -21.5s-5.66699 -32.166 -17 -59.499s-21 -43 -29 -47
c-22.667 14 -46 21 -70 21c-26 0 -39 -17.333 -39 -52v-21h83c12 0 18 -21.333 18 -64c0 -46.667 -7.66699 -70 -23 -70h-64v-354c0 -8 -29.5 -12 -88.5 -12s-88.5 4 -88.5 12v355z" />
    <glyph glyph-name="g" unicode="g" horiz-adv-x="516" 
d="M229 0c-64.667 0 -114.668 20.8311 -150.001 62.498s-53 103.334 -53 185.001s23.167 145.667 69.5 192s108 69.5 185 69.5s140.5 -17 190.5 -51v-498c0 -49.333 -20 -87.166 -60 -113.499s-91.333 -39.5 -154 -39.5s-118.667 8 -168 24c-6.66699 16 -10 30.333 -10 43
c0 42.667 7 74 21 94c44.667 -19.333 92.334 -29 143.001 -29c36.667 0 55 13 55 39v30c-28.667 -5.33301 -51.667 -8 -69 -8zM274.999 345.998c-44.667 0 -66.999 -33.667 -66.999 -101c0 -42 8.66699 -69.333 26 -82c11.333 -8.66699 22.666 -13 33.999 -13s21.333 1 30 3
v190c-8 2 -15.667 3 -23 3z" />
    <glyph glyph-name="h" unicode="h" horiz-adv-x="501" 
d="M212 7c0 -6 -27.832 -9 -83.499 -9s-83.5 4.66699 -83.5 14v685c0 4.66699 10.333 8 31 10s38 3 52 3c56 0 84 -6 84 -18v-200c37.333 11.333 65.666 17 84.999 17c50.667 0 90.667 -13.5 120 -40.5s44 -77.167 44 -150.5v-310c0 -6 -26 -9 -78 -9
c-58.667 2 -88 5.33301 -88 10v294c0 32.667 -10.667 49 -32 49c-14.667 0 -31.667 -7 -51 -21v-324z" />
    <glyph glyph-name="i" unicode="i" horiz-adv-x="273" 
d="M228 6c0 -5.33301 -30.5 -8 -91.5 -8s-91.5 2.33301 -91.5 7v491c0 4.66699 30.5 7 91.5 7s91.5 -2 91.5 -6v-491zM228 556c0 -4.66699 -30.5 -7 -91.5 -7s-91.5 2 -91.5 6v144c0 6.66699 30.5 10 91.5 10s91.5 -2 91.5 -6v-147z" />
    <glyph glyph-name="j" unicode="j" horiz-adv-x="271" 
d="M45 35v461.001c0 4 30.167 6 90.5 6s90.5 -1.66699 90.5 -5v-533c0 -49.333 -20.5 -88.5 -61.5 -117.5s-92.167 -43.5 -153.5 -43.5c-86 0 -129 30 -129 90c0 20 3.33301 36.667 10 50c6 -0.666992 14.333 -1 25 -1c48.667 0 82.167 7.66699 100.5 23
s27.5 38.666 27.5 69.999zM45 555.001v144c0 6.66699 30.167 10 90.5 10s90.5 -2 90.5 -6v-147c0 -4.66699 -30.167 -7 -90.5 -7s-90.5 2 -90.5 6z" />
    <glyph glyph-name="k" unicode="k" horiz-adv-x="531" 
d="M45 692c0 10.667 30.332 16.001 90.999 16.001c56.667 -2 85 -6.33301 85 -13v-384l99 183c4.66699 10 33 15 85 15s85.333 -3.33301 100 -10l-130 -212l150 -281c1.33301 -2.66699 -11.167 -4.83398 -37.5 -6.50098s-48.166 -2.5 -65.499 -2.5c-64 0 -98.333 3 -103 9
l-99 222v-221c0 -8.66699 -29.167 -13 -87.5 -13s-87.5 4 -87.5 12v686z" />
    <glyph glyph-name="l" unicode="l" horiz-adv-x="272" 
d="M227 8c0 -6 -34 -9.00098 -102 -9.00098c-53.333 0.666992 -80 3.33398 -80 8.00098v681c0 10 32.333 15 97 15c56.667 -2 85 -5.33301 85 -10v-685z" />
    <glyph glyph-name="m" unicode="m" horiz-adv-x="788" 
d="M498 5c0 -4.66699 -28.499 -7 -85.499 -7s-85.5 3 -85.5 9v291c0 33.333 -11 50 -33 50c-11.333 0 -26.333 -7.33301 -45 -22v-320c0 -6.66699 -28.5 -10 -85.5 -10s-85.5 3.66699 -85.5 11v327h-25c-22 0 -33 23 -33 69c0 20.667 4 41.667 12 63
c10.667 29.333 28 44 52 44s47.167 -6.33301 69.5 -19s35.833 -24.667 40.5 -36c41.333 36.667 87.166 55 137.499 55s90.833 -15.667 121.5 -47c36 31.333 79.333 47 130 47c110 0 165 -67 165 -201v-304c0 -4.66699 -28.5 -7 -85.5 -7s-85.5 3 -85.5 9v291
c0 33.333 -11 50 -33 50c-12 0 -27.333 -7.33301 -46 -22v-321z" />
    <glyph glyph-name="n" unicode="n" horiz-adv-x="551" 
d="M254 6c0 -4.66699 -24.001 -7.00195 -72.001 -7.00195c-66.667 2 -100 5.66699 -100 11v324h-26c-17.333 0 -28.666 14.667 -33.999 44c-1.33301 8.66699 -2 17.334 -2 26.001c0 20.667 4 41.334 12 62.001c12 29.333 30.667 44 56 44s48 -6 68 -18s33.333 -24 40 -36
c42 36 92 54 150 54s100 -15.667 126 -47s39 -82.666 39 -153.999v-300c0 -8 -28.5 -12 -85.5 -12s-85.5 4 -85.5 12v289c0 33.333 -11.667 50 -35 50c-6.66699 0 -16 -2.83301 -28 -8.5s-19.667 -9.83398 -23 -12.501v-321z" />
    <glyph glyph-name="o" unicode="o" horiz-adv-x="513" 
d="M26 250c0 81.333 20.833 145 62.5 191s97.834 69 168.501 69s126.667 -23 168 -69s62 -109.667 62 -191s-20.667 -145 -62 -191s-97.333 -69 -168 -69s-126.834 23 -168.501 69s-62.5 109.667 -62.5 191zM201 251c0 -61.333 18.833 -92 56.5 -92s56.5 30.667 56.5 92
s-18.833 92 -56.5 92s-56.5 -30.667 -56.5 -92z" />
    <glyph glyph-name="p" unicode="p" horiz-adv-x="555" 
d="M260 -182c0 -4.66699 -28.498 -7.00195 -85.498 -7.00195s-85.5 2.33301 -85.5 7v515h-34c-16 0 -27 14.667 -33 44c-2 9.33301 -3 21.333 -3 36s4.66699 32 14 52c13.333 29.333 34.666 44 63.999 44c19.333 0 37.166 -4.5 53.499 -13.5s27.666 -17.333 33.999 -25
s9.5 -12.167 9.5 -13.5c44.667 34.667 93 52 145 52s96.667 -20.167 134 -60.5s56 -102.666 56 -186.999s-18.667 -149.666 -56 -195.999s-84.666 -69.5 -141.999 -69.5c-26 0 -49.667 1.33301 -71 4v-182zM301.002 333.998c-11.333 0 -22.333 -3.66699 -33 -11v-177
c11.333 -1.33301 20.5 -2 27.5 -2h16.5c27.333 2.66699 41 37.667 41 105c0 56.667 -17.333 85 -52 85z" />
    <glyph glyph-name="q" unicode="q" horiz-adv-x="511" 
d="M226 -4c-61.333 0 -109.999 23.668 -145.999 71.001s-54 110.666 -54 189.999s22 141.333 66 186s104.333 67 181 67s141 -17.667 193 -53v-637c0 -8.66699 -28.667 -13 -86 -13s-86 4.33301 -86 13v184c-26.667 -5.33301 -49.334 -8 -68.001 -8zM228.001 334.001
c-15.333 -13.333 -23 -42.167 -23 -86.5s9 -72.5 27 -84.5c10 -6.66699 20.333 -10 31 -10s21 1.66699 31 5v186c-10 2.66699 -21 4 -33 4s-23 -4.66699 -33 -14z" />
    <glyph glyph-name="r" unicode="r" horiz-adv-x="396" 
d="M264 1c0 -4.66699 -30.334 -7.00098 -91.001 -7.00098c-60.667 1.33301 -91 4 -91 8v332h-27c-10.667 0 -19.167 6.5 -25.5 19.5s-9.5 29.167 -9.5 48.5c0 72 21.333 108 64 108c30 0 55 -9.16699 75 -27.5s30 -39.166 30 -62.499c14 27.333 32.833 49.166 56.5 65.499
s47.834 24.5 72.501 24.5c38.667 0 62 -10 70 -30c2 -5.33301 3 -13.166 3 -23.499s-3.16699 -28.833 -9.5 -55.5s-12.833 -46 -19.5 -58s-10.667 -18 -12 -18s-7.5 2.5 -18.5 7.5s-20.833 7.5 -29.5 7.5c-25.333 0 -38 -20 -38 -60v-279z" />
    <glyph glyph-name="s" unicode="s" horiz-adv-x="450" 
d="M66 180c54 -32.667 96.666 -49.002 127.999 -49.002c20 0 30 7 30 21c0 10 -17.333 23 -52 39c-83.333 34 -125 89.667 -125 167c0 49.333 18 87 54 113s79.167 39 129.5 39s93 -5.33301 128 -16s52.5 -24.667 52.5 -42c0 -14.667 -7.16699 -34 -21.5 -58
s-24.166 -37 -29.499 -39c-28.667 16 -59.667 24 -93 24c-18 0 -27 -6.33301 -27 -19c0 -8 3.5 -14.833 10.5 -20.5s19.833 -12.667 38.5 -21s34.167 -15.833 46.5 -22.5s26.166 -16 41.499 -28c32 -25.333 48 -58.333 48 -99c0 -53.333 -17.667 -96.5 -53 -129.5
s-88.666 -49.5 -159.999 -49.5c-47.333 0 -90.333 8 -129 24s-58 38 -58 66c0 18.667 4.5 38.334 13.5 59.001s18.167 34.334 27.5 41.001z" />
    <glyph glyph-name="t" unicode="t" horiz-adv-x="368" 
d="M275 6c0 -8 -27.999 -12 -83.999 -12c-66.667 2.66699 -100 7 -100 13v354h-51c-13.333 0 -20 23 -20 69c0 12 1.16699 26.667 3.5 44s7.16602 26 14.499 26h53v88c0 13.333 28.167 20 84.5 20s84.5 -5.33301 84.5 -16v-64l1 -28h85c11.333 0 17 -23.333 17 -70
s-5.66699 -70 -17 -70h-71v-354z" />
    <glyph glyph-name="u" unicode="u" horiz-adv-x="544" 
d="M40 494c0 7.33301 28.6689 11 86.002 11s86 -3.66699 86 -11v-292c0 -33.333 10.667 -50 32 -50c16 0 34 7 54 21v321c0 6.66699 28.333 10 85 10s85 -3.33301 85 -10v-328h26c22.667 0 34 -21.667 34 -65c0 -22 -4.66699 -44.333 -14 -67
c-13.333 -29.333 -31.333 -44 -54 -44c-44.667 0 -77.667 18.333 -99 55l-1 -1c-40.667 -36 -84.334 -54 -131.001 -54c-64.667 0 -112.334 16.167 -143.001 48.5s-46 85.833 -46 160.5v295z" />
    <glyph glyph-name="v" unicode="v" horiz-adv-x="521" 
d="M6 497c-2 5.33301 29.168 8 93.501 8s96.5 -1.66699 96.5 -5l72 -340l54 335c2 6 35 9 99 9c64.667 0 96 -2.66699 94 -8l-141 -489c-4.66699 -6.66699 -44.334 -10 -119.001 -10s-114.667 5 -120 15z" />
    <glyph glyph-name="w" unicode="w" horiz-adv-x="752" 
d="M564 495c0 6 18.332 9 54.999 9c82.667 0 123.334 -2.66699 122.001 -8l-98 -486c-2 -10.667 -39 -16 -111 -16s-109 5.33301 -111 16l-41 224l-51 -224c-2 -10 -40.167 -15 -114.5 -15s-112.5 6 -114.5 18l-89 487c-2 4 26.667 6 86 6c58.667 -0.666992 88 -2 88 -4
l46 -338l83 334c1.33301 4 23.333 6 66 6s64.667 -2 66 -6l82 -330z" />
    <glyph glyph-name="x" unicode="x" horiz-adv-x="557" 
d="M345 497c2.66699 5.33301 19.334 7.99902 50.001 7.99902c100 0 148.667 -3.66699 146 -11l-122 -253l123 -230c0 -4 -20 -7.33301 -60 -10s-68.333 -4 -85 -4c-42 0 -64.333 4.33301 -67 13l-54 167l-62 -174c-1.33301 -4.66699 -20.333 -7 -57 -7
s-69.334 1.33301 -98.001 4s-41.667 6 -39 10l113 230c-78.667 164.667 -118 247.334 -118 248.001c0 4 10.167 7.66699 30.5 11s43.333 5 69 5s50.167 -1.16699 73.5 -3.5s36.333 -5.5 39 -9.5l53 -162z" />
    <glyph glyph-name="y" unicode="y" horiz-adv-x="537" 
d="M10 495c0 7.33301 30.502 11.001 91.502 11.001s92.5 -3.33301 94.5 -10l72 -236l69 238c2.66699 5.33301 23.334 8 62.001 8c88.667 0 131 -4.33301 127 -13l-235 -669c-0.666992 -4 -18.834 -6 -54.501 -6s-68.834 1.16699 -99.501 3.5
s-45.334 5.16602 -44.001 8.49902l87 210z" />
    <glyph glyph-name="z" unicode="z" horiz-adv-x="454" 
d="M43 340c-4.66699 0 -7 14.334 -7 43.001c0 78 6.33301 117 19 117h319c4.66699 0 15 -14.667 31 -44s24 -45.833 24 -49.5s-0.333008 -5.83398 -1 -6.50098l-194 -244l174 12c10.667 0 16 -23.667 16 -71c0 -18 -1.66699 -38.667 -5 -62s-9 -35 -17 -35h-320
c-10 0 -22 16.667 -36 50s-21 53.5 -21 60.5s0.666992 11.167 2 12.5l191 223z" />
    <glyph glyph-name="braceleft" unicode="{" horiz-adv-x="362" 
d="M225 202l0.000976562 -265.002c0 -27.333 17 -54.666 51 -81.999c4 -3.33301 6 -8.16602 6 -14.499s-9.16699 -17 -27.5 -32s-36.833 -22.5 -55.5 -22.5c-8.66699 0 -15.334 2 -20.001 6c-14 13.333 -25.167 24.833 -33.5 34.5s-16.5 24.5 -24.5 44.5s-12 42 -12 66v240
c0 16 -6 32.333 -18 49s-27 29 -45 37c-10.667 6 -16 24.667 -16 56s5.33301 49.333 16 54c42 16 63 44 63 84v255c0 45.333 24.667 88.666 74 129.999c6 3.33301 12.667 5 20 5c24.667 0 47 -11 67 -33c7.33301 -8.66699 11 -15.667 11 -21s-1.66699 -9.66602 -5 -12.999
c-34 -34 -51 -61.667 -51 -83v-250c0 -49.333 -19.333 -93.333 -58 -132c38.667 -37.333 58 -75 58 -113z" />
    <glyph glyph-name="bar" unicode="|" horiz-adv-x="628" 
d="M369 893v-1083c0 -12 -9.66699 -20.667 -29 -26c-9.33301 -2.66699 -19 -4 -29 -4l-29 4c-19.333 5.33301 -29 14 -29 26v1083c0 12 9.66699 20.667 29 26c9.33301 2.66699 19 4 29 4l29 -4c19.333 -5.33301 29 -14 29 -26z" />
    <glyph glyph-name="braceright" unicode="}" horiz-adv-x="362" 
d="M138 -63v264.998c0 38.667 19 76.334 57 113.001c-38.667 38.667 -58 82.667 -58 132v250c0 21.333 -17 49 -51 83c-3.33301 3.33301 -5 7.83301 -5 13.5s4.66699 14 14 25s20.333 18.5 33 22.5s22.667 6 30 6s14.333 -1.66699 21 -5c51.333 -42.667 77 -86 77 -130v-255
c0 -40.667 20 -68.667 60 -84c10.667 -4.66699 16 -19.667 16 -45c0 -37.333 -5.33301 -59 -16 -65c-18 -8 -32.5 -20.167 -43.5 -36.5s-16.5 -32.833 -16.5 -49.5v-240c0 -24 -4.33301 -46.167 -13 -66.5s-17 -35 -25 -44s-19.667 -20.5 -35 -34.5
c-5.33301 -4.66699 -13 -7 -23 -7s-25.667 6.5 -47 19.5s-32 26.167 -32 39.5c0 4.66699 1.66699 8.33398 5 11.001c34.667 28 52 55.333 52 82z" />
    <glyph glyph-name="asciitilde" unicode="~" horiz-adv-x="459" 
d="M74 226c-12.667 3.33301 -24.5 14.501 -35.5 33.501s-16.5 31.667 -16.5 38s1 10.5 3 12.5c42 42 85.333 63 130 63c20.667 0 44 -6.16699 70 -18.5s46 -18.5 60 -18.5c24.667 0.666992 47.667 13.667 69 39c1.33301 0.666992 3 1 5 1c8 0 19 -9.33301 33 -28
s21 -31.334 21 -38.001c0 -19.333 -15.667 -40 -47 -62c-21.333 -14 -41.666 -21 -60.999 -21h-7c-25.333 0 -53.333 6.66699 -84 20s-49.5 20 -56.5 20s-12.833 -0.666992 -17.5 -2l-12.5 -3.5c-3.66699 -1 -8 -3.16699 -13 -6.5l-11.5 -7.5
c-2.66699 -1.66699 -7.33398 -5.16699 -14.001 -10.5s-11.667 -9 -15 -11z" />
    <glyph glyph-name="exclamdown" unicode="&#xa1;" horiz-adv-x="287" 
d="M65 290c0 4 23.833 6 71.5 6s71.5 -1.66699 71.5 -5l20 -481c0 -5.33301 -30.5 -8 -91.5 -8s-91.5 2.33301 -91.5 7zM230 350c0 -4.66699 -30.833 -7 -92.5 -7s-92.5 2 -92.5 6v144c0 6.66699 30.833 10 92.5 10s92.5 -2 92.5 -6v-147z" />
    <glyph glyph-name="cent" unicode="&#xa2;" horiz-adv-x="528" 
d="M277 707c0 12.667 9.33398 18.9971 28.001 18.9971s28 -6.33301 28 -19v-63c38.667 -2.66699 71.667 -10 99 -22s41 -26.833 41 -44.5s-5.16699 -37.667 -15.5 -60s-20.833 -40.166 -31.5 -53.499l-16 -21c-17.333 10 -43 16 -77 18v-206c36.667 2.66699 68 10 94 22
c13.333 -18 24.666 -39 33.999 -63s14 -46.833 14 -68.5s-13.333 -39.667 -40 -54s-60.667 -22.833 -102 -25.5v-62c0 -14 -9.33301 -21 -28 -21s-28 7 -28 21v61c-73.333 4 -132 30.833 -176 80.5s-66 119.334 -66 209.001s22.167 158.834 66.5 207.501
s102.833 76 175.5 82v63zM205.001 358.997c0 -57.333 24 -91.334 72 -102.001v202c-48 -9.33301 -72 -42.666 -72 -99.999z" />
    <glyph glyph-name="sterling" unicode="&#xa3;" horiz-adv-x="490" 
d="M389 299l-92 -0.000976562c-4 -54 -16.333 -96.667 -37 -128h172c12 0 20.667 -14.333 26 -43c2 -14 3 -28.167 3 -42.5s-1 -28.5 -3 -42.5c-4.66699 -28.667 -13 -43 -25 -43h-342c-16 9.33301 -30.667 30 -44 62c-6.66699 16 -10 29.667 -10 41s3.33301 20.333 10 27
c54.667 54.667 84.667 111 90 169h-85c-9.33301 0 -16 7 -20 21c-1.33301 6.66699 -2 13.667 -2 21s0.666992 14.333 2 21c4 14 10.333 21 19 21h60l-10.5 16.5l-12 19c-2.33301 3.66699 -5.83301 9.83398 -10.5 18.501s-8.16699 16.167 -10.5 22.5
s-4.83301 13.833 -7.5 22.5c-5.33301 15.333 -8 34.333 -8 57c0 114 83 171 249 171c42 0 79 -5.83301 111 -17.5s48 -28 48 -49s-4.83301 -48 -14.5 -81s-18.5 -52.833 -26.5 -59.5c-26.667 14 -56.667 21 -90 21c-63.333 0 -95 -20.333 -95 -61c0 -26 15 -52.667 45 -80
h110c13.333 0 20 -14 20 -42s-6.66699 -42 -20 -42z" />
    <glyph glyph-name="currency" unicode="&#xa4;" horiz-adv-x="728" 
d="M473 159c-37.333 -24 -77.002 -36.0039 -119.002 -36.0039s-80.667 12 -116 36l-79 -79c-3.33301 -3.33301 -7.33301 -5 -12 -5s-12 3 -22 9s-18.667 15.5 -26 28.5s-8 22.5 -2 28.5l79 79c-24 37.333 -36 77.333 -36 120s11.333 81.334 34 116.001l-82 82
c-3.33301 2.66699 -5 6.33398 -5 11.001s3 11.834 9 21.501s14 17.667 24 24s17.333 9.5 22 9.5s8.66699 -1.66699 12 -5l81 -81c36 25.333 75.833 38 119.5 38s83.834 -12.333 120.501 -37l80 80c2.66699 3.33301 6.33398 5 11.001 5s11.834 -2.83301 21.501 -8.5
s17.667 -13.667 24 -24s9.5 -17.833 9.5 -22.5s-1.33301 -8.33398 -4 -11.001l-81 -80c24 -35.333 36 -74.666 36 -117.999s-12.667 -83.666 -38 -120.999l79 -79c6 -6 5 -15.333 -3 -28s-16.667 -22 -26 -28s-16.333 -9 -21 -9s-8.33398 1.66699 -11.001 5z
M234.998 339.996c0 -32 11.668 -60.333 35.001 -85c23.333 -23.333 51.666 -35 84.999 -35s61.5 11.5 84.5 34.5s34.5 51.167 34.5 84.5s-11.5 61.833 -34.5 85.5s-50.5 35.5 -82.5 35.5c-33.333 0 -62 -12 -86 -36s-36 -52 -36 -84z" />
    <glyph glyph-name="yen" unicode="&#xa5;" horiz-adv-x="659" 
d="M567 213l-134 -0.00195312v-196c0 -11.333 -18.333 -19.666 -55 -24.999c-18.667 -2 -37 -3 -55 -3s-36 1 -54 3c-36.667 4.66699 -55 13 -55 25v196h-123c-15.333 0 -23 10.667 -23 32s7.66699 32 23 32h123v61h-123c-15.333 0 -23 12.333 -23 37s7.66699 37 23 37h91
l-182 284c-3.33301 5.33301 11 9.16602 43 11.499s56.333 3.5 73 3.5c68.667 0 110 -11.333 124 -34l91 -157l90 157c12 22.667 55.667 34 131 34c16.667 0 37.5 -1.33301 62.5 -4s36.5 -5.66699 34.5 -9l-181 -286h99c10 0 17 -6 21 -18
c2.66699 -6.66699 4 -13.167 4 -19.5s-1 -12.5 -3 -18.5c-4 -12 -11.333 -18 -22 -18h-134v-61h134c10 0 17 -5.33301 21 -16c2.66699 -5.33301 4 -10.666 4 -15.999s-1 -10.666 -3 -15.999c-4 -10.667 -11.333 -16 -22 -16z" />
    <glyph glyph-name="brokenbar" unicode="&#xa6;" horiz-adv-x="415" 
d="M269 193v-383c0 -12 -9.66699 -20.667 -29 -26c-9.33301 -2.66699 -19 -4 -29 -4l-29 4c-19.333 5.33301 -29 14 -29 26v383c0 12 9.66699 20.667 29 26c9.33301 2.66699 19 4 29 4l29 -4c19.333 -5.33301 29 -14 29 -26zM269 711v-356c0 -12 -9.66699 -20.667 -29 -26
c-9.33301 -2.66699 -19 -4 -29 -4l-29 4c-19.333 5.33301 -29 14 -29 26v356c0 12 9.66699 20.667 29 26c9.33301 2.66699 19 4 29 4l29 -4c19.333 -5.33301 29 -14 29 -26z" />
    <glyph glyph-name="section" unicode="&#xa7;" horiz-adv-x="617" 
d="M91 24c19.333 -11.333 47.833 -25.3369 85.5 -42.0039s71.667 -25 102 -25s45.5 10 45.5 30c0 10 -9.16699 19.667 -27.5 29s-40.333 19.333 -66 30s-51.5 23 -77.5 37s-48.167 33.5 -66.5 58.5s-27.5 53.833 -27.5 86.5c0 61.333 26 109.333 78 144
c-49.333 31.333 -75.333 76.333 -78 135c0 60.667 23.5 109.667 70.5 147s109.833 56 188.5 56c52 0 100.333 -4.66699 145 -14s67.667 -21.666 69 -36.999c0 -24 -8 -52.667 -24 -86s-27.333 -51.666 -34 -54.999c-60 18 -108 27 -144 27s-54 -11 -54 -33
c0 -24 32.667 -50.333 98 -79c27.333 -12 54.666 -25 81.999 -39s50.5 -32.167 69.5 -54.5s28.5 -46.833 28.5 -73.5c0 -61.333 -26 -108.666 -78 -141.999c20.667 -13.333 38.834 -31.666 54.501 -54.999s23.5 -46.333 23.5 -69c0 -62 -21.333 -112 -64 -150
s-109.334 -57.667 -200.001 -59c-96 0 -166.333 15 -211 45c-26 18 -39 39.5 -39 64.5s5.33301 49.833 16 74.5s22.334 41 35.001 49zM383 230.996c0 15.333 -12.5 31.166 -37.5 47.499s-47.5 24.5 -67.5 24.5c-28.667 0 -43 -14.333 -43 -43
c0 -17.333 11.667 -34.166 35 -50.499s44.5 -24.5 63.5 -24.5s32 3.83301 39 11.5s10.5 19.167 10.5 34.5z" />
    <glyph glyph-name="dieresis" unicode="&#xa8;" horiz-adv-x="457" 
d="M177 552c0 -4 -23.167 -6 -69.5 -6s-69.5 1.66699 -69.5 5v140c0 6 23.167 9 69.5 9s69.5 -1.66699 69.5 -5v-143zM407 552c0 -4 -23.167 -6 -69.5 -6s-69.5 1.66699 -69.5 5v140c0 6 23.167 9 69.5 9s69.5 -1.66699 69.5 -5v-143z" />
    <glyph glyph-name="copyright" unicode="&#xa9;" horiz-adv-x="693" 
d="M84 464c0 74.667 26.167 138.167 78.5 190.5s115.833 78.5 190.5 78.5s138.167 -26.167 190.5 -78.5s78.5 -115.833 78.5 -190.5s-26.167 -138.167 -78.5 -190.5s-115.833 -78.5 -190.5 -78.5s-138.167 26.167 -190.5 78.5s-78.5 115.833 -78.5 190.5zM205 617
c-42 -42 -63 -92.332 -63 -150.999s20.5 -108.834 61.5 -150.501s91.333 -62.5 151 -62.5s110.334 21 152.001 63s62.5 92.167 62.5 150.5s-20.833 108.5 -62.5 150.5s-91.834 63 -150.501 63s-109 -21 -151 -63zM450 583.001c0 -6.66699 -2.16504 -16.168 -6.49805 -28.501
s-9.33301 -22.833 -15 -31.5s-10.5 -11.667 -14.5 -9c-11.333 6.66699 -24.333 10 -39 10s-26.667 -4.66699 -36 -14s-14 -23 -14 -41c0 -36.667 19 -55 57 -55c19.333 0 32.666 3.66699 39.999 11c3.33301 2 7.66602 -1.33301 12.999 -10c13.333 -22 20 -42 20 -60
c0 -11.333 -8.83301 -20.333 -26.5 -27s-38.5 -10 -62.5 -10c-44 0 -80 13 -108 39s-42 62.333 -42 109s14.333 83.334 43 110.001s64.667 40 108 40c21.333 0 40.5 -3 57.5 -9s25.5 -14 25.5 -24z" />
    <glyph glyph-name="ordfeminine" unicode="&#xaa;" horiz-adv-x="506" 
d="M143 601c-12.667 19.333 -19 37.0029 -19 53.0029s3.66699 25 11 27c24.667 12 61 18 109 18s80.833 -10.333 98.5 -31s26.5 -51.334 26.5 -92.001v-105h24c15.333 0 23 -15.333 23 -46c0 -18.667 -3.83301 -35.334 -11.5 -50.001s-18.167 -22 -31.5 -22
c-25.333 0 -44.333 6.33301 -57 19c-6 4 -11.333 10.333 -16 19c-21.333 -25.333 -56.333 -38 -105 -38c-32.667 0 -60 11.5 -82 34.5s-33 50.167 -33 81.5c0 65.333 40 98 120 98h47v18c0 11.333 -2.5 18.666 -7.5 21.999s-15 5 -30 5s-37.167 -3.66699 -66.5 -11z
M195 471.003c0 -19.333 9.33301 -29 28 -29c8 0 16 3 24 9v52h-20c-21.333 0 -32 -10.667 -32 -32z" />
    <glyph glyph-name="guillemotleft" unicode="&#xab;" horiz-adv-x="773" 
d="M99 236c-6.66699 6.66699 -10 13.668 -10 21.001s4.66699 15.666 14 24.999l168 197c4 4 9.16699 6 15.5 6s16.333 -4 30 -12s24.334 -18.5 32.001 -31.5s11.5 -22.667 11.5 -29s-2.33301 -11.5 -7 -15.5l-132 -142l134 -144c4.66699 -4 7 -9.16699 7 -15.5
s-3.83301 -16 -11.5 -29s-18.334 -23.5 -32.001 -31.5s-23.667 -12 -30 -12s-11.5 2 -15.5 6zM399 236.001c-6.66699 6.66699 -10 13.668 -10 21.001s4.66699 15.666 14 24.999l168 197c4 4 9.16699 6 15.5 6s16.333 -4 30 -12s24.334 -18.5 32.001 -31.5
s11.5 -22.667 11.5 -29s-2.33301 -11.5 -7 -15.5l-132 -142l134 -144c4.66699 -4 7 -9.16699 7 -15.5s-3.83301 -16 -11.5 -29s-18.334 -23.5 -32.001 -31.5s-23.667 -12 -30 -12s-11.5 2 -15.5 6z" />
    <glyph glyph-name="logicalnot" unicode="&#xac;" horiz-adv-x="613" 
d="M510 81c0 -14 -18.667 -20.999 -56 -20.999c-11.333 0 -25 1.66699 -41 5s-24 9.66602 -24 18.999l2 136h-294c-12 0 -20.667 9.66699 -26 29c-2.66699 10 -4 19.667 -4 29s1.33301 19 4 29c5.33301 19.333 14 29 26 29h372c27.333 0 41 -12.667 41 -38v-217z" />
    <glyph glyph-name="uni00AD" unicode="&#xad;" horiz-adv-x="454" 
d="M372 190h-295c-12 0 -20.667 9.66699 -26 29c-2.66699 10 -4 19.667 -4 29s1.33301 19 4 29c5.33301 19.333 14 29 26 29h295c12 0 20.667 -9.66699 26 -29c2.66699 -10 4 -19.667 4 -29s-1.33301 -19 -4 -29c-5.33301 -19.333 -14 -29 -26 -29z" />
    <glyph glyph-name="registered" unicode="&#xae;" horiz-adv-x="701" 
d="M84 464c0 74.667 26.167 138.167 78.5 190.5s115.833 78.5 190.5 78.5s138.167 -26.167 190.5 -78.5s78.5 -115.833 78.5 -190.5s-26.167 -138.167 -78.5 -190.5s-115.833 -78.5 -190.5 -78.5s-138.167 26.167 -190.5 78.5s-78.5 115.833 -78.5 190.5zM205 617
c-42 -42 -63 -92.332 -63 -150.999s20.5 -108.834 61.5 -150.501s91.333 -62.5 151 -62.5s110.334 21 152.001 63s62.5 92.167 62.5 150.5s-20.833 108.5 -62.5 150.5s-91.834 63 -150.501 63s-109 -21 -151 -63zM475 529.001c0 -34 -14 -60.667 -42 -80l70 -88
c-2.66699 -5.33301 -8.66699 -12 -18 -20s-18.833 -14 -28.5 -18s-17.5 -6 -23.5 -6c-24 0 -42 13.667 -54 41l-30 67h-8v-94c0 -8 -16.167 -12 -48.5 -12s-48.5 4 -48.5 12v269c0 10 5 15 15 15h103c75.333 0 113 -28.667 113 -86zM341 543.001v-60h2c26 0 39 11 39 33
c0 18 -11 27 -33 27h-8z" />
    <glyph glyph-name="degree" unicode="&#xb0;" horiz-adv-x="386" 
d="M40 526c0 55.333 13.5 98 40.5 128s64.333 45 112 45s85 -15.167 112 -45.5s40.5 -72.833 40.5 -127.5s-13.5 -97.167 -40.5 -127.5s-64.333 -45.5 -112 -45.5s-85 15 -112 45s-40.5 72.667 -40.5 128zM108 526c0 -31.333 7.5 -55.5 22.5 -72.5s35.667 -25.5 62 -25.5
s46.833 8.5 61.5 25.5s22 41.167 22 72.5s-7.33301 55.5 -22 72.5s-35.167 25.5 -61.5 25.5s-47 -8.5 -62 -25.5s-22.5 -41.167 -22.5 -72.5z" />
    <glyph glyph-name="plusminus" unicode="&#xb1;" horiz-adv-x="595" 
d="M353 259c0 -6 -19.333 -9 -58 -9s-58 3 -58 9v101h-140c-12 0 -20.667 9.66699 -26 29c-2.66699 10 -4 19.667 -4 29s1.33301 19 4 29c5.33301 19.333 14 29 26 29h140v138c0 12 9.66699 20.667 29 26c9.33301 2.66699 19 4 29 4l29 -4c19.333 -5.33301 29 -14 29 -26
v-138h139c12 0 20.667 -9.66699 26 -29c2.66699 -10 4 -19.667 4 -29s-1.33301 -19 -4 -29c-5.33301 -19.333 -14 -29 -26 -29h-139v-101zM97 213h395c12 0 20.667 -9.66699 26 -29c2.66699 -9.33301 4 -19 4 -29s-1.33301 -19.667 -4 -29c-5.33301 -19.333 -14 -29 -26 -29
h-395c-12 0 -20.667 9.66699 -26 29c-2.66699 9.33301 -4 19 -4 29s1.33301 19.667 4 29c5.33301 19.333 14 29 26 29z" />
    <glyph glyph-name="twosuperior" unicode="&#xb2;" horiz-adv-x="352" 
d="M84 581c-19.333 28.667 -29 52.332 -29 70.999c0 5.33301 1.5 11.333 4.5 18s17 13.667 42 21s51.833 11 80.5 11c72 0 108 -32 108 -96c0 -48.667 -30 -99 -90 -151l101 4c1.33301 -12 2 -26.667 2 -44c0 -37.333 -9.66699 -56 -29 -56h-190
c-11.333 0 -19.333 13.333 -24 40c-2 14 -3 24.667 -3 32s1 12 3 14c50 39.333 80.5 66.333 91.5 81s16.5 27.834 16.5 39.501s-2.33301 20.167 -7 25.5s-14 8 -28 8s-30.333 -6 -49 -18z" />
    <glyph glyph-name="threesuperior" unicode="&#xb3;" horiz-adv-x="305" 
d="M29 398c0 12.667 3.33691 26.1699 10.0039 40.5029s12 24.166 16 29.499c17.333 -11.333 34.333 -17 51 -17c32 0 48 10.333 48 31c0 10 -3.16699 16.833 -9.5 20.5s-17.5 5.5 -33.5 5.5h-10c-4 0 -7.5 3.83301 -10.5 11.5s-4.5 15.167 -4.5 22.5s3 11 9 11l18 1
c21.333 1.33301 32 10.666 32 27.999c0 13.333 -10.333 20 -31 20s-39 -3.33301 -55 -10c-2.66699 4 -6.83398 13.167 -12.501 27.5s-8.5 27.5 -8.5 39.5s12 21.833 36 29.5s52.333 11.5 85 11.5s57.667 -7.33301 75 -22s26 -33.334 26 -56.001c0 -32 -17 -58.333 -51 -79
c19.333 -8.66699 34.166 -19 44.499 -31s15.5 -30.833 15.5 -56.5s-10.333 -47.667 -31 -66s-48.334 -27.5 -83.001 -27.5s-64.334 3.5 -89.001 10.5s-37 15.5 -37 25.5z" />
    <glyph glyph-name="acute" unicode="&#xb4;" horiz-adv-x="357" 
d="M113 529c-6 0 -13.667 6.66504 -23 19.998c-12 18.667 -18 34.334 -18 47.001s2 21 6 25c108.667 60 164 90 166 90c6.66699 0 15 -8 25 -24c15.333 -23.333 23 -45.333 23 -66c0 -7.33301 -1.66699 -12.666 -5 -15.999c-114.667 -50.667 -172.667 -76 -174 -76z" />
    <glyph glyph-name="mu" unicode="&#xb5;" horiz-adv-x="572" 
d="M40 494c0 7.33301 28.666 11 85.999 11s86 -3.66699 86 -11v-292c0 -33.333 10.667 -50 32 -50c16 0 34 7 54 21v321c0 6.66699 28.333 10 85 10s85 -3.33301 85 -10v-328h26c22.667 0 34 -21.667 34 -65c0 -22 -4.66699 -44.333 -14 -67
c-13.333 -29.333 -31.333 -44 -54 -44c-44.667 0 -77.667 18.333 -99 55c-16 -16 -34.667 -27 -56 -33s-38.666 -9 -51.999 -9s-27 2 -41 6v-168c0 -10.667 -14.333 -18 -43 -22c-14 -2 -27.667 -3 -41 -3l-45 4c-28.667 4 -43 11 -43 21v653z" />
    <glyph glyph-name="paragraph" unicode="&#xb6;" horiz-adv-x="780" 
d="M185 21l0.000976562 272.001c-50 0 -88.333 19.167 -115 57.5s-40 87.666 -40 147.999s18.5 109 55.5 146s90.167 55.5 159.5 55.5h429c13.333 0 23 -13.333 29 -40c3.33301 -14 5 -27.667 5 -41s-1.33301 -26.333 -4 -39c-6 -26.667 -16 -40 -30 -40h-50v-519
c0 -12.667 -16.667 -21.667 -50 -27c-16 -2 -32 -3 -48 -3l-52 4c-33.333 5.33301 -50 14 -50 26v489c0 9.33301 -6.66699 16 -20 20c-6.66699 1.33301 -13.334 2 -20.001 2s-13.334 -0.666992 -20.001 -2c-14 -4 -21 -10.667 -21 -20v-489c0 -11.333 -13 -19.333 -39 -24
c-13.333 -2 -26.666 -3 -39.999 -3l-40 3c-26 4.66699 -39 12.667 -39 24z" />
    <glyph glyph-name="periodcentered" unicode="&#xb7;" horiz-adv-x="309" 
d="M247 217c0 -4.66699 -31.5 -7 -94.5 -7s-94.5 2 -94.5 6v180c0 6 31.5 9 94.5 9s94.5 -1.66699 94.5 -5v-183z" />
    <glyph glyph-name="cedilla" unicode="&#xb8;" horiz-adv-x="402" 
d="M101 -120c0 36 8.99902 54 26.999 54h33c14 0 23 1.83301 27 5.5s6 12.5 6 26.5v55h61c25.333 -54.667 38 -96 38 -124c0 -8.66699 -1 -16 -3 -22c-10 -30 -41.333 -45 -94 -45c-29.333 0 -55.666 5.33301 -78.999 16c-10.667 4.66699 -16 16 -16 34z" />
    <glyph glyph-name="onesuperior" unicode="&#xb9;" horiz-adv-x="283" 
d="M231 683v-320c0 -6 -20.5 -9 -61.5 -9s-61.5 3 -61.5 9v227l-52 -1c-10 0 -15 17.667 -15 53s5 53 15 53h157c12 0 18 -4 18 -12z" />
    <glyph glyph-name="ordmasculine" unicode="&#xba;" horiz-adv-x="366" 
d="M40 526c0 55.333 13.5 98 40.5 128s64.333 45 112 45s85 -15.167 112 -45.5s40.5 -72.833 40.5 -127.5s-13.5 -97.167 -40.5 -127.5s-64.333 -45.5 -112 -45.5s-85 15 -112 45s-40.5 72.667 -40.5 128zM153 527c0 -34 13.333 -51 40 -51c10.667 0 20 3.83301 28 11.5
s12 20.667 12 39s-4 31.5 -12 39.5s-17.333 12 -28 12c-26.667 0 -40 -17 -40 -51z" />
    <glyph glyph-name="guillemotright" unicode="&#xbb;" horiz-adv-x="732" 
d="M478 29c-4.66699 -4.66699 -10.168 -7 -16.501 -7s-16.166 4 -29.499 12s-23.833 18.667 -31.5 32s-11.5 23.166 -11.5 29.499s2.33301 11.5 7 15.5l134 144l-132 142c-4.66699 4 -7 9.16699 -7 15.5s3.83301 16 11.5 29s18.167 23.5 31.5 31.5s23.333 12 30 12
s12 -2 16 -6l168 -197c9.33301 -9.33301 14 -17.666 14 -24.999s-3.33301 -14.333 -10 -21zM177.999 29c-4.66699 -4.66699 -10.168 -7 -16.501 -7s-16.166 4 -29.499 12s-23.833 18.667 -31.5 32s-11.5 23.166 -11.5 29.499s2.33301 11.5 7 15.5l134 144l-132 142
c-4.66699 4 -7 9.16699 -7 15.5s3.83301 16 11.5 29s18.167 23.5 31.5 31.5s23.333 12 30 12s12 -2 16 -6l168 -197c9.33301 -9.33301 14 -17.666 14 -24.999s-3.33301 -14.333 -10 -21z" />
    <glyph glyph-name="onequarter" unicode="&#xbc;" horiz-adv-x="839" 
d="M760 150c4 0 6 -12.165 6 -36.498s-2 -36.5 -6 -36.5h-31v-68c0 -8 -20.667 -12 -62 -12c-34.667 2 -52 5.66699 -52 11v67h-106c-8 6 -15.5 16.167 -22.5 30.5s-10.5 24.666 -10.5 30.999s1 11.166 3 14.499l106 188c2 4.66699 26.333 7 73 7s70 -0.666992 70 -2l1 -194
h31zM634 149.002v102l-57 -102h57zM271 688.002v-320c0 -6 -20.5 -9 -61.5 -9s-61.5 3 -61.5 9v227l-52 -1c-10 0 -15 17.667 -15 53s5 53 15 53h157c12 0 18 -4 18 -12zM565 688.002c7.33301 6.66699 14.333 10 21 10c22.667 0 41.334 -8 56.001 -24
c8 -7.33301 12 -13.833 12 -19.5s-1.33301 -10.5 -4 -14.5l-393 -640c-6.66699 -6.66699 -13.334 -10 -20.001 -10c-22.667 0 -41.667 8 -57 24c-8 8 -12 14.833 -12 20.5s1.33301 10.5 4 14.5z" />
    <glyph glyph-name="onehalf" unicode="&#xbd;" horiz-adv-x="848" 
d="M273 688v-320c0 -6 -20.5 -9 -61.5 -9s-61.5 3 -61.5 9v227l-52 -1c-10 0 -15 17.667 -15 53s5 53 15 53h157c12 0 18 -4 18 -12zM562 222c-19.333 28.667 -29 52.332 -29 70.999c0 5.33301 1.5 11.333 4.5 18s17 13.667 42 21s51.833 11 80.5 11c72 0 108 -32 108 -96
c0 -48.667 -30 -99 -90 -151l101 4c1.33301 -12 2 -26.667 2 -44c0 -37.333 -9.66699 -56 -29 -56h-190c-11.333 0 -19.333 13.333 -24 40c-2 14 -3 24.667 -3 32s1 12 3 14c50 39.333 80.5 66.333 91.5 81s16.5 27.834 16.5 39.501s-2.33301 20.167 -7 25.5s-14 8 -28 8
s-30.333 -6 -49 -18zM565 687.998c7.33301 6.66699 14.333 10 21 10c22.667 0 41.334 -8 56.001 -24c8 -7.33301 12 -13.833 12 -19.5s-1.33301 -10.5 -4 -14.5l-393 -640c-6.66699 -6.66699 -13.334 -10 -20.001 -10c-22.667 0 -41.667 8 -57 24c-8 8 -12 14.833 -12 20.5
s1.33301 10.5 4 14.5z" />
    <glyph glyph-name="threequarters" unicode="&#xbe;" horiz-adv-x="868" 
d="M760 150c4 0 6 -12.165 6 -36.498s-2 -36.5 -6 -36.5h-31v-68c0 -8 -20.667 -12 -62 -12c-34.667 2 -52 5.66699 -52 11v67h-106c-8 6 -15.5 16.167 -22.5 30.5s-10.5 24.666 -10.5 30.999s1 11.166 3 14.499l106 188c2 4.66699 26.333 7 73 7s70 -0.666992 70 -2l1 -194
h31zM634 149.002v102l-57 -102h57zM69 398.002c0 12.667 3.33691 26.1699 10.0039 40.5029s12 24.166 16 29.499c17.333 -11.333 34.333 -17 51 -17c32 0 48 10.333 48 31c0 10 -3.16699 16.833 -9.5 20.5s-17.5 5.5 -33.5 5.5h-10c-4 0 -7.5 3.83301 -10.5 11.5
s-4.5 15.167 -4.5 22.5s3 11 9 11l18 1c21.333 1.33301 32 10.666 32 27.999c0 13.333 -10.333 20 -31 20s-39 -3.33301 -55 -10c-2.66699 4 -6.83398 13.167 -12.501 27.5s-8.5 27.5 -8.5 39.5s12 21.833 36 29.5s52.333 11.5 85 11.5s57.667 -7.33301 75 -22
s26 -33.334 26 -56.001c0 -32 -17 -58.333 -51 -79c19.333 -8.66699 34.166 -19 44.499 -31s15.5 -30.833 15.5 -56.5s-10.333 -47.667 -31 -66s-48.334 -27.5 -83.001 -27.5s-64.334 3.5 -89.001 10.5s-37 15.5 -37 25.5zM565.004 688.005c7.33301 6.66699 14.333 10 21 10
c22.667 0 41.334 -8 56.001 -24c8 -7.33301 12 -13.833 12 -19.5s-1.33301 -10.5 -4 -14.5l-393 -640c-6.66699 -6.66699 -13.334 -10 -20.001 -10c-22.667 0 -41.667 8 -57 24c-8 8 -12 14.833 -12 20.5s1.33301 10.5 4 14.5z" />
    <glyph glyph-name="questiondown" unicode="&#xbf;" horiz-adv-x="584" 
d="M250 505c0 4 27.5 6 82.5 6s82.5 -1.66699 82.5 -5v-157c0 -5.33301 -27.5 -8 -82.5 -8s-82.5 1.66699 -82.5 5v159zM348 303c52.667 0 79.0029 -6.33301 79.0029 -19v-38c0 -30 -25 -68.333 -75 -115c-18.667 -17.333 -35.834 -37 -51.501 -59s-23.5 -42 -23.5 -60
c0 -33.333 19.167 -50 57.5 -50s76.833 12.667 115.5 38c25.333 -25.333 43.333 -54 54 -86c3.33301 -10.667 5 -20.167 5 -28.5s-1.66699 -16.166 -5 -23.499c-6.66699 -17.333 -31.834 -33.666 -75.501 -48.999s-90.167 -23 -139.5 -23c-74.667 0 -130.667 16 -168 48
s-56 75.667 -56 131c0 25.333 6.16699 50.166 18.5 74.499s27.166 45.666 44.499 63.999l52 52.5c42.667 38.667 64 68.667 64 90v30c0 8 12.5 13.833 37.5 17.5s47.167 5.5 66.5 5.5z" />
    <glyph glyph-name="Agrave" unicode="&#xc0;" 
d="M519 -12c-58 0 -89.333 9.33398 -94 28.001l-32 139h-159l-30 -134c-4 -20.667 -36 -31 -96 -31c-32 0 -55.667 1.83301 -71 5.5s-23 6.5 -23 8.5l178 687c0 5.33301 45.667 8 137 8s137 -2.66699 137 -8l172 -688c0 -4.66699 -15.333 -8.33398 -46 -11.001
s-55 -4 -73 -4zM259 282.001h105l-45 207h-6zM222 805.001c-3.33301 3.33301 -5.00098 8 -5.00098 14c0 22 6.33301 42.833 19 62.5s22.334 29.5 29.001 29.5c2 0 57.333 -30 166 -90c4 -4 6 -8.66699 6 -14c0 -20 -5.33301 -38 -16 -54s-19 -24 -25 -24
c-1.33301 0 -59.333 25.333 -174 76z" />
    <glyph glyph-name="Aacute" unicode="&#xc1;" 
d="M519 -12c-58 0 -89.333 9.33398 -94 28.001l-32 139h-159l-30 -134c-4 -20.667 -36 -31 -96 -31c-32 0 -55.667 1.83301 -71 5.5s-23 6.5 -23 8.5l178 687c0 5.33301 45.667 8 137 8s137 -2.66699 137 -8l172 -688c0 -4.66699 -15.333 -8.33398 -46 -11.001
s-55 -4 -73 -4zM259 282.001h105l-45 207h-6zM258 729.001c-6 0 -13.667 6.66504 -23 19.998c-12 18.667 -18 34.334 -18 47.001s2 21 6 25c108.667 60 164 90 166 90c6.66699 0 15 -8 25 -24c15.333 -23.333 23 -45.333 23 -66c0 -7.33301 -1.66699 -12.666 -5 -15.999
c-114.667 -50.667 -172.667 -76 -174 -76z" />
    <glyph glyph-name="Acircumflex" unicode="&#xc2;" 
d="M519 -12c-58 0 -89.333 9.33398 -94 28.001l-32 139h-159l-30 -134c-4 -20.667 -36 -31 -96 -31c-32 0 -55.667 1.83301 -71 5.5s-23 6.5 -23 8.5l178 687c0 5.33301 45.667 8 137 8s137 -2.66699 137 -8l172 -688c0 -4.66699 -15.333 -8.33398 -46 -11.001
s-55 -4 -73 -4zM259 282.001h105l-45 207h-6zM200 724.001c-6 0 -14.0029 7.33398 -24.0029 22.001c-13.333 20 -20 36.667 -20 50s2 21.666 6 24.999l154 84c4.66699 2.66699 8.33398 4 11.001 4s6.33398 -1.33301 11.001 -4l154 -84c4 -3.33301 6 -8 6 -14
c0 -20.667 -5.66699 -39.667 -17 -57s-20 -26 -26 -26c-1.33301 0 -44 24.667 -128 74c-83.333 -49.333 -125.666 -74 -126.999 -74z" />
    <glyph glyph-name="Atilde" unicode="&#xc3;" 
d="M519 -12c-58 0 -89.333 9.33398 -94 28.001l-32 139h-159l-30 -134c-4 -20.667 -36 -31 -96 -31c-32 0 -55.667 1.83301 -71 5.5s-23 6.5 -23 8.5l178 687c0 5.33301 45.667 8 137 8s137 -2.66699 137 -8l172 -688c0 -4.66699 -15.333 -8.33398 -46 -11.001
s-55 -4 -73 -4zM259 282.001h105l-45 207h-6zM185 753.001c-12.667 3.33301 -24.499 14.667 -35.499 34s-16.5 32 -16.5 38s1 10 3 12c42 42 85.333 63 130 63c20.667 0 44 -6.16699 70 -18.5s46 -18.5 60 -18.5c24.667 0.666992 47.667 13.667 69 39
c1.33301 0.666992 3 1 5 1c8 0 19 -9.33301 33 -28s21 -31.334 21 -38.001c0 -19.333 -16 -39.666 -48 -60.999c-20.667 -14.667 -40.667 -22 -60 -22h-7c-25.333 0 -53.333 6.66699 -84 20s-49.5 20 -56.5 20s-12.833 -0.666992 -17.5 -2l-12.5 -3.5
c-3.66699 -1 -8 -3.16699 -13 -6.5l-11.5 -7.5c-2.66699 -1.66699 -7.33398 -5.16699 -14.001 -10.5s-11.667 -9 -15 -11z" />
    <glyph glyph-name="Adieresis" unicode="&#xc4;" 
d="M519 -12c-58 0 -89.333 9.33398 -94 28.001l-32 139h-159l-30 -134c-4 -20.667 -36 -31 -96 -31c-32 0 -55.667 1.83301 -71 5.5s-23 6.5 -23 8.5l178 687c0 5.33301 45.667 8 137 8s137 -2.66699 137 -8l172 -688c0 -4.66699 -15.333 -8.33398 -46 -11.001
s-55 -4 -73 -4zM259 282.001h105l-45 207h-6zM282 752.001c0 -4 -23.167 -6 -69.5 -6s-69.5 1.66699 -69.5 5v140c0 6 23.167 9 69.5 9s69.5 -1.66699 69.5 -5v-143zM512 752.001c0 -4 -23.167 -6 -69.5 -6s-69.5 1.66699 -69.5 5v140c0 6 23.167 9 69.5 9
s69.5 -1.66699 69.5 -5v-143z" />
    <glyph glyph-name="Aring" unicode="&#xc5;" 
d="M519 -12c-58 0 -89.333 9.33398 -94 28.001l-32 139h-159l-30 -134c-4 -20.667 -36 -31 -96 -31c-32 0 -55.667 1.83301 -71 5.5s-23 6.5 -23 8.5l178 687c0 5.33301 45.667 8 137 8s137 -2.66699 137 -8l172 -688c0 -4.66699 -15.333 -8.33398 -46 -11.001
s-55 -4 -73 -4zM259 282.001h105l-45 207h-6zM235 815.001c0 25.333 8.66699 46.666 26 63.999s38.666 26 63.999 26s46.666 -8.66699 63.999 -26s26 -38.666 26 -63.999s-8.66699 -46.666 -26 -63.999s-38.666 -26 -63.999 -26s-46.666 8.66699 -63.999 26
s-26 38.666 -26 63.999zM266 816.001c0 -16.667 5.83301 -30.834 17.5 -42.501s25.834 -17.5 42.501 -17.5s30.834 5.83301 42.501 17.5s17.5 25.834 17.5 42.501s-5.83301 30.834 -17.5 42.501s-25.834 17.5 -42.501 17.5s-30.834 -5.83301 -42.501 -17.5
s-17.5 -25.834 -17.5 -42.501z" />
    <glyph glyph-name="AE" unicode="&#xc6;" horiz-adv-x="917" 
d="M775 422c12.667 0 19 -23.333 19 -70c0 -14 -1.5 -30.5 -4.5 -49.5s-8.5 -28.5 -16.5 -28.5h-127v-100h184c11.333 0 19 -14.667 23 -44c2 -12.667 3 -26.167 3 -40.5s-2 -32.833 -6 -55.5s-10.667 -34 -20 -34h-338c-20.667 0 -31 10.667 -31 32v124h-159l-64 -134
c-10 -21.333 -43.667 -32 -101 -32c-10 0 -29 0.833008 -57 2.5s-43.333 5.5 -46 11.5l326 696h471c14 0 21 -29.833 21 -89.5s-7 -89.5 -21 -89.5h-185v-99h129zM463 285v239h-6l-99 -239h105z" />
    <glyph glyph-name="Ccedilla" unicode="&#xc7;" horiz-adv-x="546" 
d="M374 -114c0 -44 -32.666 -66.0029 -97.999 -66.0029c-30 0 -56 5.33301 -78 16c-11.333 3.33301 -17 13.666 -17 30.999c0 4.66699 0.333008 10 1 16c4 27.333 13 41 27 41h33c14 0 23 1.83301 27 5.5s6 12.5 6 26.5v37c-77.333 10 -140 45.333 -188 106
s-72 145.167 -72 253.5s29.167 194.833 87.5 259.5s131.166 97 218.499 97c48.667 0 91.5 -6.83301 128.5 -20.5s55.5 -32.167 55.5 -55.5s-8.83301 -52.166 -26.5 -86.499s-32.5 -51.5 -44.5 -51.5c-3.33301 0 -7.16602 1.83301 -11.499 5.5s-14.333 7.66699 -30 12
s-29.167 6.5 -40.5 6.5c-38.667 0 -69.834 -13.667 -93.501 -41s-35.5 -69.166 -35.5 -125.499s12.167 -98.166 36.5 -125.499s55.166 -41 92.499 -41c15.333 0 32.5 2.16699 51.5 6.5s32.5 10.5 40.5 18.5c1.33301 1.33301 4 2 8 2s11.5 -7.5 22.5 -22.5
s21.167 -34.667 30.5 -59s14 -43.166 14 -56.499c0 -23.333 -16.667 -42.5 -50 -57.5s-74.666 -23.833 -123.999 -26.5c19.333 -46 29 -81 29 -105z" />
    <glyph glyph-name="Egrave" unicode="&#xc8;" horiz-adv-x="488" 
d="M139 805c-3.33301 3.33301 -5.00098 8 -5.00098 14c0 22 6.33301 42.833 19 62.5s22.334 29.5 29.001 29.5c2 0 57.333 -30 166 -90c4 -4 6 -8.66699 6 -14c0 -20 -5.33301 -38 -16 -54s-19 -24 -25 -24c-1.33301 0 -59.333 25.333 -174 76zM369.999 422
c12.667 0 19 -23.333 19 -70c0 -14 -1.5 -30.5 -4.5 -49.5s-8.5 -28.5 -16.5 -28.5h-127v-100h184c11.333 0 19 -14.667 23 -44c2 -12.667 3 -26.167 3 -40.5s-2 -32.833 -6 -55.5s-10.667 -34 -20 -34h-342c-25.333 -0 -38 10.333 -38 31v643c0 17.333 7.66699 26 23 26
h358c14 0 21 -29.5 21 -88.5s-7 -88.5 -21 -88.5h-185v-101h129z" />
    <glyph glyph-name="Eacute" unicode="&#xc9;" horiz-adv-x="488" 
d="M175 729c-6 0 -13.667 6.66504 -23 19.998c-12 18.667 -18 34.334 -18 47.001s2 21 6 25c108.667 60 164 90 166 90c6.66699 0 15 -8 25 -24c15.333 -23.333 23 -45.333 23 -66c0 -7.33301 -1.66699 -12.666 -5 -15.999c-114.667 -50.667 -172.667 -76 -174 -76z
M370 421.998c12.667 0 19 -23.333 19 -70c0 -14 -1.5 -30.5 -4.5 -49.5s-8.5 -28.5 -16.5 -28.5h-127v-100h184c11.333 0 19 -14.667 23 -44c2 -12.667 3 -26.167 3 -40.5s-2 -32.833 -6 -55.5s-10.667 -34 -20 -34h-342c-25.333 0 -38 10.333 -38 31v643
c0 17.333 7.66699 26 23 26h358c14 0 21 -29.5 21 -88.5s-7 -88.5 -21 -88.5h-185v-101h129z" />
    <glyph glyph-name="Ecircumflex" unicode="&#xca;" horiz-adv-x="488" 
d="M117 724c-6 0 -14.0029 7.33398 -24.0029 22.001c-13.333 20 -20 36.667 -20 50s2 21.666 6 24.999l154 84c4.66699 2.66699 8.33398 4 11.001 4s6.33398 -1.33301 11.001 -4l154 -84c4 -3.33301 6 -8 6 -14c0 -20.667 -5.66699 -39.667 -17 -57s-20 -26 -26 -26
c-1.33301 0 -44 24.667 -128 74c-83.333 -49.333 -125.666 -74 -126.999 -74zM369.997 422.001c12.667 0 19 -23.333 19 -70c0 -14 -1.5 -30.5 -4.5 -49.5s-8.5 -28.5 -16.5 -28.5h-127v-100h184c11.333 0 19 -14.667 23 -44c2 -12.667 3 -26.167 3 -40.5
s-2 -32.833 -6 -55.5s-10.667 -34 -20 -34h-342c-25.333 0 -38 10.333 -38 31v643c0 17.333 7.66699 26 23 26h358c14 0 21 -29.5 21 -88.5s-7 -88.5 -21 -88.5h-185v-101h129z" />
    <glyph glyph-name="Edieresis" unicode="&#xcb;" horiz-adv-x="488" 
d="M198 752c0 -4 -23.167 -6 -69.5 -6s-69.5 1.66699 -69.5 5v140c0 6 23.167 9 69.5 9s69.5 -1.66699 69.5 -5v-143zM428 752c0 -4 -23.167 -6 -69.5 -6s-69.5 1.66699 -69.5 5v140c0 6 23.167 9 69.5 9s69.5 -1.66699 69.5 -5v-143zM370 422c12.667 0 19 -23.333 19 -70
c0 -14 -1.5 -30.5 -4.5 -49.5s-8.5 -28.5 -16.5 -28.5h-127v-100h184c11.333 0 19 -14.667 23 -44c2 -12.667 3 -26.167 3 -40.5s-2 -32.833 -6 -55.5s-10.667 -34 -20 -34h-342c-25.333 -0 -38 10.333 -38 31v643c0 17.333 7.66699 26 23 26h358c14 0 21 -29.5 21 -88.5
s-7 -88.5 -21 -88.5h-185v-101h129z" />
    <glyph glyph-name="Igrave" unicode="&#xcc;" horiz-adv-x="432" 
d="M117 172v356h-71c-11.333 0 -19.333 14.333 -24 43c-2.66699 14 -4 28.333 -4 43s1.33301 29 4 43c4.66699 28.667 12.667 43 24 43h336c11.333 0 19.333 -14.333 24 -43c2 -14 3 -28.333 3 -43s-1 -29 -3 -43c-4.66699 -28.667 -12.667 -43 -24 -43h-67v-356h70
c11.333 0 19.333 -14.333 24 -43c2 -14 3 -28.333 3 -43s-1 -29 -3 -43c-4.66699 -28.667 -12.667 -43 -24 -43h-337c-11.333 -0 -19.333 14.333 -24 43c-2 14 -3 28.333 -3 43s1 29 3 43c4.66699 28.667 12.667 43 24 43h69zM111 805
c-3.33301 3.33301 -5.00098 8 -5.00098 14c0 22 6.33301 42.833 19 62.5s22.334 29.5 29.001 29.5c2 0 57.333 -30 166 -90c4 -4 6 -8.66699 6 -14c0 -20 -5.33301 -38 -16 -54s-19 -24 -25 -24c-1.33301 0 -59.333 25.333 -174 76z" />
    <glyph glyph-name="Iacute" unicode="&#xcd;" horiz-adv-x="432" 
d="M117 172v356h-71c-11.333 0 -19.333 14.333 -24 43c-2.66699 14 -4 28.333 -4 43s1.33301 29 4 43c4.66699 28.667 12.667 43 24 43h336c11.333 0 19.333 -14.333 24 -43c2 -14 3 -28.333 3 -43s-1 -29 -3 -43c-4.66699 -28.667 -12.667 -43 -24 -43h-67v-356h70
c11.333 0 19.333 -14.333 24 -43c2 -14 3 -28.333 3 -43s-1 -29 -3 -43c-4.66699 -28.667 -12.667 -43 -24 -43h-337c-11.333 -0 -19.333 14.333 -24 43c-2 14 -3 28.333 -3 43s1 29 3 43c4.66699 28.667 12.667 43 24 43h69zM147 729c-6 0 -13.667 6.66504 -23 19.998
c-12 18.667 -18 34.334 -18 47.001s2 21 6 25c108.667 60 164 90 166 90c6.66699 0 15 -8 25 -24c15.333 -23.333 23 -45.333 23 -66c0 -7.33301 -1.66699 -12.666 -5 -15.999c-114.667 -50.667 -172.667 -76 -174 -76z" />
    <glyph glyph-name="Icircumflex" unicode="&#xce;" horiz-adv-x="432" 
d="M117 172v356h-71c-11.333 0 -19.333 14.333 -24 43c-2.66699 14 -4 28.333 -4 43s1.33301 29 4 43c4.66699 28.667 12.667 43 24 43h336c11.333 0 19.333 -14.333 24 -43c2 -14 3 -28.333 3 -43s-1 -29 -3 -43c-4.66699 -28.667 -12.667 -43 -24 -43h-67v-356h70
c11.333 0 19.333 -14.333 24 -43c2 -14 3 -28.333 3 -43s-1 -29 -3 -43c-4.66699 -28.667 -12.667 -43 -24 -43h-337c-11.333 -0 -19.333 14.333 -24 43c-2 14 -3 28.333 -3 43s1 29 3 43c4.66699 28.667 12.667 43 24 43h69zM89 724c-6 0 -14.0029 7.33398 -24.0029 22.001
c-13.333 20 -20 36.667 -20 50s2 21.666 6 24.999l154 84c4.66699 2.66699 8.33398 4 11.001 4s6.33398 -1.33301 11.001 -4l154 -84c4 -3.33301 6 -8 6 -14c0 -20.667 -5.66699 -39.667 -17 -57s-20 -26 -26 -26c-1.33301 0 -44 24.667 -128 74
c-83.333 -49.333 -125.666 -74 -126.999 -74z" />
    <glyph glyph-name="Idieresis" unicode="&#xcf;" horiz-adv-x="432" 
d="M171 752c0 -4 -23.167 -6 -69.5 -6s-69.5 1.66699 -69.5 5v140c0 6 23.167 9 69.5 9s69.5 -1.66699 69.5 -5v-143zM401 752c0 -4 -23.167 -6 -69.5 -6s-69.5 1.66699 -69.5 5v140c0 6 23.167 9 69.5 9s69.5 -1.66699 69.5 -5v-143zM117 172v356h-71
c-11.333 0 -19.333 14.333 -24 43c-2.66699 14 -4 28.333 -4 43s1.33301 29 4 43c4.66699 28.667 12.667 43 24 43h336c11.333 0 19.333 -14.333 24 -43c2 -14 3 -28.333 3 -43s-1 -29 -3 -43c-4.66699 -28.667 -12.667 -43 -24 -43h-67v-356h70
c11.333 0 19.333 -14.333 24 -43c2 -14 3 -28.333 3 -43s-1 -29 -3 -43c-4.66699 -28.667 -12.667 -43 -24 -43h-337c-11.333 -0 -19.333 14.333 -24 43c-2 14 -3 28.333 -3 43s1 29 3 43c4.66699 28.667 12.667 43 24 43h69z" />
    <glyph glyph-name="Eth" unicode="&#xd0;" horiz-adv-x="620" 
d="M60 26v274h-43c-12 0 -20.667 9.66699 -26 29c-2.66699 10 -4 19.667 -4 29s1.33301 19 4 29c5.33301 19.333 14 29 26 29h43v262c0 14.667 5.66699 22 17 22h195c106 0 186.5 -26.667 241.5 -80s82.5 -137.333 82.5 -252c0 -245.333 -104.667 -368 -314 -368h-198
c-16 0 -24 8.66699 -24 26zM290 300h-47.998v-79c0 -14 1.16699 -22.833 3.5 -26.5s8.16602 -5.5 17.499 -5.5c47.333 0 81.166 13.333 101.499 40s30.5 72 30.5 136s-11 105.833 -33 125.5s-55.333 29.5 -100 29.5h-20v-104h48c12 0 20.667 -9.66699 26 -29
c2.66699 -10 4 -19.667 4 -29s-1.33301 -19 -4 -29c-5.33301 -19.333 -14 -29 -26 -29z" />
    <glyph glyph-name="Ntilde" unicode="&#xd1;" horiz-adv-x="657" 
d="M186 753c-12.667 3.33301 -24.5 14.667 -35.5 34s-16.5 32 -16.5 38s1 10 3 12c42 42 85.333 63 130 63c20.667 0 44 -6.16699 70 -18.5s46 -18.5 60 -18.5c24.667 0.666992 47.667 13.667 69 39c1.33301 0.666992 3 1 5 1c8 0 19 -9.33301 33 -28s21 -31.334 21 -38.001
c0 -19.333 -15.667 -39.666 -47 -60.999c-21.333 -14.667 -41.666 -22 -60.999 -22h-7c-25.333 0 -53.333 6.66699 -84 20s-49.5 20 -56.5 20s-12.833 -0.666992 -17.5 -2l-12.5 -3.5c-3.66699 -1 -8 -3.16699 -13 -6.5l-11.5 -7.5
c-2.66699 -1.66699 -7.33398 -5.16699 -14.001 -10.5s-11.667 -9 -15 -11zM591 12.001c0 -14 -30.5 -21 -91.5 -21s-94.167 5 -99.5 15l-172 322v-317c0 -12 -30.833 -18 -92.5 -18s-92.5 6 -92.5 18v685c0 10 25.667 15 77 15c20 0 43.5 -1.83301 70.5 -5.5
s43.5 -10.5 49.5 -20.5l165 -318v320c0 12.667 31 19 93 19s93 -6.33301 93 -19v-675z" />
    <glyph glyph-name="Ograve" unicode="&#xd2;" horiz-adv-x="696" 
d="M243 805c-3.33301 3.33301 -5.00098 8 -5.00098 14c0 22 6.33301 42.833 19 62.5s22.334 29.5 29.001 29.5c2 0 57.333 -30 166 -90c4 -4 6 -8.66699 6 -14c0 -20 -5.33301 -38 -16 -54s-19 -24 -25 -24c-1.33301 0 -59.333 25.333 -174 76zM118.499 82
c-59 61.333 -88.5 150.832 -88.5 268.499s29.833 206.834 89.5 267.501s136.667 91 231 91s170.5 -29.833 228.5 -89.5s87 -150 87 -271s-29.667 -211 -89 -270s-135.833 -88.5 -229.5 -88.5s-170 30.667 -229 92zM267.499 472.999
c-21.667 -29.333 -32.501 -70.5 -32.501 -123.5s10.333 -93.667 31 -122s47.834 -42.5 81.501 -42.5s61 14.333 82 43s31.5 69.667 31.5 123s-10.833 94.333 -32.5 123s-48.5 43 -80.5 43s-58.833 -14.667 -80.5 -44z" />
    <glyph glyph-name="Oacute" unicode="&#xd3;" horiz-adv-x="696" 
d="M279 729c-6 0 -13.667 6.66504 -23 19.998c-12 18.667 -18 34.334 -18 47.001s2 21 6 25c108.667 60 164 90 166 90c6.66699 0 15 -8 25 -24c15.333 -23.333 23 -45.333 23 -66c0 -7.33301 -1.66699 -12.666 -5 -15.999c-114.667 -50.667 -172.667 -76 -174 -76z
M118.5 81.998c-59 61.333 -88.5 150.832 -88.5 268.499s29.833 206.834 89.5 267.501s136.667 91 231 91s170.5 -29.833 228.5 -89.5s87 -150 87 -271s-29.667 -211 -89 -270s-135.833 -88.5 -229.5 -88.5s-170 30.667 -229 92zM267.5 472.997
c-21.667 -29.333 -32.501 -70.5 -32.501 -123.5s10.333 -93.667 31 -122s47.834 -42.5 81.501 -42.5s61 14.333 82 43s31.5 69.667 31.5 123s-10.833 94.333 -32.5 123s-48.5 43 -80.5 43s-58.833 -14.667 -80.5 -44z" />
    <glyph glyph-name="Ocircumflex" unicode="&#xd4;" horiz-adv-x="696" 
d="M221 724c-6 0 -14.0029 7.33398 -24.0029 22.001c-13.333 20 -20 36.667 -20 50s2 21.666 6 24.999l154 84c4.66699 2.66699 8.33398 4 11.001 4s6.33398 -1.33301 11.001 -4l154 -84c4 -3.33301 6 -8 6 -14c0 -20.667 -5.66699 -39.667 -17 -57s-20 -26 -26 -26
c-1.33301 0 -44 24.667 -128 74c-83.333 -49.333 -125.666 -74 -126.999 -74zM118.497 82.001c-59 61.333 -88.5 150.832 -88.5 268.499s29.833 206.834 89.5 267.501s136.667 91 231 91s170.5 -29.833 228.5 -89.5s87 -150 87 -271s-29.667 -211 -89 -270
s-135.833 -88.5 -229.5 -88.5s-170 30.667 -229 92zM267.497 473c-21.667 -29.333 -32.501 -70.5 -32.501 -123.5s10.333 -93.667 31 -122s47.834 -42.5 81.501 -42.5s61 14.333 82 43s31.5 69.667 31.5 123s-10.833 94.333 -32.5 123s-48.5 43 -80.5 43
s-58.833 -14.667 -80.5 -44z" />
    <glyph glyph-name="Otilde" unicode="&#xd5;" horiz-adv-x="696" 
d="M205 753c-12.667 3.33301 -24.499 14.667 -35.499 34s-16.5 32 -16.5 38s1 10 3 12c42 42 85.333 63 130 63c20.667 0 44 -6.16699 70 -18.5s46 -18.5 60 -18.5c24.667 0.666992 47.667 13.667 69 39c1.33301 0.666992 3 1 5 1c8 0 19 -9.33301 33 -28
s21 -31.334 21 -38.001c0 -19.333 -16 -39.666 -48 -60.999c-20.667 -14.667 -40.667 -22 -60 -22h-7c-25.333 0 -53.333 6.66699 -84 20s-49.5 20 -56.5 20s-12.833 -0.666992 -17.5 -2l-12.5 -3.5c-3.66699 -1 -8 -3.16699 -13 -6.5l-11.5 -7.5
c-2.66699 -1.66699 -7.33398 -5.16699 -14.001 -10.5s-11.667 -9 -15 -11zM118.501 82.001c-59 61.333 -88.5 150.832 -88.5 268.499s29.833 206.834 89.5 267.501s136.667 91 231 91s170.5 -29.833 228.5 -89.5s87 -150 87 -271s-29.667 -211 -89 -270
s-135.833 -88.5 -229.5 -88.5s-170 30.667 -229 92zM267.501 473c-21.667 -29.333 -32.501 -70.5 -32.501 -123.5s10.333 -93.667 31 -122s47.834 -42.5 81.501 -42.5s61 14.333 82 43s31.5 69.667 31.5 123s-10.833 94.333 -32.5 123s-48.5 43 -80.5 43
s-58.833 -14.667 -80.5 -44z" />
    <glyph glyph-name="Odieresis" unicode="&#xd6;" horiz-adv-x="696" 
d="M302 752c0 -4 -23.167 -6 -69.5 -6s-69.5 1.66699 -69.5 5v140c0 6 23.167 9 69.5 9s69.5 -1.66699 69.5 -5v-143zM532 752c0 -4 -23.167 -6 -69.5 -6s-69.5 1.66699 -69.5 5v140c0 6 23.167 9 69.5 9s69.5 -1.66699 69.5 -5v-143zM118.5 82
c-59 61.333 -88.5 150.832 -88.5 268.499s29.833 206.834 89.5 267.501s136.667 91 231 91s170.5 -29.833 228.5 -89.5s87 -150 87 -271s-29.667 -211 -89 -270s-135.833 -88.5 -229.5 -88.5s-170 30.667 -229 92zM267.5 472.999
c-21.667 -29.333 -32.501 -70.5 -32.501 -123.5s10.333 -93.667 31 -122s47.834 -42.5 81.501 -42.5s61 14.333 82 43s31.5 69.667 31.5 123s-10.833 94.333 -32.5 123s-48.5 43 -80.5 43s-58.833 -14.667 -80.5 -44z" />
    <glyph glyph-name="multiply" unicode="&#xd7;" horiz-adv-x="610" 
d="M108 459c-4 4 -5.99707 9.16602 -5.99707 15.499s3.66699 16 11 29s17.666 23.5 30.999 31.5s23.333 12 30 12s12 -2 16 -6l112 -113l114 114c4 4 9.16699 6 15.5 6s16.166 -3.83301 29.499 -11.5s23.833 -18.167 31.5 -31.5s11.5 -23.166 11.5 -29.499
s-2 -11.5 -6 -15.5l-114 -114l113 -113c4 -4 6 -8.5 6 -13.5s-1.83301 -11.833 -5.5 -20.5s-10.834 -18 -21.501 -28c-18 -17.333 -33.333 -26 -46 -26c-6 0 -11 2 -15 6l-113 113l-111 -111c-4.66699 -4.66699 -11.667 -7 -21 -7s-23 9 -41 27s-27 31.667 -27 41
s2.33301 16.333 7 21l111 111z" />
    <glyph glyph-name="Oslash" unicode="&#xd8;" horiz-adv-x="696" 
d="M129 71c-66 64.667 -98.999 156.831 -98.999 276.498s29.833 209.834 89.5 270.501s135.167 91 226.5 91c35.333 0 70.666 -4.66699 105.999 -14l43 83c6.66699 7.33301 13.667 11 21 11c25.333 0 48 -8.66699 68 -26c11.333 -9.33301 17 -17 17 -23
s-0.666992 -10.667 -2 -14l-44 -85c74 -63.333 111 -158.166 111 -284.499s-29.667 -219 -89 -278s-137.333 -88.5 -234 -88.5c-38.667 0 -77 6.33301 -115 19l-40 -78c-4.66699 -8 -11.667 -12 -21 -12c-12.667 0 -26.667 3.5 -42 10.5s-27 15.667 -35 26
s-10 19.833 -6 28.5zM453.001 192.997c26.667 36.667 40.001 84.5 40.001 143.5s-7.66699 105.5 -23 139.5l-171 -329c15.333 -6 31.666 -9 48.999 -9c43.333 0 78.333 18.333 105 55zM203.002 348.997c0 -42 4.99902 -77.333 14.999 -106l164 316
c-13.333 3.33301 -24.666 5 -33.999 5c-40.667 0 -75 -18.667 -103 -56s-42 -90.333 -42 -159z" />
    <glyph glyph-name="Ugrave" unicode="&#xd9;" horiz-adv-x="628" 
d="M377 691c0 13.333 36.1689 20 108.502 20s108.5 -6.66699 108.5 -20v-470c0 -68 -24.333 -123.5 -73 -166.5s-115.834 -64.5 -201.501 -64.5s-155.334 22.167 -209.001 66.5s-80.5 104.166 -80.5 179.499v452c0 13.333 36.167 20 108.5 20s108.5 -6.66699 108.5 -20v-441
c0 -13.333 7 -23.666 21 -30.999c14.667 -8.66699 30 -13 46 -13s30.5 3.66699 43.5 11s19.5 18.333 19.5 33v444zM209.002 805c-3.33301 3.33301 -5.00098 8 -5.00098 14c0 22 6.33301 42.833 19 62.5s22.334 29.5 29.001 29.5c2 0 57.333 -30 166 -90
c4 -4 6 -8.66699 6 -14c0 -20 -5.33301 -38 -16 -54s-19 -24 -25 -24c-1.33301 0 -59.333 25.333 -174 76z" />
    <glyph glyph-name="Uacute" unicode="&#xda;" horiz-adv-x="628" 
d="M245 729c-6 0 -13.667 6.66504 -23 19.998c-12 18.667 -18 34.334 -18 47.001s2 21 6 25c108.667 60 164 90 166 90c6.66699 0 15 -8 25 -24c15.333 -23.333 23 -45.333 23 -66c0 -7.33301 -1.66699 -12.666 -5 -15.999c-114.667 -50.667 -172.667 -76 -174 -76z
M377 690.998c0 13.333 36.1689 20 108.502 20s108.5 -6.66699 108.5 -20v-470c0 -68 -24.333 -123.5 -73 -166.5s-115.834 -64.5 -201.501 -64.5s-155.334 22.167 -209.001 66.5s-80.5 104.166 -80.5 179.499v452c0 13.333 36.167 20 108.5 20s108.5 -6.66699 108.5 -20
v-441c0 -13.333 7 -23.666 21 -30.999c14.667 -8.66699 30 -13 46 -13s30.5 3.66699 43.5 11s19.5 18.333 19.5 33v444z" />
    <glyph glyph-name="Ucircumflex" unicode="&#xdb;" horiz-adv-x="628" 
d="M187 724c-6 0 -14.0029 7.33398 -24.0029 22.001c-13.333 20 -20 36.667 -20 50s2 21.666 6 24.999l154 84c4.66699 2.66699 8.33398 4 11.001 4s6.33398 -1.33301 11.001 -4l154 -84c4 -3.33301 6 -8 6 -14c0 -20.667 -5.66699 -39.667 -17 -57s-20 -26 -26 -26
c-1.33301 0 -44 24.667 -128 74c-83.333 -49.333 -125.666 -74 -126.999 -74zM376.997 691.001c0 13.333 36.1689 20 108.502 20s108.5 -6.66699 108.5 -20v-470c0 -68 -24.333 -123.5 -73 -166.5s-115.834 -64.5 -201.501 -64.5s-155.334 22.167 -209.001 66.5
s-80.5 104.166 -80.5 179.499v452c0 13.333 36.167 20 108.5 20s108.5 -6.66699 108.5 -20v-441c0 -13.333 7 -23.666 21 -30.999c14.667 -8.66699 30 -13 46 -13s30.5 3.66699 43.5 11s19.5 18.333 19.5 33v444z" />
    <glyph glyph-name="Udieresis" unicode="&#xdc;" horiz-adv-x="628" 
d="M268 752c0 -4 -23.167 -6 -69.5 -6s-69.5 1.66699 -69.5 5v140c0 6 23.167 9 69.5 9s69.5 -1.66699 69.5 -5v-143zM498 752c0 -4 -23.167 -6 -69.5 -6s-69.5 1.66699 -69.5 5v140c0 6 23.167 9 69.5 9s69.5 -1.66699 69.5 -5v-143zM377 691
c0 13.333 36.1689 20 108.502 20s108.5 -6.66699 108.5 -20v-470c0 -68 -24.333 -123.5 -73 -166.5s-115.834 -64.5 -201.501 -64.5s-155.334 22.167 -209.001 66.5s-80.5 104.166 -80.5 179.499v452c0 13.333 36.167 20 108.5 20s108.5 -6.66699 108.5 -20v-441
c0 -13.333 7 -23.666 21 -30.999c14.667 -8.66699 30 -13 46 -13s30.5 3.66699 43.5 11s19.5 18.333 19.5 33v444z" />
    <glyph glyph-name="Yacute" unicode="&#xdd;" horiz-adv-x="615" 
d="M238 729c-6 0 -13.667 6.66504 -23 19.998c-12 18.667 -18 34.334 -18 47.001s2 21 6 25c108.667 60 164 90 166 90c6.66699 0 15 -8 25 -24c15.333 -23.333 23 -45.333 23 -66c0 -7.33301 -1.66699 -12.666 -5 -15.999c-114.667 -50.667 -172.667 -76 -174 -76z
M398 673.998c8.66699 23.333 51.334 35 128.001 35c19.333 0 42.166 -1.33301 68.499 -4s38.5 -6 36.5 -10l-208 -445v-232c0 -11.333 -18.333 -19.333 -55 -24c-18.667 -2.66699 -37 -4 -55 -4s-36 1 -54 3c-36.667 4.66699 -55 13 -55 25v226l-215 449
c-2.66699 4 11 7.83301 41 11.5s55.333 5.5 76 5.5c82 0 127 -12 135 -36l73 -218z" />
    <glyph glyph-name="Thorn" unicode="&#xde;" horiz-adv-x="595" 
d="M46 699c0 9.33301 31 14 93 14c66 -2.66699 99 -7 99 -13v-80c108 0 184 -20 228 -60s66 -99.333 66 -178c0 -64 -20.667 -122.667 -62 -176c-20.667 -26.667 -51 -48 -91 -64s-86.667 -24 -140 -24v-104c0 -10 -16.333 -17 -49 -21c-16.667 -2 -33 -3 -49 -3
c-63.333 0 -95 7.66699 -95 23v686zM239 446v-158.001h13c23.333 0 43 7.33301 59 22s24 35.334 24 62.001s-5.5 45.667 -16.5 57s-30.5 17 -58.5 17h-21z" />
    <glyph glyph-name="germandbls" unicode="&#xdf;" horiz-adv-x="672" 
d="M328.5 15c-26.333 16.667 -39.4971 37.667 -39.4971 63c0 29.333 5.33301 62.666 16 99.999c22 -10 43.667 -15 65 -15c44 0 66 16 66 48c0 24.667 -8.33301 42 -25 52s-44.334 16 -83.001 18c-16.667 12.667 -25 33.667 -25 63c0 14 2.33301 27.833 7 41.5
s11.667 20.5 21 20.5l29 1c2 2.66699 5.16699 11 9.5 25s6.5 32.333 6.5 55s-10 39 -30 49c-9.33301 5.33301 -19 8 -29 8s-20.333 -3 -31 -9c-19.333 -11.333 -29 -30.333 -29 -57l1 -616c0 -8 -29.333 -12 -88 -12s-88 4 -88 12v645c0 67.333 22.167 118 66.5 152
s103.666 51 177.999 51s131 -14.667 170 -44s58.5 -72.5 58.5 -129.5s-18.667 -117.5 -56 -181.5c43.333 -20.667 71.666 -37.667 84.999 -51c28.667 -28 43 -68.667 43 -122s-17.5 -98.666 -52.5 -135.999s-83.833 -56 -146.5 -56c-40 0 -73.167 8.33301 -99.5 25z" />
    <glyph glyph-name="agrave" unicode="&#xe0;" horiz-adv-x="517" 
d="M108 363c-18.667 33.333 -27.9961 60.499 -27.9961 81.499s5.66699 34.5 17 40.5c38 16.667 90.167 25 156.5 25s113.166 -15.5 140.499 -46.5s41 -76.833 41 -137.5v-158h34c11.333 0 20.166 -6.66699 26.499 -20s9.5 -31.666 9.5 -54.999s-5.83301 -46.333 -17.5 -69
s-27.5 -34 -47.5 -34c-36 0 -65 9.66699 -87 29c-10 8 -17.667 17.667 -23 29c-30.667 -38.667 -78.334 -58 -143.001 -58c-48.667 0 -89.667 17.333 -123 52s-50 75.667 -50 123c0 108.667 65 163 195 163h55v10c0 17.333 -2.83301 28.5 -8.5 33.5s-18.834 7.5 -39.501 7.5
c-25.333 0 -61.333 -5.33301 -108 -16zM188.004 178.999c0 -14.667 4 -25.833 12 -33.5s18.167 -11.5 30.5 -11.5s23.5 5 33.5 15v77h-28c-32 0 -48 -15.667 -48 -47zM148.004 605c-3.33301 3.33301 -5.00098 8 -5.00098 14c0 22 6.33301 42.833 19 62.5
s22.334 29.5 29.001 29.5c2 0 57.333 -30 166 -90c4 -4 6 -8.66699 6 -14c0 -20 -5.33301 -38 -16 -54s-19 -24 -25 -24c-1.33301 0 -59.333 25.333 -174 76z" />
    <glyph glyph-name="aacute" unicode="&#xe1;" horiz-adv-x="517" 
d="M108 363c-18.667 33.333 -27.9961 60.499 -27.9961 81.499s5.66699 34.5 17 40.5c38 16.667 90.167 25 156.5 25s113.166 -15.5 140.499 -46.5s41 -76.833 41 -137.5v-158h34c11.333 0 20.166 -6.66699 26.499 -20s9.5 -31.666 9.5 -54.999s-5.83301 -46.333 -17.5 -69
s-27.5 -34 -47.5 -34c-36 0 -65 9.66699 -87 29c-10 8 -17.667 17.667 -23 29c-30.667 -38.667 -78.334 -58 -143.001 -58c-48.667 0 -89.667 17.333 -123 52s-50 75.667 -50 123c0 108.667 65 163 195 163h55v10c0 17.333 -2.83301 28.5 -8.5 33.5s-18.834 7.5 -39.501 7.5
c-25.333 0 -61.333 -5.33301 -108 -16zM188.004 178.999c0 -14.667 4 -25.833 12 -33.5s18.167 -11.5 30.5 -11.5s23.5 5 33.5 15v77h-28c-32 0 -48 -15.667 -48 -47zM177.004 529c-6 0 -13.667 6.66504 -23 19.998c-12 18.667 -18 34.334 -18 47.001s2 21 6 25
c108.667 60 164 90 166 90c6.66699 0 15 -8 25 -24c15.333 -23.333 23 -45.333 23 -66c0 -7.33301 -1.66699 -12.666 -5 -15.999c-114.667 -50.667 -172.667 -76 -174 -76z" />
    <glyph glyph-name="acircumflex" unicode="&#xe2;" horiz-adv-x="517" 
d="M116 524c-6 0 -14.0029 7.33398 -24.0029 22.001c-13.333 20 -20 36.667 -20 50s2 21.666 6 24.999l154 84c4.66699 2.66699 8.33398 4 11.001 4s6.33398 -1.33301 11.001 -4l154 -84c4 -3.33301 6 -8 6 -14c0 -20.667 -5.66699 -39.667 -17 -57s-20 -26 -26 -26
c-1.33301 0 -44 24.667 -128 74c-83.333 -49.333 -125.666 -74 -126.999 -74zM107.997 363.001c-18.667 33.333 -27.9961 60.499 -27.9961 81.499s5.66699 34.5 17 40.5c38 16.667 90.167 25 156.5 25s113.166 -15.5 140.499 -46.5s41 -76.833 41 -137.5v-158h34
c11.333 0 20.166 -6.66699 26.499 -20s9.5 -31.666 9.5 -54.999s-5.83301 -46.333 -17.5 -69s-27.5 -34 -47.5 -34c-36 0 -65 9.66699 -87 29c-10 8 -17.667 17.667 -23 29c-30.667 -38.667 -78.334 -58 -143.001 -58c-48.667 0 -89.667 17.333 -123 52s-50 75.667 -50 123
c0 108.667 65 163 195 163h55v10c0 17.333 -2.83301 28.5 -8.5 33.5s-18.834 7.5 -39.501 7.5c-25.333 0 -61.333 -5.33301 -108 -16zM188.001 179c0 -14.667 4 -25.833 12 -33.5s18.167 -11.5 30.5 -11.5s23.5 5 33.5 15v77h-28c-32 0 -48 -15.667 -48 -47z" />
    <glyph glyph-name="atilde" unicode="&#xe3;" horiz-adv-x="517" 
d="M110 553c-12.667 3.33301 -24.5 14.667 -35.5 34s-16.5 32 -16.5 38s1 10 3 12c42 42 85.333 63 130 63c20.667 0 44 -6.16699 70 -18.5s46 -18.5 60 -18.5c24.667 0.666992 47.667 13.667 69 39c1.33301 0.666992 3 1 5 1c8 0 19 -9.33301 33 -28s21 -31.334 21 -38.001
c0 -19.333 -15.667 -39.666 -47 -60.999c-21.333 -14.667 -41.666 -22 -60.999 -22h-7c-25.333 0 -53.333 6.66699 -84 20s-49.5 20 -56.5 20s-12.833 -0.666992 -17.5 -2l-12.5 -3.5c-3.66699 -1 -8 -3.16699 -13 -6.5l-11.5 -7.5
c-2.66699 -1.66699 -7.33398 -5.16699 -14.001 -10.5s-11.667 -9 -15 -11zM108 363.001c-18.667 33.333 -27.9961 60.499 -27.9961 81.499s5.66699 34.5 17 40.5c38 16.667 90.167 25 156.5 25s113.166 -15.5 140.499 -46.5s41 -76.833 41 -137.5v-158h34
c11.333 0 20.166 -6.66699 26.499 -20s9.5 -31.666 9.5 -54.999s-5.83301 -46.333 -17.5 -69s-27.5 -34 -47.5 -34c-36 0 -65 9.66699 -87 29c-10 8 -17.667 17.667 -23 29c-30.667 -38.667 -78.334 -58 -143.001 -58c-48.667 0 -89.667 17.333 -123 52s-50 75.667 -50 123
c0 108.667 65 163 195 163h55v10c0 17.333 -2.83301 28.5 -8.5 33.5s-18.834 7.5 -39.501 7.5c-25.333 0 -61.333 -5.33301 -108 -16zM188.004 179c0 -14.667 4 -25.833 12 -33.5s18.167 -11.5 30.5 -11.5s23.5 5 33.5 15v77h-28c-32 0 -48 -15.667 -48 -47z" />
    <glyph glyph-name="adieresis" unicode="&#xe4;" horiz-adv-x="517" 
d="M202 552c0 -4 -23.167 -6 -69.5 -6s-69.5 1.66699 -69.5 5v140c0 6 23.167 9 69.5 9s69.5 -1.66699 69.5 -5v-143zM432 552c0 -4 -23.167 -6 -69.5 -6s-69.5 1.66699 -69.5 5v140c0 6 23.167 9 69.5 9s69.5 -1.66699 69.5 -5v-143zM108 363
c-18.667 33.333 -27.9961 60.499 -27.9961 81.499s5.66699 34.5 17 40.5c38 16.667 90.167 25 156.5 25s113.166 -15.5 140.499 -46.5s41 -76.833 41 -137.5v-158h34c11.333 0 20.166 -6.66699 26.499 -20s9.5 -31.666 9.5 -54.999s-5.83301 -46.333 -17.5 -69
s-27.5 -34 -47.5 -34c-36 0 -65 9.66699 -87 29c-10 8 -17.667 17.667 -23 29c-30.667 -38.667 -78.334 -58 -143.001 -58c-48.667 0 -89.667 17.333 -123 52s-50 75.667 -50 123c0 108.667 65 163 195 163h55v10c0 17.333 -2.83301 28.5 -8.5 33.5s-18.834 7.5 -39.501 7.5
c-25.333 0 -61.333 -5.33301 -108 -16zM188.004 178.999c0 -14.667 4 -25.833 12 -33.5s18.167 -11.5 30.5 -11.5s23.5 5 33.5 15v77h-28c-32 0 -48 -15.667 -48 -47z" />
    <glyph glyph-name="aring" unicode="&#xe5;" horiz-adv-x="517" 
d="M162 619c0 25.333 8.66699 46.666 26 63.999s38.666 26 63.999 26s46.666 -8.66699 63.999 -26s26 -38.666 26 -63.999s-8.66699 -46.666 -26 -63.999s-38.666 -26 -63.999 -26s-46.666 8.66699 -63.999 26s-26 38.666 -26 63.999zM193 620
c0 -16.667 5.83301 -30.834 17.5 -42.501s25.834 -17.5 42.501 -17.5s30.834 5.83301 42.501 17.5s17.5 25.834 17.5 42.501s-5.83301 30.834 -17.5 42.501s-25.834 17.5 -42.501 17.5s-30.834 -5.83301 -42.501 -17.5s-17.5 -25.834 -17.5 -42.501zM108 363
c-18.667 33.333 -27.9961 60.499 -27.9961 81.499s5.66699 34.5 17 40.5c38 16.667 90.167 25 156.5 25s113.166 -15.5 140.499 -46.5s41 -76.833 41 -137.5v-158h34c11.333 0 20.166 -6.66699 26.499 -20s9.5 -31.666 9.5 -54.999s-5.83301 -46.333 -17.5 -69
s-27.5 -34 -47.5 -34c-36 0 -65 9.66699 -87 29c-10 8 -17.667 17.667 -23 29c-30.667 -38.667 -78.334 -58 -143.001 -58c-48.667 0 -89.667 17.333 -123 52s-50 75.667 -50 123c0 108.667 65 163 195 163h55v10c0 17.333 -2.83301 28.5 -8.5 33.5s-18.834 7.5 -39.501 7.5
c-25.333 0 -61.333 -5.33301 -108 -16zM188.004 178.999c0 -14.667 4 -25.833 12 -33.5s18.167 -11.5 30.5 -11.5s23.5 5 33.5 15v77h-28c-32 0 -48 -15.667 -48 -47z" />
    <glyph glyph-name="ae" unicode="&#xe6;" horiz-adv-x="685" 
d="M610 147c21.333 -33.333 32.001 -60.167 32.001 -80.5s-6 -33.833 -18 -40.5c-42 -24 -93.5 -36 -154.5 -36s-111.833 17.667 -152.5 53c-30.667 -35.333 -76.334 -53 -137.001 -53c-47.333 0 -86.833 16.5 -118.5 49.5s-47.5 72.5 -47.5 118.5
c0 106.667 62.333 160 187 160h54v9c0 16 -2.83301 26.667 -8.5 32s-18.5 8 -38.5 8s-37.167 -1.5 -51.5 -4.5l-33.5 -7c-8 -1.66699 -14 -3.16699 -18 -4.5c-18.667 31.333 -28 60 -28 86c0 15.333 5.66699 26 17 32c34.667 16 83 24 145 24c38 0 74.667 -10.667 110 -32
c48 24.667 86.667 37 116 37c62.667 0 111.667 -16.667 147 -50s53 -73.333 53 -120c0 -106.667 -60 -160 -180 -160h-66v-14c2.66699 -14.667 9 -24.667 19 -30s24.333 -8 43 -8c44 0 87 10.333 129 31zM227.001 215.999c-30.667 0 -46 -14.5 -46 -43.5
s13.333 -43.5 40 -43.5c12 0 23.333 4.66699 34 14v73h-28zM502.001 309.999c0 26.667 -13.333 40 -40 40c-24 0 -38.333 -11 -43 -33v-40h51c21.333 0 32 11 32 33z" />
    <glyph glyph-name="ccedilla" unicode="&#xe7;" horiz-adv-x="424" 
d="M209 248c0 -65.333 24.6689 -98.002 74.002 -98.002c32 0 58.667 6.33301 80 19c10 0 18.167 -17.167 24.5 -51.5s9.5 -57.666 9.5 -69.999s-1.66699 -20.5 -5 -24.5c-26.667 -16 -59 -26 -97 -30c8 -30.667 12 -56 12 -76s-3 -35.667 -9 -47
c-16.667 -31.333 -47.667 -47 -93 -47c-27.333 0 -51.666 5.66699 -72.999 17c-8 4 -12 15 -12 33v17c3.33301 27.333 11 41 23 41h33c14 0 23 1.83301 27 5.5s6 12.5 6 26.5v31c-52.667 8.66699 -96.334 35.167 -131.001 79.5s-52 103.833 -52 178.5
s21.167 136.334 63.5 185.001s98.666 73 168.999 73s119.166 -17 146.499 -51c6 -7.33301 9 -18.166 9 -32.499s-2.66699 -31.833 -8 -52.5c-12 -42.667 -27.667 -67.334 -47 -74.001c-2.66699 -0.666992 -6.5 -1 -11.5 -1s-11.167 4 -18.5 12c-26 26 -46.833 39 -62.5 39
s-29.167 -8 -40.5 -24s-17 -42 -17 -78z" />
    <glyph glyph-name="egrave" unicode="&#xe8;" horiz-adv-x="486" 
d="M142 605c-3.33301 3.33301 -5.00098 8 -5.00098 14c0 22 6.33301 42.833 19 62.5s22.334 29.5 29.001 29.5c2 0 57.333 -30 166 -90c4 -4 6 -8.66699 6 -14c0 -20 -5.33301 -38 -16 -54s-19 -24 -25 -24c-1.33301 0 -59.333 25.333 -174 76zM422.999 27
c-42 -24.667 -96.001 -37 -162.001 -37s-121.667 22.5 -167 67.5s-68 107.333 -68 187s21.833 143.834 65.5 192.501s98.834 73 165.501 73s118.167 -17 154.5 -51s54.5 -75.333 54.5 -124c0 -108 -62 -162 -186 -162h-69c0 -20 5.5 -33.833 16.5 -41.5
s27.167 -11.5 48.5 -11.5c46.667 0 91 10.667 133 32c0.666992 0.666992 3.66699 -4 9 -14c16 -28.667 24 -52.834 24 -72.501s-6.33301 -32.5 -19 -38.5zM297.998 316c0 28 -13.667 42.001 -41 42.001c-12.667 0 -23.5 -3.83301 -32.5 -11.5s-13.5 -18.834 -13.5 -33.501
v-31h54c22 0 33 11.333 33 34z" />
    <glyph glyph-name="eacute" unicode="&#xe9;" horiz-adv-x="486" 
d="M178 529c-6 0 -13.667 6.66504 -23 19.998c-12 18.667 -18 34.334 -18 47.001s2 21 6 25c108.667 60 164 90 166 90c6.66699 0 15 -8 25 -24c15.333 -23.333 23 -45.333 23 -66c0 -7.33301 -1.66699 -12.666 -5 -15.999c-114.667 -50.667 -172.667 -76 -174 -76z
M423 26.998c-42 -24.667 -96.001 -37 -162.001 -37s-121.667 22.5 -167 67.5s-68 107.333 -68 187s21.833 143.834 65.5 192.501s98.834 73 165.501 73s118.167 -17 154.5 -51s54.5 -75.333 54.5 -124c0 -108 -62 -162 -186 -162h-69c0 -20 5.5 -33.833 16.5 -41.5
s27.167 -11.5 48.5 -11.5c46.667 0 91 10.667 133 32c0.666992 0.666992 3.66699 -4 9 -14c16 -28.667 24 -52.834 24 -72.501s-6.33301 -32.5 -19 -38.5zM297.999 315.998c0 28 -13.667 42.001 -41 42.001c-12.667 0 -23.5 -3.83301 -32.5 -11.5
s-13.5 -18.834 -13.5 -33.501v-31h54c22 0 33 11.333 33 34z" />
    <glyph glyph-name="ecircumflex" unicode="&#xea;" horiz-adv-x="486" 
d="M120 524c-6 0 -14.0029 7.33398 -24.0029 22.001c-13.333 20 -20 36.667 -20 50s2 21.666 6 24.999l154 84c4.66699 2.66699 8.33398 4 11.001 4s6.33398 -1.33301 11.001 -4l154 -84c4 -3.33301 6 -8 6 -14c0 -20.667 -5.66699 -39.667 -17 -57s-20 -26 -26 -26
c-1.33301 0 -44 24.667 -128 74c-83.333 -49.333 -125.666 -74 -126.999 -74zM422.997 27.001c-42 -24.667 -96.001 -37 -162.001 -37s-121.667 22.5 -167 67.5s-68 107.333 -68 187s21.833 143.834 65.5 192.501s98.834 73 165.501 73s118.167 -17 154.5 -51
s54.5 -75.333 54.5 -124c0 -108 -62 -162 -186 -162h-69c0 -20 5.5 -33.833 16.5 -41.5s27.167 -11.5 48.5 -11.5c46.667 0 91 10.667 133 32c0.666992 0.666992 3.66699 -4 9 -14c16 -28.667 24 -52.834 24 -72.501s-6.33301 -32.5 -19 -38.5zM297.996 316.001
c0 28 -13.667 42.001 -41 42.001c-12.667 0 -23.5 -3.83301 -32.5 -11.5s-13.5 -18.834 -13.5 -33.501v-31h54c22 0 33 11.333 33 34z" />
    <glyph glyph-name="edieresis" unicode="&#xeb;" horiz-adv-x="486" 
d="M201 552c0 -4 -23.167 -6 -69.5 -6s-69.5 1.66699 -69.5 5v140c0 6 23.167 9 69.5 9s69.5 -1.66699 69.5 -5v-143zM431 552c0 -4 -23.167 -6 -69.5 -6s-69.5 1.66699 -69.5 5v140c0 6 23.167 9 69.5 9s69.5 -1.66699 69.5 -5v-143zM423 27
c-42 -24.667 -96.001 -37 -162.001 -37s-121.667 22.5 -167 67.5s-68 107.333 -68 187s21.833 143.834 65.5 192.501s98.834 73 165.501 73s118.167 -17 154.5 -51s54.5 -75.333 54.5 -124c0 -108 -62 -162 -186 -162h-69c0 -20 5.5 -33.833 16.5 -41.5
s27.167 -11.5 48.5 -11.5c46.667 0 91 10.667 133 32c0.666992 0.666992 3.66699 -4 9 -14c16 -28.667 24 -52.834 24 -72.501s-6.33301 -32.5 -19 -38.5zM297.999 316c0 28 -13.667 42.001 -41 42.001c-12.667 0 -23.5 -3.83301 -32.5 -11.5s-13.5 -18.834 -13.5 -33.501
v-31h54c22 0 33 11.333 33 34z" />
    <glyph glyph-name="igrave" unicode="&#xec;" horiz-adv-x="267" 
d="M27 605c-3.33301 3.33301 -5.00098 8 -5.00098 14c0 22 6.33301 42.833 19 62.5s22.334 29.5 29.001 29.5c2 0 57.333 -30 166 -90c4 -4 6 -8.66699 6 -14c0 -20 -5.33301 -38 -16 -54s-19 -24 -25 -24c-1.33301 0 -59.333 25.333 -174 76zM221.999 6
c0 -5.33301 -29.5 -8 -88.5 -8s-88.5 2.33301 -88.5 7v475c0 4 29.5 6 88.5 6s88.5 -1.66699 88.5 -5v-475z" />
    <glyph glyph-name="iacute" unicode="&#xed;" horiz-adv-x="267" 
d="M63 529c-6 0 -13.667 6.66504 -23 19.998c-12 18.667 -18 34.334 -18 47.001s2 21 6 25c108.667 60 164 90 166 90c6.66699 0 15 -8 25 -24c15.333 -23.333 23 -45.333 23 -66c0 -7.33301 -1.66699 -12.666 -5 -15.999c-114.667 -50.667 -172.667 -76 -174 -76z
M222 5.99805c0 -5.33301 -29.5 -8 -88.5 -8s-88.5 2.33301 -88.5 7v475c0 4 29.5 6 88.5 6s88.5 -1.66699 88.5 -5v-475z" />
    <glyph glyph-name="icircumflex" unicode="&#xee;" horiz-adv-x="267" 
d="M5 524c-6 0 -14.0029 7.33398 -24.0029 22.001c-13.333 20 -20 36.667 -20 50s2 21.666 6 24.999l154 84c4.66699 2.66699 8.33398 4 11.001 4s6.33398 -1.33301 11.001 -4l154 -84c4 -3.33301 6 -8 6 -14c0 -20.667 -5.66699 -39.667 -17 -57s-20 -26 -26 -26
c-1.33301 0 -44 24.667 -128 74c-83.333 -49.333 -125.666 -74 -126.999 -74zM221.997 6.00098c0 -5.33301 -29.5 -8 -88.5 -8s-88.5 2.33301 -88.5 7v475c0 4 29.5 6 88.5 6s88.5 -1.66699 88.5 -5v-475z" />
    <glyph glyph-name="idieresis" unicode="&#xef;" horiz-adv-x="267" 
d="M86 552c0 -4 -23.167 -6 -69.5 -6s-69.5 1.66699 -69.5 5v140c0 6 23.167 9 69.5 9s69.5 -1.66699 69.5 -5v-143zM316 552c0 -4 -23.167 -6 -69.5 -6s-69.5 1.66699 -69.5 5v140c0 6 23.167 9 69.5 9s69.5 -1.66699 69.5 -5v-143zM222 6c0 -5.33301 -29.5 -8 -88.5 -8
s-88.5 2.33301 -88.5 7v475c0 4 29.5 6 88.5 6s88.5 -1.66699 88.5 -5v-475z" />
    <glyph glyph-name="eth" unicode="&#xf0;" horiz-adv-x="574" 
d="M288 489l-158.999 -31.999c-9.33301 0 -17 4.5 -23 13.5s-9 18.833 -9 29.5c0 18.667 7.66699 29.334 23 32.001l117 24c-16.667 19.333 -37.334 40.666 -62.001 63.999c39.333 59.333 77 89 113 89c41.333 0 88.333 -38 141 -114l84 17h4c9.33301 0 17 -4.5 23 -13.5
s9 -18.833 9 -29.5c0 -18.667 -7.33301 -29.334 -22 -32.001l-57 -12c33.333 -65.333 50 -144.333 50 -237s-22.333 -165.5 -67 -218.5s-109 -79.5 -193 -79.5c-69.333 0 -123.333 20.167 -162 60.5s-58 92.5 -58 156.5s18.5 112.167 55.5 144.5s83.833 48.5 140.5 48.5
c29.333 0 61 -4.66699 95 -14c-2.66699 28.667 -17 63 -43 103zM213.001 215.001c0 -40.667 16.332 -61 48.999 -61c23.333 0 40.333 8.33301 51 25s16 37.667 16 63c0 8 -0.333008 14.333 -1 19c-13.333 9.33301 -34.666 14 -63.999 14c-16 0 -28.5 -5.5 -37.5 -16.5
s-13.5 -25.5 -13.5 -43.5z" />
    <glyph glyph-name="ntilde" unicode="&#xf1;" horiz-adv-x="551" 
d="M136 553c-12.667 3.33301 -24.5 14.667 -35.5 34s-16.5 32 -16.5 38s1 10 3 12c42 42 85.333 63 130 63c20.667 0 44 -6.16699 70 -18.5s46 -18.5 60 -18.5c24.667 0.666992 47.667 13.667 69 39c1.33301 0.666992 3 1 5 1c8 0 19 -9.33301 33 -28s21 -31.334 21 -38.001
c0 -19.333 -15.667 -39.666 -47 -60.999c-21.333 -14.667 -41.666 -22 -60.999 -22h-7c-25.333 0 -53.333 6.66699 -84 20s-49.5 20 -56.5 20s-12.833 -0.666992 -17.5 -2l-12.5 -3.5c-3.66699 -1 -8 -3.16699 -13 -6.5l-11.5 -7.5
c-2.66699 -1.66699 -7.33398 -5.16699 -14.001 -10.5s-11.667 -9 -15 -11zM254 6.00098c0 -4.66699 -24.001 -7.00195 -72.001 -7.00195c-66.667 2 -100 5.66699 -100 11v324h-26c-17.333 0 -28.666 14.667 -33.999 44c-1.33301 8.66699 -2 17.334 -2 26.001
c0 20.667 4 41.334 12 62.001c12 29.333 30.667 44 56 44s48 -6 68 -18s33.333 -24 40 -36c42 36 92 54 150 54s100 -15.667 126 -47s39 -82.666 39 -153.999v-300c0 -8 -28.5 -12 -85.5 -12s-85.5 4 -85.5 12v289c0 33.333 -11.667 50 -35 50
c-6.66699 0 -16 -2.83301 -28 -8.5s-19.667 -9.83398 -23 -12.501v-321z" />
    <glyph glyph-name="ograve" unicode="&#xf2;" horiz-adv-x="513" 
d="M26 250c0 81.333 20.833 145 62.5 191s97.834 69 168.501 69s126.667 -23 168 -69s62 -109.667 62 -191s-20.667 -145 -62 -191s-97.333 -69 -168 -69s-126.834 23 -168.501 69s-62.5 109.667 -62.5 191zM201 251c0 -61.333 18.833 -92 56.5 -92s56.5 30.667 56.5 92
s-18.833 92 -56.5 92s-56.5 -30.667 -56.5 -92zM143 605c-3.33301 3.33301 -5.00098 8 -5.00098 14c0 22 6.33301 42.833 19 62.5s22.334 29.5 29.001 29.5c2 0 57.333 -30 166 -90c4 -4 6 -8.66699 6 -14c0 -20 -5.33301 -38 -16 -54s-19 -24 -25 -24
c-1.33301 0 -59.333 25.333 -174 76z" />
    <glyph glyph-name="oacute" unicode="&#xf3;" horiz-adv-x="513" 
d="M26 250c0 81.333 20.833 145 62.5 191s97.834 69 168.501 69s126.667 -23 168 -69s62 -109.667 62 -191s-20.667 -145 -62 -191s-97.333 -69 -168 -69s-126.834 23 -168.501 69s-62.5 109.667 -62.5 191zM201 251c0 -61.333 18.833 -92 56.5 -92s56.5 30.667 56.5 92
s-18.833 92 -56.5 92s-56.5 -30.667 -56.5 -92zM179 529c-6 0 -13.667 6.66504 -23 19.998c-12 18.667 -18 34.334 -18 47.001s2 21 6 25c108.667 60 164 90 166 90c6.66699 0 15 -8 25 -24c15.333 -23.333 23 -45.333 23 -66c0 -7.33301 -1.66699 -12.666 -5 -15.999
c-114.667 -50.667 -172.667 -76 -174 -76z" />
    <glyph glyph-name="ocircumflex" unicode="&#xf4;" horiz-adv-x="513" 
d="M26 250c0 81.333 20.833 145 62.5 191s97.834 69 168.501 69s126.667 -23 168 -69s62 -109.667 62 -191s-20.667 -145 -62 -191s-97.333 -69 -168 -69s-126.834 23 -168.501 69s-62.5 109.667 -62.5 191zM201 251c0 -61.333 18.833 -92 56.5 -92s56.5 30.667 56.5 92
s-18.833 92 -56.5 92s-56.5 -30.667 -56.5 -92zM121 524c-6 0 -14.0029 7.33398 -24.0029 22.001c-13.333 20 -20 36.667 -20 50s2 21.666 6 24.999l154 84c4.66699 2.66699 8.33398 4 11.001 4s6.33398 -1.33301 11.001 -4l154 -84c4 -3.33301 6 -8 6 -14
c0 -20.667 -5.66699 -39.667 -17 -57s-20 -26 -26 -26c-1.33301 0 -44 24.667 -128 74c-83.333 -49.333 -125.666 -74 -126.999 -74z" />
    <glyph glyph-name="otilde" unicode="&#xf5;" horiz-adv-x="513" 
d="M106 553c-12.667 3.33301 -24.5 14.667 -35.5 34s-16.5 32 -16.5 38s1 10 3 12c42 42 85.333 63 130 63c20.667 0 44 -6.16699 70 -18.5s46 -18.5 60 -18.5c24.667 0.666992 47.667 13.667 69 39c1.33301 0.666992 3 1 5 1c8 0 19 -9.33301 33 -28s21 -31.334 21 -38.001
c0 -19.333 -15.667 -39.666 -47 -60.999c-21.333 -14.667 -41.666 -22 -60.999 -22h-7c-25.333 0 -53.333 6.66699 -84 20s-49.5 20 -56.5 20s-12.833 -0.666992 -17.5 -2l-12.5 -3.5c-3.66699 -1 -8 -3.16699 -13 -6.5l-11.5 -7.5
c-2.66699 -1.66699 -7.33398 -5.16699 -14.001 -10.5s-11.667 -9 -15 -11zM26 250.001c0 81.333 20.833 145 62.5 191s97.834 69 168.501 69s126.667 -23 168 -69s62 -109.667 62 -191s-20.667 -145 -62 -191s-97.333 -69 -168 -69s-126.834 23 -168.501 69
s-62.5 109.667 -62.5 191zM201 251.001c0 -61.333 18.833 -92 56.5 -92s56.5 30.667 56.5 92s-18.833 92 -56.5 92s-56.5 -30.667 -56.5 -92z" />
    <glyph glyph-name="odieresis" unicode="&#xf6;" horiz-adv-x="513" 
d="M203 552c0 -4 -23.167 -6 -69.5 -6s-69.5 1.66699 -69.5 5v140c0 6 23.167 9 69.5 9s69.5 -1.66699 69.5 -5v-143zM433 552c0 -4 -23.167 -6 -69.5 -6s-69.5 1.66699 -69.5 5v140c0 6 23.167 9 69.5 9s69.5 -1.66699 69.5 -5v-143zM26 250c0 81.333 20.833 145 62.5 191
s97.834 69 168.501 69s126.667 -23 168 -69s62 -109.667 62 -191s-20.667 -145 -62 -191s-97.333 -69 -168 -69s-126.834 23 -168.501 69s-62.5 109.667 -62.5 191zM201 251c0 -61.333 18.833 -92 56.5 -92s56.5 30.667 56.5 92s-18.833 92 -56.5 92
s-56.5 -30.667 -56.5 -92z" />
    <glyph glyph-name="divide" unicode="&#xf7;" horiz-adv-x="611" 
d="M374 93c0 -3.33301 -24.5 -5 -73.5 -5s-73.5 1.33301 -73.5 4v140c0 4.66699 24.5 7 73.5 7s73.5 -1.33301 73.5 -4v-142zM374 462c0 -4 -24.5 -6 -73.5 -6s-73.5 2 -73.5 6v140c0 4.66699 24.5 7 73.5 7s73.5 -1.33301 73.5 -4v-143zM527 290h-454
c-14 0 -24 9.66699 -30 29c-3.33301 10 -5 19.667 -5 29s1.66699 19 5 29c6 19.333 16 29 30 29h454c14 0 24 -9.66699 30 -29c3.33301 -10 5 -19.667 5 -29s-1.66699 -19 -5 -29c-6 -19.333 -16 -29 -30 -29z" />
    <glyph glyph-name="oslash" unicode="&#xf8;" horiz-adv-x="513" 
d="M90 56c-42.667 46.667 -64.002 110.999 -64.002 192.999s20.833 146 62.5 192s97.834 69 168.501 69c28.667 0 55 -4 79 -12l30 53c4 8 10.5 12 19.5 12s17.333 -1.66699 25 -5s15.5 -8 23.5 -14c18.667 -13.333 24.334 -27.333 17.001 -42l-31 -56
c44.667 -46 67 -110.5 67 -193.5s-20.667 -147.5 -62 -193.5s-97.333 -69 -168 -69c-30 0 -57.333 4 -82 12l-16 -28c-6 -7.33301 -12.333 -11 -19 -11c-22.667 0 -42 8.66699 -58 26c-8.66699 8.66699 -13 15.834 -13 21.501s1.33301 10.5 4 14.5zM361.998 250.999
c0 29.333 -3.33203 53.667 -9.99902 73l-123 -223c8 -2.66699 17.333 -4 28 -4c27.333 0 51.666 11.833 72.999 35.5s32 63.167 32 118.5zM153.999 251c0 -28.667 2.33301 -51.333 7 -68l122 218c-7.33301 2.66699 -16 4 -26 4c-27.333 0 -51.333 -11.667 -72 -35
s-31 -63 -31 -119z" />
    <glyph glyph-name="ugrave" unicode="&#xf9;" horiz-adv-x="544" 
d="M177 605c-3.33301 3.33301 -5.00098 8 -5.00098 14c0 22 6.33301 42.833 19 62.5s22.334 29.5 29.001 29.5c2 0 57.333 -30 166 -90c4 -4 6 -8.66699 6 -14c0 -20 -5.33301 -38 -16 -54s-19 -24 -25 -24c-1.33301 0 -59.333 25.333 -174 76zM39.999 494
c0 7.33301 28.6689 11 86.002 11s86 -3.66699 86 -11v-292c0 -33.333 10.667 -50 32 -50c16 0 34 7 54 21v321c0 6.66699 28.333 10 85 10s85 -3.33301 85 -10v-328h26c22.667 0 34 -21.667 34 -65c0 -22 -4.66699 -44.333 -14 -67c-13.333 -29.333 -31.333 -44 -54 -44
c-44.667 0 -77.667 18.333 -99 55l-1 -1c-40.667 -36 -84.334 -54 -131.001 -54c-64.667 0 -112.334 16.167 -143.001 48.5s-46 85.833 -46 160.5v295z" />
    <glyph glyph-name="uacute" unicode="&#xfa;" horiz-adv-x="544" 
d="M40 494c0 7.33301 28.6689 11 86.002 11s86 -3.66699 86 -11v-292c0 -33.333 10.667 -50 32 -50c16 0 34 7 54 21v321c0 6.66699 28.333 10 85 10s85 -3.33301 85 -10v-328h26c22.667 0 34 -21.667 34 -65c0 -22 -4.66699 -44.333 -14 -67
c-13.333 -29.333 -31.333 -44 -54 -44c-44.667 0 -77.667 18.333 -99 55l-1 -1c-40.667 -36 -84.334 -54 -131.001 -54c-64.667 0 -112.334 16.167 -143.001 48.5s-46 85.833 -46 160.5v295zM213.002 529c-6 0 -13.667 6.66504 -23 19.998c-12 18.667 -18 34.334 -18 47.001
s2 21 6 25c108.667 60 164 90 166 90c6.66699 0 15 -8 25 -24c15.333 -23.333 23 -45.333 23 -66c0 -7.33301 -1.66699 -12.666 -5 -15.999c-114.667 -50.667 -172.667 -76 -174 -76z" />
    <glyph glyph-name="ucircumflex" unicode="&#xfb;" horiz-adv-x="544" 
d="M125 524c-6 0 -14.0029 7.33398 -24.0029 22.001c-13.333 20 -20 36.667 -20 50s2 21.666 6 24.999l154 84c4.66699 2.66699 8.33398 4 11.001 4s6.33398 -1.33301 11.001 -4l154 -84c4 -3.33301 6 -8 6 -14c0 -20.667 -5.66699 -39.667 -17 -57s-20 -26 -26 -26
c-1.33301 0 -44 24.667 -128 74c-83.333 -49.333 -125.666 -74 -126.999 -74zM39.9971 494.001c0 7.33301 28.6689 11 86.002 11s86 -3.66699 86 -11v-292c0 -33.333 10.667 -50 32 -50c16 0 34 7 54 21v321c0 6.66699 28.333 10 85 10s85 -3.33301 85 -10v-328h26
c22.667 0 34 -21.667 34 -65c0 -22 -4.66699 -44.333 -14 -67c-13.333 -29.333 -31.333 -44 -54 -44c-44.667 0 -77.667 18.333 -99 55l-1 -1c-40.667 -36 -84.334 -54 -131.001 -54c-64.667 0 -112.334 16.167 -143.001 48.5s-46 85.833 -46 160.5v295z" />
    <glyph glyph-name="udieresis" unicode="&#xfc;" horiz-adv-x="544" 
d="M211 552c0 -4 -23.167 -6 -69.5 -6s-69.5 1.66699 -69.5 5v140c0 6 23.167 9 69.5 9s69.5 -1.66699 69.5 -5v-143zM441 552c0 -4 -23.167 -6 -69.5 -6s-69.5 1.66699 -69.5 5v140c0 6 23.167 9 69.5 9s69.5 -1.66699 69.5 -5v-143zM40 494
c0 7.33301 28.6689 11 86.002 11s86 -3.66699 86 -11v-292c0 -33.333 10.667 -50 32 -50c16 0 34 7 54 21v321c0 6.66699 28.333 10 85 10s85 -3.33301 85 -10v-328h26c22.667 0 34 -21.667 34 -65c0 -22 -4.66699 -44.333 -14 -67c-13.333 -29.333 -31.333 -44 -54 -44
c-44.667 0 -77.667 18.333 -99 55l-1 -1c-40.667 -36 -84.334 -54 -131.001 -54c-64.667 0 -112.334 16.167 -143.001 48.5s-46 85.833 -46 160.5v295z" />
    <glyph glyph-name="yacute" unicode="&#xfd;" horiz-adv-x="537" 
d="M10 495c0 7.33301 30.5029 11 91.5029 11s92.5 -3.33301 94.5 -10l68 -230l67 231c2.66699 5.33301 24.5 8 65.5 8s73.5 -0.666992 97.5 -2s34.667 -4.66602 32 -9.99902l-235 -669c-0.666992 -4 -18.834 -6 -54.501 -6s-68.834 1.16699 -99.501 3.5
s-45.334 5.16602 -44.001 8.49902l87 210zM193.003 529c-6 0 -13.667 6.66504 -23 19.998c-12 18.667 -18 34.334 -18 47.001s2 21 6 25c108.667 60 164 90 166 90c6.66699 0 15 -8 25 -24c15.333 -23.333 23 -45.333 23 -66c0 -7.33301 -1.66699 -12.666 -5 -15.999
c-114.667 -50.667 -172.667 -76 -174 -76z" />
    <glyph glyph-name="thorn" unicode="&#xfe;" horiz-adv-x="628" 
d="M326 510c140 0 210 -80.333 210 -241c0 -86.667 -21.167 -153.167 -63.5 -199.5s-100.5 -69.5 -174.5 -69.5c-8 0 -19.333 0.666992 -34 2v-167c0 -17.333 -27.667 -26 -83 -26c-24 0 -44.833 2.33301 -62.5 7s-26.5 11 -26.5 19v862c0 8 28.833 12 86.5 12
s86.5 -4.33301 86.5 -13v-194c28.667 5.33301 49 8 61 8zM354 251c0 69.333 -18 104 -54 104c-12 0 -23.667 -4 -35 -12v-191c10.667 -4.66699 20 -7 28 -7c16.667 0 31 8.33301 43 25s18 43.667 18 81z" />
    <glyph glyph-name="ydieresis" unicode="&#xff;" horiz-adv-x="524" 
d="M10 495c0 7.33301 30.5029 11 91.5029 11s92.5 -3.33301 94.5 -10l68 -230l67 231c2.66699 5.33301 24.5 8 65.5 8s73.5 -0.666992 97.5 -2s34.667 -4.66602 32 -9.99902l-235 -669c-0.666992 -4 -18.834 -6 -54.501 -6s-68.834 1.16699 -99.501 3.5
s-45.334 5.16602 -44.001 8.49902l87 210zM216.003 552c0 -4 -23.167 -6 -69.5 -6s-69.5 1.66699 -69.5 5v140c0 6 23.167 9 69.5 9s69.5 -1.66699 69.5 -5v-143zM446.003 552c0 -4 -23.167 -6 -69.5 -6s-69.5 1.66699 -69.5 5v140c0 6 23.167 9 69.5 9
s69.5 -1.66699 69.5 -5v-143z" />
    <glyph glyph-name="dotlessi" unicode="&#x131;" horiz-adv-x="249" 
d="M215 6c0 -5.33301 -29.5 -8 -88.5 -8s-88.5 2.33301 -88.5 7v475c0 4 29.5 6 88.5 6s88.5 -1.66699 88.5 -5v-475z" />
    <glyph glyph-name="Lslash" unicode="&#x141;" horiz-adv-x="469" 
d="M68 26l0.000976562 266h-33c-12 0 -20.667 9.66699 -26 29c-2.66699 10 -4 19.667 -4 29s1.33301 19 4 29c5.33301 19.333 14 29 26 29h33v277c0 10.667 16.667 18 50 22c16.667 2 33 3 49 3l53 -4c33.333 -4 50 -11 50 -21v-277h96c12 0 20.667 -9.66699 26 -29
c2.66699 -10 4 -19.667 4 -29s-1.33301 -19 -4 -29c-5.33301 -19.333 -14 -29 -26 -29h-96v-125h152c12 0 20.667 -13.667 26 -41c2.66699 -15.333 4 -29.833 4 -43.5s-1.33301 -27.167 -4 -40.5c-4 -28 -12 -42 -24 -42h-332c-10.667 0 -17.334 2 -20.001 6
s-4 10.667 -4 20z" />
    <glyph glyph-name="lslash" unicode="&#x142;" horiz-adv-x="381" 
d="M277 8c0 -6 -34 -9.00098 -102 -9.00098c-53.333 0.666992 -80 3.33398 -80 8.00098v211h-60c-12 0 -20.667 9.66699 -26 29c-2.66699 10 -4 19.667 -4 29s1.33301 19 4 29c5.33301 19.333 14 29 26 29h60v354c0 10 32.333 15 97 15c56.667 -2 85 -5.33301 85 -10v-359
h63c12 0 20.667 -9.66699 26 -29c2.66699 -10 4 -19.667 4 -29s-1.33301 -19 -4 -29c-5.33301 -19.333 -14 -29 -26 -29h-63v-210z" />
    <glyph glyph-name="OE" unicode="&#x152;" horiz-adv-x="877" 
d="M735 424c12.667 0 18.999 -23.3311 18.999 -69.998c0 -14 -1.5 -30.5 -4.5 -49.5s-8.5 -28.5 -16.5 -28.5h-129v-100h186c11.333 0 19 -14.667 23 -44c2 -13.333 3 -27.333 3 -42s-2 -33.334 -6 -56.001s-10.667 -34 -20 -34h-349c-28 -9.33301 -60 -14 -96 -14
c-91.333 0 -166.666 31 -225.999 93s-89 152.167 -89 270.5s30.167 208.166 90.5 269.499s136.5 92 228.5 92c32 0 62.333 -3.66699 91 -11h351c14 0 21 -29.667 21 -89s-7 -89 -21 -89h-187v-98h131zM268.999 473.002c-22 -29.333 -33 -70.668 -33 -124.001
s10.5 -94.333 31.5 -123s48.5 -43 82.5 -43s61.5 14.333 82.5 43s31.5 69.834 31.5 123.501s-10.833 95 -32.5 124s-48.667 43.5 -81 43.5s-59.5 -14.667 -81.5 -44z" />
    <glyph glyph-name="oe" unicode="&#x153;" horiz-adv-x="774" 
d="M26 250c0 81.333 20.835 145.001 62.502 191.001s95 69 160 69s117.167 -16.333 156.5 -49c41.333 32.667 91.666 49 150.999 49s107.166 -17 143.499 -51s54.5 -75.333 54.5 -124c0 -108 -62 -162 -186 -162h-69c0 -20 5.5 -33.833 16.5 -41.5s27.167 -11.5 48.5 -11.5
c46.667 0 91 10.667 133 32c0.666992 0.666992 3.66699 -4 9 -14c16 -28.667 24 -52.834 24 -72.501s-6.33301 -32.5 -19 -38.5c-42 -24.667 -93.667 -37 -155 -37s-112.333 16 -153 48c-38 -32 -89.5 -48 -154.5 -48s-118.333 23 -160 69s-62.5 109.667 -62.5 191z
M201.002 251.001c0 -61.333 18.832 -92 56.499 -92s56.5 30.333 56.5 91c0 34 -5.66699 58 -17 72s-24.666 21 -39.999 21c-37.333 0 -56 -30.667 -56 -92zM586.001 316.001c0 28 -13.667 42.001 -41 42.001c-12.667 0 -23.5 -3.83301 -32.5 -11.5
s-13.5 -18.834 -13.5 -33.501v-31h54c22 0 33 11.333 33 34z" />
    <glyph glyph-name="Scaron" unicode="&#x160;" horiz-adv-x="536" 
d="M76 244c12.667 -10 34.501 -23.668 65.501 -41.001s60.667 -26 89 -26s42.5 11 42.5 33c0 10 -4 18.833 -12 26.5s-22.667 16.5 -44 26.5s-37.333 17.833 -48 23.5s-24.834 15 -42.501 28s-31.167 26.5 -40.5 40.5c-26.667 38 -40 86.333 -40 145
s21.833 108.167 65.5 148.5s100.834 60.5 171.501 60.5c48 0 92.333 -5.16699 133 -15.5s61.667 -23.833 63 -40.5v-6c0 -23.333 -7.33301 -52.833 -22 -88.5s-25 -55.5 -31 -59.5c-42.667 22 -80.834 33 -114.501 33s-50.5 -12 -50.5 -36c0 -14.667 12.333 -27.667 37 -39
l23 -11l34.5 -16.5c13 -6.33301 27 -14.333 42 -24s31.167 -22.5 48.5 -38.5c35.333 -33.333 53 -77.333 53 -132c0 -71.333 -19.667 -129.666 -59 -174.999s-100 -68.666 -182 -69.999c-40 0 -76.167 3.33301 -108.5 10s-60.5 19.667 -84.5 39s-36 42.666 -36 69.999
s5 54.5 15 81.5s20.667 44.833 32 53.5zM392.001 918.999c6 0 14.0029 -7.33398 24.0029 -22.001c13.333 -20 20 -36.667 20 -50s-2 -21.666 -6 -24.999l-154 -84c-4.66699 -2.66699 -8.33398 -4 -11.001 -4s-6.33398 1.33301 -11.001 4l-154 84c-4 3.33301 -6 8 -6 14
c0 20.667 5.66699 39.667 17 57s20 26 26 26c1.33301 0 44 -24.667 128 -74c83.333 49.333 125.666 74 126.999 74z" />
    <glyph glyph-name="scaron" unicode="&#x161;" horiz-adv-x="450" 
d="M66 180c54 -32.667 96.666 -49.002 127.999 -49.002c20 0 30 7 30 21c0 10 -17.333 23 -52 39c-83.333 34 -125 89.667 -125 167c0 49.333 18 87 54 113s79.167 39 129.5 39s93 -5.33301 128 -16s52.5 -24.667 52.5 -42c0 -14.667 -7.16699 -34 -21.5 -58
s-24.166 -37 -29.499 -39c-28.667 16 -59.667 24 -93 24c-18 0 -27 -6.33301 -27 -19c0 -8 3.5 -14.833 10.5 -20.5s19.833 -12.667 38.5 -21s34.167 -15.833 46.5 -22.5s26.166 -16 41.499 -28c32 -25.333 48 -58.333 48 -99c0 -53.333 -17.667 -96.5 -53 -129.5
s-88.666 -49.5 -159.999 -49.5c-47.333 0 -90.333 8 -129 24s-58 38 -58 66c0 18.667 4.5 38.334 13.5 59.001s18.167 34.334 27.5 41.001zM351.999 708.998c6 0 14.0029 -7.33398 24.0029 -22.001c13.333 -20 20 -36.667 20 -50s-2 -21.666 -6 -24.999l-154 -84
c-4.66699 -2.66699 -8.33398 -4 -11.001 -4s-6.33398 1.33301 -11.001 4l-154 84c-4 3.33301 -6 8 -6 14c0 20.667 5.66699 39.667 17 57s20 26 26 26c1.33301 0 44 -24.667 128 -74c83.333 49.333 125.666 74 126.999 74z" />
    <glyph glyph-name="Ydieresis" unicode="&#x178;" horiz-adv-x="615" 
d="M398 674c8.66699 23.333 51.334 35 128.001 35c19.333 0 42.166 -1.33301 68.499 -4s38.5 -6 36.5 -10l-208 -445v-232c0 -11.333 -18.333 -19.333 -55 -24c-18.667 -2.66699 -37 -4 -55 -4s-36 1 -54 3c-36.667 4.66699 -55 13 -55 25v226l-215 449
c-2.66699 4 11 7.83301 41 11.5s55.333 5.5 76 5.5c82 0 127 -12 135 -36l73 -218zM262 752c0 -4 -23.167 -6 -69.5 -6s-69.5 1.66699 -69.5 5v140c0 6 23.167 9 69.5 9s69.5 -1.66699 69.5 -5v-143zM492 752c0 -4 -23.167 -6 -69.5 -6s-69.5 1.66699 -69.5 5v140
c0 6 23.167 9 69.5 9s69.5 -1.66699 69.5 -5v-143z" />
    <glyph glyph-name="Zcaron" unicode="&#x17d;" horiz-adv-x="563" 
d="M76 518c-11.333 0 -19.334 15.3359 -24.001 46.0029c-2 12.667 -3 26.667 -3 42s1.66699 31.333 5 48c6 30.667 16 46 30 46h389c10.667 0 24.167 -21.833 40.5 -65.5s24.5 -67.834 24.5 -72.501s-0.333008 -7.33398 -1 -8.00098l-234 -355h183h2c14.667 0 25 -16 31 -48
c2.66699 -15.333 4 -31.333 4 -48s-2 -34.334 -6 -53.001c-7.33301 -33.333 -18.666 -50 -33.999 -50h-389c-6 0 -16.833 20.167 -32.5 60.5s-23.5 65.5 -23.5 75.5s1 16.333 3 19l234 363h-199zM406.999 909.003c6 0 14.0029 -7.33398 24.0029 -22.001
c13.333 -20 20 -36.667 20 -50s-2 -21.666 -6 -24.999l-154 -84c-4.66699 -2.66699 -8.33398 -4 -11.001 -4s-6.33398 1.33301 -11.001 4l-154 84c-4 3.33301 -6 8 -6 14c0 20.667 5.66699 39.667 17 57s20 26 26 26c1.33301 0 44 -24.667 128 -74
c83.333 49.333 125.666 74 126.999 74z" />
    <glyph glyph-name="zcaron" unicode="&#x17e;" horiz-adv-x="454" 
d="M43 340c-4.66699 0 -7 14.334 -7 43.001c0 78 6.33301 117 19 117h319c4.66699 0 15 -14.667 31 -44s24 -45.833 24 -49.5s-0.333008 -5.83398 -1 -6.50098l-194 -244l174 12c10.667 0 16 -23.667 16 -71c0 -18 -1.66699 -38.667 -5 -62s-9 -35 -17 -35h-320
c-10 0 -22 16.667 -36 50s-21 53.5 -21 60.5s0.666992 11.167 2 12.5l191 223zM355 709.001c6 0 14.0029 -7.33398 24.0029 -22.001c13.333 -20 20 -36.667 20 -50s-2 -21.666 -6 -24.999l-154 -84c-4.66699 -2.66699 -8.33398 -4 -11.001 -4s-6.33398 1.33301 -11.001 4
l-154 84c-4 3.33301 -6 8 -6 14c0 20.667 5.66699 39.667 17 57s20 26 26 26c1.33301 0 44 -24.667 128 -74c83.333 49.333 125.666 74 126.999 74z" />
    <glyph glyph-name="florin" unicode="&#x192;" horiz-adv-x="422" 
d="M376 500c7.33301 0 11 -11.334 11 -34.001c0 -33.333 -5.66699 -62 -17 -86c-4 -9.33301 -8.33301 -14 -13 -14h-74l-38 -384c-16 -118 -85.333 -177 -208 -177c-35.333 0 -65.333 4.33301 -90 13s-37 21.667 -37 39s6 37 18 59s21 37.333 27 46
c21.333 -14 47.666 -21 78.999 -21c26.667 0 41.667 17.333 45 52l37 374h-69c-7.33301 0 -11 10.333 -11 31c0 13.333 1.66699 29 5 47c6.66699 36.667 13.334 55 20.001 55h69l3 22c7.33301 70 26.833 118.667 58.5 146s74.167 41 127.5 41
c29.333 0 60.5 -4.16699 93.5 -12.5s49.5 -21.166 49.5 -38.499c0 -14 -5.33301 -29.833 -16 -47.5s-21.334 -32.167 -32.001 -43.5s-16 -16.333 -16 -15c-21.333 14 -44.166 21 -68.499 21s-38.833 -17.333 -43.5 -52l-3 -21h93z" />
    <glyph glyph-name="circumflex" unicode="&#x2c6;" horiz-adv-x="480" 
d="M116 524c-6 0 -14.0029 7.33398 -24.0029 22.001c-13.333 20 -20 36.667 -20 50s2 21.666 6 24.999l154 84c4.66699 2.66699 8.33398 4 11.001 4s6.33398 -1.33301 11.001 -4l154 -84c4 -3.33301 6 -8 6 -14c0 -20.667 -5.66699 -39.667 -17 -57s-20 -26 -26 -26
c-1.33301 0 -44 24.667 -128 74c-83.333 -49.333 -125.666 -74 -126.999 -74z" />
    <glyph glyph-name="caron" unicode="&#x2c7;" horiz-adv-x="483" 
d="M370 709c6 0 14.0029 -7.33398 24.0029 -22.001c13.333 -20 20 -36.667 20 -50s-2 -21.666 -6 -24.999l-154 -84c-4.66699 -2.66699 -8.33398 -4 -11.001 -4s-6.33398 1.33301 -11.001 4l-154 84c-4 3.33301 -6 8 -6 14c0 20.667 5.66699 39.667 17 57s20 26 26 26
c1.33301 0 44 -24.667 128 -74c83.333 49.333 125.666 74 126.999 74z" />
    <glyph glyph-name="ring" unicode="&#x2da;" horiz-adv-x="396" 
d="M112 619c0 25.333 8.66699 46.666 26 63.999s38.666 26 63.999 26s46.666 -8.66699 63.999 -26s26 -38.666 26 -63.999s-8.66699 -46.666 -26 -63.999s-38.666 -26 -63.999 -26s-46.666 8.66699 -63.999 26s-26 38.666 -26 63.999zM143 620
c0 -16.667 5.83301 -30.834 17.5 -42.501s25.834 -17.5 42.501 -17.5s30.834 5.83301 42.501 17.5s17.5 25.834 17.5 42.501s-5.83301 30.834 -17.5 42.501s-25.834 17.5 -42.501 17.5s-30.834 -5.83301 -42.501 -17.5s-17.5 -25.834 -17.5 -42.501z" />
    <glyph glyph-name="tilde" unicode="&#x2dc;" horiz-adv-x="440" 
d="M74 553c-12.667 3.33301 -24.5 14.667 -35.5 34s-16.5 32 -16.5 38s1 10 3 12c42 42 85.333 63 130 63c20.667 0 44 -6.16699 70 -18.5s46 -18.5 60 -18.5c24.667 0.666992 47.667 13.667 69 39c1.33301 0.666992 3 1 5 1c8 0 19 -9.33301 33 -28s21 -31.334 21 -38.001
c0 -19.333 -15.667 -39.666 -47 -60.999c-21.333 -14.667 -41.666 -22 -60.999 -22h-7c-25.333 0 -53.333 6.66699 -84 20s-49.5 20 -56.5 20s-12.833 -0.666992 -17.5 -2l-12.5 -3.5c-3.66699 -1 -8 -3.16699 -13 -6.5l-11.5 -7.5
c-2.66699 -1.66699 -7.33398 -5.16699 -14.001 -10.5s-11.667 -9 -15 -11z" />
    <glyph glyph-name="endash" unicode="&#x2013;" horiz-adv-x="469" 
d="M392 190h-315c-12 0 -20.667 9.66699 -26 29c-2.66699 10 -4 19.667 -4 29s1.33301 19 4 29c5.33301 19.333 14 29 26 29h315c12 0 20.667 -9.66699 26 -29c2.66699 -10 4 -19.667 4 -29s-1.33301 -19 -4 -29c-5.33301 -19.333 -14 -29 -26 -29z" />
    <glyph glyph-name="emdash" unicode="&#x2014;" horiz-adv-x="789" 
d="M670 190h-573c-12 0 -20.667 9.66699 -26 29c-2.66699 10 -4 19.667 -4 29s1.33301 19 4 29c5.33301 19.333 14 29 26 29h573c12 0 20.667 -9.66699 26 -29c2.66699 -10 4 -19.667 4 -29s-1.33301 -19 -4 -29c-5.33301 -19.333 -14 -29 -26 -29z" />
    <glyph glyph-name="quoteleft" unicode="&#x2018;" horiz-adv-x="341" 
d="M89 469l0.000976562 210.999c0 12.667 8.66699 21.334 26 26.001c8.66699 2 17.5 3 26.5 3s20.5 -1.83301 34.5 -5.5s22.667 -11.5 26 -23.5l60 -211c0 -12 -14.333 -20.667 -43 -26c-14 -2.66699 -28.333 -4 -43 -4s-29.334 1.33301 -44.001 4
c-28.667 5.33301 -43 14 -43 26z" />
    <glyph glyph-name="quoteright" unicode="&#x2019;" horiz-adv-x="314" 
d="M126 440c-9.33301 0 -18.6689 1.33301 -28.002 4c-18.667 5.33301 -28 14 -28 26v211c0 12 14.333 20.667 43 26c14 2.66699 28.333 4 43 4s29.334 -1.33301 44.001 -4c28.667 -5.33301 43 -14 43 -26l-60 -211c0 -12 -9.66699 -20.667 -29 -26
c-9.33301 -2.66699 -18.666 -4 -27.999 -4z" />
    <glyph glyph-name="quotesinglbase" unicode="&#x201a;" horiz-adv-x="368" 
d="M120 148c4 10.667 32.333 16 85 16s79 -7 79 -21l-2 -85l-58 -136c-8.66699 -19.333 -35.5 -29 -80.5 -29s-73.5 7.33301 -85.5 22c-2.66699 3.33301 -4 6.5 -4 9.5s0.333008 5.83301 1 8.5l61 124z" />
    <glyph glyph-name="quotedblleft" unicode="&#x201c;" horiz-adv-x="564" 
d="M89 469l0.000976562 210.999c0 12.667 8.66699 21.334 26 26.001c8.66699 2 17.5 3 26.5 3s20.5 -1.83301 34.5 -5.5s22.667 -11.5 26 -23.5l60 -211c0 -12 -14.333 -20.667 -43 -26c-14 -2.66699 -28.333 -4 -43 -4s-29.334 1.33301 -44.001 4
c-28.667 5.33301 -43 14 -43 26zM319.001 468.999l0.000976562 210.999c0 12.667 8.66699 21.334 26 26.001c8.66699 2 17.5 3 26.5 3s20.5 -1.83301 34.5 -5.5s22.667 -11.5 26 -23.5l60 -211c0 -12 -14.333 -20.667 -43 -26c-14 -2.66699 -28.333 -4 -43 -4
s-29.334 1.33301 -44.001 4c-28.667 5.33301 -43 14 -43 26z" />
    <glyph glyph-name="quotedblright" unicode="&#x201d;" horiz-adv-x="530" 
d="M183 469c-3.33301 -12 -12.001 -19.834 -26.001 -23.501s-25.5 -5.5 -34.5 -5.5s-17.833 1 -26.5 3c-17.333 4.66699 -26 13.334 -26 26.001v211c0 12 14.333 20.667 43 26c14 2.66699 28.333 4 43 4s29.334 -1.33301 44.001 -4c28.667 -5.33301 43 -14 43 -26z
M408.999 468.999c-3.33301 -12 -12.001 -19.834 -26.001 -23.501s-25.5 -5.5 -34.5 -5.5s-17.833 1 -26.5 3c-17.333 4.66699 -26 13.334 -26 26.001v211c0 12 14.333 20.667 43 26c14 2.66699 28.333 4 43 4s29.334 -1.33301 44.001 -4c28.667 -5.33301 43 -14 43 -26z" />
    <glyph glyph-name="quotedblbase" unicode="&#x201e;" horiz-adv-x="651" 
d="M120 148c4 10.667 32.333 16 85 16s79 -7 79 -21l-2 -85l-58 -136c-8.66699 -19.333 -35.5 -29 -80.5 -29s-73.5 7.33301 -85.5 22c-2.66699 3.33301 -4 6.5 -4 9.5s0.333008 5.83301 1 8.5l61 124zM390 148c4 10.667 32.333 16 85 16s79 -7 79 -21l-2 -85l-58 -136
c-8.66699 -19.333 -35.5 -29 -80.5 -29s-73.5 7.33301 -85.5 22c-2.66699 3.33301 -4 6.5 -4 9.5s0.333008 5.83301 1 8.5l61 124z" />
    <glyph glyph-name="dagger" unicode="&#x2020;" horiz-adv-x="475" 
d="M298 406v-456c0 -12 -9.66699 -20.667 -29 -26c-10 -2.66699 -19.667 -4 -29 -4l-29 4c-19.333 5.33301 -29 14 -29 26v456h-115c-12.667 0 -21.334 9.66699 -26.001 29c-2 8.66699 -3 17.834 -3 27.501s1.33301 19.834 4 30.501c6 19.333 15 29 27 29h113v181
c0 12 9.66699 20.667 29 26c10 2.66699 19.667 4 29 4l29 -4c19.333 -5.33301 29 -14 29 -26v-181h114c12.667 0 21.334 -9.66699 26.001 -29c2 -8.66699 3 -17.834 3 -27.501s-1.66699 -19.834 -5 -30.501c-5.33301 -19.333 -14 -29 -26 -29h-112z" />
    <glyph glyph-name="daggerdbl" unicode="&#x2021;" horiz-adv-x="480" 
d="M410 116h-112v-166c0 -12 -9.66699 -20.667 -29 -26c-10 -2.66699 -19.667 -4 -29 -4l-29 4c-19.333 5.33301 -29 14 -29 26v166h-115c-12.667 0 -21.334 9.66699 -26.001 29c-2 8.66699 -3 17.834 -3 27.501s1.33301 19.834 4 30.501c6 19.333 15 29 27 29h113v204h-115
c-12.667 0 -21.334 9.66699 -26.001 29c-2 8.66699 -3 17.834 -3 27.501s1.33301 19.834 4 30.501c6 19.333 15 29 27 29h113v151c0 12 9.66699 20.667 29 26c10 2.66699 19.667 4 29 4l29 -4c19.333 -5.33301 29 -14 29 -26v-151h114c12.667 0 21.334 -9.66699 26.001 -29
c2 -8.66699 3 -17.834 3 -27.501s-1.66699 -19.834 -5 -30.501c-5.33301 -19.333 -14 -29 -26 -29h-112v-204h114c12.667 0 21.334 -9.66699 26.001 -29c2 -8.66699 3 -17.834 3 -27.501s-1.66699 -19.834 -5 -30.501c-5.33301 -19.333 -14 -29 -26 -29z" />
    <glyph glyph-name="bullet" unicode="&#x2022;" horiz-adv-x="357" 
d="M83 264c0 26 9.33301 48.333 28 67s41 28 67 28s48.333 -9.33301 67 -28s28 -41 28 -67s-9.33301 -48.333 -28 -67s-41 -28 -67 -28s-48.333 9.33301 -67 28s-28 41 -28 67z" />
    <glyph glyph-name="ellipsis" unicode="&#x2026;" horiz-adv-x="909" 
d="M247 -3c0 -4.66699 -31.5 -7 -94.5 -7s-94.5 2 -94.5 6v180c0 6 31.5 9 94.5 9s94.5 -1.66699 94.5 -5v-183zM550 -3c0 -4.66699 -31.5 -7 -94.5 -7s-94.5 2 -94.5 6v180c0 6 31.5 9 94.5 9s94.5 -1.66699 94.5 -5v-183zM853 -3c0 -4.66699 -31.5 -7 -94.5 -7
s-94.5 2 -94.5 6v180c0 6 31.5 9 94.5 9s94.5 -1.66699 94.5 -5v-183z" />
    <glyph glyph-name="perthousand" unicode="&#x2030;" horiz-adv-x="1006" 
d="M910 328c28.667 -32.667 43 -80.499 43 -143.499s-14.167 -110.833 -42.5 -143.5s-64.166 -49 -107.499 -49s-77.666 12.667 -102.999 38c-25.333 -25.333 -59.333 -38 -102 -38s-78.334 15.833 -107.001 47.5s-43 79.667 -43 144s14 112.666 42 144.999
s63.5 48.5 106.5 48.5s77.167 -12.667 102.5 -38c25.333 25.333 59.666 38 102.999 38s79.333 -16.333 108 -49zM578 702.001c6 5.33301 12.333 7.99902 19 7.99902c24.667 0 47 -12.333 67 -37c8 -10 12 -18.167 12 -24.5s-1.33301 -11.166 -4 -14.499l-475 -636
c-6 -5.33301 -12.333 -8 -19 -8c-24 0 -46 12.667 -66 38c-8.66699 10 -13 18 -13 24s1.33301 10.667 4 14zM297 662c28.667 -32.667 43.001 -80.499 43.001 -143.499s-14.167 -110.833 -42.5 -143.5s-64.833 -49 -109.5 -49s-81.334 15.833 -110.001 47.5
s-43 79.667 -43 144s14 112.666 42 144.999s64.5 48.5 109.5 48.5s81.833 -16.333 110.5 -49zM235.001 519.001c0 43.333 -15.667 65 -47 65s-47 -21.667 -47 -65c0 -20.667 4.33301 -36.334 13 -47.001s20 -16 34 -16s25.333 5.33301 34 16s13 26.334 13 47.001z
M601.001 250.001c-31.333 0 -47 -21.666 -47 -64.999c0 -20.667 4.33301 -36.334 13 -47.001s20 -16 34 -16c30.667 0 46.334 20.667 47.001 62v7c-1.33301 19.333 -6.33301 34 -15 44s-19.334 15 -32.001 15zM848.001 185.002c0 43.333 -15.667 65 -47 65
s-47 -21.667 -47 -65c0 -20.667 4.33301 -36.334 13 -47.001s20 -16 34 -16s25.333 5.33301 34 16s13 26.334 13 47.001z" />
    <glyph glyph-name="guilsinglleft" unicode="&#x2039;" horiz-adv-x="497" 
d="M99 236c-6.66699 6.66699 -10 13.668 -10 21.001s4.66699 15.666 14 24.999l168 197c4 4 9.16699 6 15.5 6s16.333 -4 30 -12s24.334 -18.5 32.001 -31.5s11.5 -22.667 11.5 -29s-2.33301 -11.5 -7 -15.5l-132 -142l134 -144c4.66699 -4 7 -9.16699 7 -15.5
s-3.83301 -16 -11.5 -29s-18.334 -23.5 -32.001 -31.5s-23.667 -12 -30 -12s-11.5 2 -15.5 6z" />
    <glyph glyph-name="guilsinglright" unicode="&#x203a;" horiz-adv-x="443" 
d="M178 29c-4.66699 -4.66699 -10.168 -7 -16.501 -7s-16.166 4 -29.499 12s-23.833 18.667 -31.5 32s-11.5 23.166 -11.5 29.499s2.33301 11.5 7 15.5l134 144l-132 142c-4.66699 4 -7 9.16699 -7 15.5s3.83301 16 11.5 29s18.167 23.5 31.5 31.5s23.333 12 30 12
s12 -2 16 -6l168 -197c9.33301 -9.33301 14 -17.666 14 -24.999s-3.33301 -14.333 -10 -21z" />
    <glyph glyph-name="fraction" unicode="&#x2044;" horiz-adv-x="313" 
d="M246 678c3.33301 7.33301 9.83105 10.999 19.498 10.999s19.834 -2.33301 30.501 -7c24.667 -11.333 40.667 -24.666 48 -39.999c2.66699 -4.66699 4 -9 4 -13s-0.666992 -7.33301 -2 -10l-328 -570c-4 -6.66699 -11 -10 -21 -10s-20 2.33301 -30 7
c-25.333 12 -41.666 25.333 -48.999 40c-2 4 -3 7.83301 -3 11.5s1 7.16699 3 10.5z" />
    <glyph glyph-name="Euro" unicode="&#x20ac;" horiz-adv-x="574" 
d="M532 634c0 -13.333 -4 -32.502 -12 -57.502s-17.167 -45.833 -27.5 -62.5s-18.833 -25 -25.5 -25c-2 0 -4 0.666992 -6 2c-19.333 14 -51.333 21 -96 21c-59.333 0 -101 -23.333 -125 -70h178c9.33301 0 16 -5.33301 20 -16c1.33301 -5.33301 2 -10.666 2 -15.999
s-0.666992 -10.666 -2 -15.999c-4 -10.667 -10.667 -16 -20 -16h-191c0 -24 0.666992 -39.333 2 -46h189c9.33301 0 15.666 -4 18.999 -12s5 -14.667 5 -20s-1 -10.666 -3 -15.999c-4 -10.667 -11 -16 -21 -16h-171c33.333 -52 77.666 -78 132.999 -78
c16 0 33.667 2.5 53 7.5s31.833 9.66699 37.5 14s9.16699 6.5 10.5 6.5c5.33301 0 12.833 -8.33301 22.5 -25s18.834 -37.334 27.501 -62.001s13 -42.667 13 -54c0 -26 -18.667 -46.667 -56 -62s-81.666 -23 -132.999 -23c-85.333 0 -156.833 32.333 -214.5 97
s-86.5 152.167 -86.5 262.5s28.5 197.333 85.5 261s129.5 95.5 217.5 95.5c46 0 86.667 -6.83301 122 -20.5s53 -31.5 53 -53.5z" />
    <glyph glyph-name="trademark" unicode="&#x2122;" horiz-adv-x="803" 
d="M239 350c0 -11.333 -19.833 -17 -59.5 -17s-59.5 5.66699 -59.5 17v238h-48c-12.667 0 -19 18.5 -19 55.5s6.33301 55.5 19 55.5h213c13.333 0 20 -18.5 20 -55.5s-6.66699 -55.5 -20 -55.5h-46v-238zM745 353c0 -12.667 -19.332 -19 -57.999 -19s-58.667 6 -60 18
l-8 158l-41 -163c-2.66699 -8.66699 -17.334 -13 -44.001 -13s-41.334 4.33301 -44.001 13l-42 165l-7 -161c0 -12 -19.333 -18 -58 -18s-58 6 -58 18l16 329c2 16 25 24 69 24c47.333 0 73.333 -5.66699 78 -17l46 -156l40 151c6.66699 14 28.334 21 65.001 21
c55.333 0 85.333 -7.66699 90 -23z" />
    <glyph glyph-name="minus" unicode="&#x2212;" horiz-adv-x="603" 
d="M492 190h-395c-12 0 -20.667 9.66699 -26 29c-2.66699 10 -4 19.667 -4 29s1.33301 19 4 29c5.33301 19.333 14 29 26 29h395c12 0 20.667 -9.66699 26 -29c2.66699 -10 4 -19.667 4 -29s-1.33301 -19 -4 -29c-5.33301 -19.333 -14 -29 -26 -29z" />
    <glyph glyph-name="fi" unicode="&#xfb01;" horiz-adv-x="648" 
d="M563 6c0 -5.33301 -30.498 -8.00098 -91.498 -8.00098s-91.5 2.33301 -91.5 7v361h-128v-354c0 -8 -27.833 -12 -83.5 -12s-83.5 4 -83.5 12v355h-49c-10 0 -15 22.167 -15 66.5s5 66.5 15 66.5h49v22c0 70 14.167 118.667 42.5 146s68.5 41 120.5 41
c33.333 0 59.166 -5.16699 77.499 -15.5s27.5 -22.666 27.5 -36.999s-2 -29.5 -6 -45.5c-7.33301 -30 -13.333 -47.333 -18 -52c-20 9.33301 -37.833 14 -53.5 14s-26.334 -3.83301 -32.001 -11.5s-8.5 -21.167 -8.5 -40.5v-21h290c25.333 0 38 -9 38 -27v-467z
M565.002 555.999c0 -4 -30.833 -6 -92.5 -6s-92.5 2.66699 -92.5 8v141c0 6.66699 30.833 10 92.5 10s92.5 -2 92.5 -6v-147z" />
    <glyph glyph-name="fl" unicode="&#xfb02;" horiz-adv-x="647" 
d="M563 6c0 -5.33301 -30.498 -8.00098 -91.498 -8.00098s-91.5 2.33301 -91.5 7v361h-129v-354c0 -8 -27.833 -12 -83.5 -12s-83.5 4 -83.5 12v355h-49c-10 0 -15 22.167 -15 66.5s5 66.5 15 66.5h49v22c0 70 14.167 118.667 42.5 146s68.5 41 120.5 41
c33.333 0 59.166 -5.16699 77.499 -15.5s27.5 -22.666 27.5 -36.999s-2 -29.5 -6 -45.5c-7.33301 -30 -13.333 -47.333 -18 -52c-20 9.33301 -37.833 14 -53.5 14s-26.334 -3.83301 -32.001 -11.5s-8.5 -21.167 -8.5 -40.5v-21h146v199c0 6.66699 30.5 10 91.5 10
s91.5 -2 91.5 -6v-697z" />
    <glyph glyph-name=".null" horiz-adv-x="0" 
 />
    <glyph glyph-name="nonmarkingreturn" horiz-adv-x="333" 
 />
    <glyph glyph-name="CR" horiz-adv-x="199" 
 />
    </font>
</defs>
</svg>
